SplineFontDB: 3.0
FontName: Monaco
FullName: Monaco
FamilyName: Monaco
Weight: Regular
Copyright: (c) 1990-2008 Apple Inc. (c) 1990-97 Type Solutions Inc. (c) 1990-97 The Font Bureau Inc.  TrueType outline design of Monaco typeface created by Kris Holmes and Charles Bigelow.
Version: 001.001
ItalicAngle: 0
UnderlinePosition: 0
UnderlineWidth: 155
Ascent: 1638
Descent: 410
sfntRevision: 0x00020000
LayerCount: 2
Layer: 0 0 "Back"  1
Layer: 1 0 "Fore"  0
XUID: [1021 664 1202113233 15959462]
FSType: 4
OS2Version: 3
OS2_WeightWidthSlopeOnly: 0
OS2_UseTypoMetrics: 1
CreationTime: -490924800
ModificationTime: 1412598452
PfmFamily: 17
TTFWeight: 400
TTFWidth: 5
LineGap: 171
VLineGap: 0
Panose: 2 0 0 0 0 0 0 0 0 0
OS2TypoAscent: 2048
OS2TypoAOffset: 0
OS2TypoDescent: -512
OS2TypoDOffset: 0
OS2TypoLinegap: 171
OS2WinAscent: 2504
OS2WinAOffset: 0
OS2WinDescent: 862
OS2WinDOffset: 0
HheadAscent: 2048
HheadAOffset: 0
HheadDescent: -512
HheadDOffset: 0
OS2SubXSize: 1331
OS2SubYSize: 1228
OS2SubXOff: 0
OS2SubYOff: 153
OS2SupXSize: 1331
OS2SupYSize: 1228
OS2SupXOff: 0
OS2SupYOff: 716
OS2StrikeYSize: 155
OS2StrikeYPos: 670
OS2Vendor: 'pyrs'
OS2CodePages: 60000197.00000000
OS2UnicodeRanges: a000027f.00000003.00000000.00000000
MarkAttachClasses: 1
DEI: 91125
LangName: 1033 "+AKkA 1990-2008 Apple Inc. +AKkA 1990-97 Type Solutions Inc. +AKkA 1990-97 The Font Bureau Inc.  TrueType outline design of Monaco typeface created by Kris Holmes and Charles Bigelow." "" "" "" "" "7.0d1e1" "" "Please refer to the Copyright section for the font trademark attribution notices." 
LangName: 1025 "Copyright 1990-2008 Apple Inc. Copyright 1990-97 Type Solutions Inc. Copyright 1990-97 The Font Bureau Inc.  TrueType outline design of Monaco typeface created by Kris Holmes and Charles Bigelow." 
LangName: 1065 "Copyright 1990-2008 Apple Inc. Copyright 1990-97 Type Solutions Inc. Copyright 1990-97 The Font Bureau Inc.  TrueType outline design of Monaco typeface created by Kris Holmes and Charles Bigelow." 

StartChar: .notdef
Encoding: 65536 -1 0
Width: 1229
Flags: MW
HStem: 0 150<297 727 297 877> 1402 150<297 727 297 297>
VStem: 147 150<150 1402 150 1552> 727 150<150 1402 1402 1402>
LayerCount: 2
Fore
SplineSet
877 1552 m 1
 877 0 l 1
 147 0 l 1
 147 1552 l 1
 877 1552 l 1
727 150 m 1
 727 1402 l 1
 297 1402 l 1
 297 150 l 1
 727 150 l 1
EndSplineSet
EndChar

StartChar: exclam
Encoding: 33 33 4
Width: 1229
Flags: MW
HStem: -47 21G<595.5 634> 1532 20G<483 731 731 731>
VStem: 471 287<77.5 116.5>
LayerCount: 2
Fore
SplineSet
684 442 m 1
 529 442 l 1
 483 1552 l 1
 731 1552 l 1
 684 442 l 1
615 -47 m 0
 576 -47 542 -33 513 -4 c 0
 485 24 471 58 471 97 c 0
 471 136 485 170 513 198 c 0
 542 226 576 240 615 240 c 0
 654 240 687 226 715 198 c 0
 744 171 758 137 758 97 c 0
 758 57 744 23 715 -5 c 0
 686 -33 653 -47 615 -47 c 0
EndSplineSet
EndChar

StartChar: quotedbl
Encoding: 34 34 5
Width: 1229
Flags: MW
HStem: 1055 559<337 465 337 337 769 769 769 896>
VStem: 273 683<1614 1614>
LayerCount: 2
Fore
SplineSet
522 1614 m 1
 465 1055 l 1
 337 1055 l 1
 273 1614 l 1
 522 1614 l 1
956 1614 m 1
 896 1055 l 1
 769 1055 l 1
 712 1614 l 1
 956 1614 l 1
EndSplineSet
EndChar

StartChar: numbersign
Encoding: 35 35 6
Width: 1229
Flags: MW
HStem: 0 21G<119 267 119 119 540 688 540 540> 419 140<71 230 71 267 71 377 414 656 841 1157> 970 139<71 377 71 412 558 807 71 521 989 1157> 1532 20G<529 675 675 675 963 1109 1109 1109>
VStem: 71 1086<419 559 419 559 970 1109 419 1109>
LayerCount: 2
Fore
SplineSet
230 419 m 1
 71 419 l 1
 71 559 l 1
 267 559 l 1
 377 970 l 1
 71 970 l 1
 71 1109 l 1
 412 1109 l 1
 529 1552 l 1
 675 1552 l 1
 558 1109 l 1
 841 1109 l 1
 963 1552 l 1
 1109 1552 l 1
 989 1109 l 1
 1157 1109 l 1
 1157 970 l 1
 950 970 l 1
 841 559 l 1
 1157 559 l 1
 1157 419 l 1
 802 419 l 1
 688 0 l 1
 540 0 l 1
 656 419 l 1
 377 419 l 1
 267 0 l 1
 119 0 l 1
 230 419 l 1
521 970 m 1
 414 559 l 1
 694 559 l 1
 807 970 l 1
 521 970 l 1
EndSplineSet
EndChar

StartChar: dollar
Encoding: 36 36 7
Width: 1229
Flags: MW
HStem: -155 1862<580 720 580 720> 2 156<557.5 580> 1388 153<580 720>
VStem: 169 201<1167.5 1208> 580 140<-155 2 2 2 172 632 928 1388 1541 1707> 906 201<414 416.5>
LayerCount: 2
Fore
SplineSet
720 -155 m 1x8c
 580 -155 l 1
 580 2 l 1
 535 2 489 4 441 9 c 0
 393 14 348 21 306 30 c 0
 264 40 216 57 161 82 c 1
 161 274 l 1
 294 205 408 170 580 158 c 1
 580 715 l 1
 473 773 l 2
 270 882 169 1013 169 1167 c 0
 169 1249 203 1329 270 1406 c 0
 337 1484 441 1529 580 1541 c 1
 580 1707 l 1
 720 1707 l 1
 720 1541 l 1
 799 1541 892 1527 999 1500 c 1
 999 1327 l 1
 964 1337 l 2
 863 1365 782 1382 720 1388 c 1x7c
 720 844 l 1
 832 780 l 2
 937 719 1009 660 1048 601 c 0
 1087 542 1107 480 1107 414 c 0
 1102 237 980 57 720 15 c 1
 720 -155 l 1x8c
580 928 m 1
 580 1390 l 1
 445 1359 370 1285 370 1190 c 0
 370 1145 385 1102 416 1061 c 0
 447 1020 502 976 580 928 c 1
720 632 m 1
 720 172 l 1
 793 198 842 230 867 267 c 0
 893 305 906 347 906 394 c 0
 906 439 893 478 868 510 c 0
 843 543 793 583 720 632 c 1
EndSplineSet
EndChar

StartChar: percent
Encoding: 37 37 8
Width: 1229
Flags: MW
HStem: -47 21G<2 166 2 2> 0 124<893.5 953.5> 652 124<888.5 941.5> 776 124<287 340.5 287 362.5> 1427 125<287 340.5> 1578 20G<1063 1228 1228 1228>
VStem: 3 156<1127.5 1200 1127.5 1221.5> 469 155<1127.5 1200> 604 156<338.5 421.5 338.5 446> 1070 155<341 426>
LayerCount: 2
Fore
SplineSet
314 1552 m 0xdec0
 411 1552 486 1516 541 1444 c 0
 596 1372 624 1279 624 1164 c 0
 624 1049 596 955 541 883 c 0xdf40
 486 812 411 776 314 776 c 0
 217 776 141 812 86 883 c 0
 31 955 3 1049 3 1164 c 0
 3 1279 31 1372 86 1444 c 0
 141 1516 217 1552 314 1552 c 0xdec0
314 1427 m 0
 260 1427 221 1401 196 1349 c 0
 171 1298 159 1236 159 1164 c 0
 159 1091 171 1029 196 977 c 0
 221 926 260 900 314 900 c 0
 367 900 406 926 431 977 c 0
 456 1029 469 1091 469 1164 c 0
 469 1236 456 1298 431 1349 c 0xdf40
 406 1401 367 1427 314 1427 c 0
1228 1598 m 1xeec0
 166 -47 l 1
 2 -47 l 1
 1063 1598 l 1
 1228 1598 l 1xeec0
912 776 m 0
 1005 776 1080 741 1138 672 c 0
 1196 603 1225 513 1225 404 c 0
 1225 278 1194 179 1133 107 c 0
 1072 36 997 0 910 0 c 0
 825 0 752 34 693 102 c 0
 634 171 604 266 604 388 c 0
 604 504 632 598 688 669 c 0
 744 740 819 776 912 776 c 0
915 652 m 0
 862 652 823 627 798 576 c 0
 773 525 760 461 760 382 c 0
 760 295 775 230 806 187 c 0
 837 145 873 124 914 124 c 0
 1002 124 1070 219 1070 392 c 0
 1070 460 1057 520 1032 573 c 0
 1007 626 968 652 915 652 c 0
EndSplineSet
EndChar

StartChar: ampersand
Encoding: 38 38 9
Width: 1229
Flags: MW
HStem: -47 155<439.5 503 439.5 514.5> 0 21G<990 990 990 1228> 1458 140<443.5 498.5>
VStem: 2 181<354.5 461.5 354.5 470.5> 111 186<1250 1264> 640 169<1278.5 1321.5> 902 186<742 744 744 791 722 791>
LayerCount: 2
Fore
SplineSet
990 0 m 1x6e
 881 130 l 1
 815 61 750 14 685 -10 c 0
 621 -35 552 -47 477 -47 c 0
 334 -47 219 -7 132 74 c 0
 45 155 2 258 2 383 c 0xb6
 2 558 93 722 276 874 c 1
 167 1011 111 1130 111 1233 c 0
 111 1295 127 1355 160 1414 c 0
 225 1531 346 1598 485 1598 c 0
 577 1598 654 1573 716 1524 c 0
 778 1475 809 1404 809 1312 c 0
 809 1245 790 1177 752 1110 c 0
 715 1043 637 964 518 874 c 1
 872 438 l 1
 882 471 888 499 891 520 c 0
 894 541 897 580 899 637 c 0
 901 694 902 729 902 742 c 2
 902 791 l 1
 1088 791 l 1
 1088 744 l 2
 1088 700 1083 637 1074 554 c 0
 1065 472 1037 385 990 292 c 1
 1228 0 l 1
 990 0 l 1x6e
399 1022 m 2
 421 992 l 1
 488 1039 542 1091 581 1147 c 0
 620 1204 640 1255 640 1300 c 0
 640 1343 626 1380 598 1411 c 0
 571 1442 528 1458 469 1458 c 0
 418 1458 377 1439 345 1402 c 0
 313 1365 297 1319 297 1265 c 0
 297 1235 301 1204 309 1173 c 0xae
 317 1142 347 1092 399 1022 c 2
778 254 m 1
 373 752 l 1
 246 643 183 525 183 398 c 0
 183 311 212 241 270 188 c 0xb6
 328 135 398 108 481 108 c 0
 525 108 569 116 614 131 c 0
 659 146 713 187 778 254 c 1
EndSplineSet
EndChar

StartChar: quotesingle
Encoding: 39 39 10
Width: 1229
Flags: MW
HStem: 993 621<549 683 549 549>
VStem: 444 341<1614 1614>
LayerCount: 2
Fore
SplineSet
785 1614 m 1
 683 993 l 1
 549 993 l 1
 444 1614 l 1
 785 1614 l 1
EndSplineSet
EndChar

StartChar: parenleft
Encoding: 40 40 11
Width: 1229
Flags: MW
HStem: -372 2017<1072 1072>
VStem: 188 202<564.5 707.5 564.5 715.5>
LayerCount: 2
Fore
SplineSet
1072 -217 m 1
 1072 -372 l 1
 887 -361 732 -308 605 -215 c 0
 478 -122 377 3 301 161 c 0
 226 319 188 477 188 636 c 0
 188 795 226 953 301 1111 c 0
 453 1427 703 1621 1072 1645 c 1
 1072 1489 l 1
 933 1476 813 1429 712 1348 c 0
 612 1267 533 1164 476 1039 c 0
 419 914 390 779 390 636 c 0
 390 493 419 358 476 233 c 0
 533 108 612 5 712 -76 c 0
 813 -157 933 -204 1072 -217 c 1
EndSplineSet
EndChar

StartChar: parenright
Encoding: 41 41 12
Width: 1229
Flags: MW
HStem: -372 2017<157 157>
VStem: 840 201<564.5 707.5>
LayerCount: 2
Fore
SplineSet
157 1489 m 1
 157 1645 l 1
 342 1633 497 1580 624 1487 c 0
 751 1394 852 1269 927 1111 c 0
 1003 953 1041 795 1041 636 c 0
 1041 477 1003 319 927 161 c 0
 852 3 751 -122 624 -215 c 0
 497 -308 342 -361 157 -372 c 1
 157 -217 l 1
 296 -204 416 -157 516 -76 c 0
 617 5 696 108 753 233 c 0
 811 358 840 493 840 636 c 0
 840 779 811 914 753 1039 c 0
 696 1164 617 1267 516 1348 c 0
 416 1429 296 1476 157 1489 c 1
EndSplineSet
EndChar

StartChar: asterisk
Encoding: 42 42 13
Width: 1229
Flags: MW
HStem: 1108 20G<471 471 756 756> 1578 20G<519 707 707 707>
VStem: 164 900<978 978 978 1280>
LayerCount: 2
Fore
SplineSet
707 659 m 1
 519 659 l 1
 540 1006 l 1
 257 816 l 1
 164 978 l 1
 471 1128 l 1
 164 1280 l 1
 257 1439 l 1
 540 1250 l 1
 519 1598 l 1
 707 1598 l 1
 681 1250 l 1
 970 1439 l 1
 1064 1280 l 1
 756 1128 l 1
 1064 978 l 1
 970 816 l 1
 681 1006 l 1
 707 659 l 1
EndSplineSet
EndChar

StartChar: plus
Encoding: 43 43 14
Width: 1229
Flags: MW
HStem: 0 21G<536 692 536 536> 465 156<71 536 71 536 692 1157>
VStem: 536 156<0 465 0 465 621 1086>
LayerCount: 2
Fore
SplineSet
692 621 m 1
 1157 621 l 1
 1157 465 l 1
 692 465 l 1
 692 0 l 1
 536 0 l 1
 536 465 l 1
 71 465 l 1
 71 621 l 1
 536 621 l 1
 536 1086 l 1
 692 1086 l 1
 692 621 l 1
EndSplineSet
EndChar

StartChar: comma
Encoding: 44 44 15
Width: 1229
Flags: MW
HStem: -434 21G<424 424> -34 21G<585 616>
VStem: 616 188<-85.5 66>
LayerCount: 2
Fore
SplineSet
424 -434 m 1
 424 -310 l 1
 472 -297 508 -279 533 -255 c 0
 584 -208 616 -137 616 -34 c 1
 554 -34 508 -17 479 18 c 0
 450 53 435 91 435 131 c 0
 435 177 451 216 484 247 c 0
 517 279 555 295 598 295 c 0
 654 295 702 271 743 222 c 0
 784 174 804 108 804 24 c 0
 801 -190 657 -405 424 -434 c 1
EndSplineSet
EndChar

StartChar: hyphen
Encoding: 45 45 16
Width: 1229
Flags: MW
HStem: 551 155<227 1003 227 1003>
VStem: 227 776<551 706 551 706>
LayerCount: 2
Fore
SplineSet
1003 551 m 1
 227 551 l 1
 227 706 l 1
 1003 706 l 1
 1003 551 l 1
EndSplineSet
EndChar

StartChar: period
Encoding: 46 46 17
Width: 1229
Flags: MW
HStem: -47 21G<591.5 636.5>
VStem: 451 326<93.5 138.5>
LayerCount: 2
Fore
SplineSet
614 -47 m 0
 569 -47 531 -31 499 1 c 0
 467 33 451 71 451 116 c 0
 451 161 467 200 499 231 c 0
 532 263 570 279 614 279 c 0
 658 279 696 263 728 231 c 0
 761 200 777 161 777 116 c 0
 777 71 761 33 729 1 c 0
 697 -31 659 -47 614 -47 c 0
EndSplineSet
EndChar

StartChar: slash
Encoding: 47 47 18
Width: 1229
Flags: MW
HStem: -47 21G<33 216 33 33> 1578 20G<1020 1197 1197 1197>
VStem: 33 1164
LayerCount: 2
Fore
SplineSet
1197 1598 m 1
 216 -47 l 1
 33 -47 l 1
 1020 1598 l 1
 1197 1598 l 1
EndSplineSet
EndChar

StartChar: zero
Encoding: 48 48 19
Width: 1229
Flags: MW
HStem: -47 155<560 669.5 560 702.5> 1443 155<558.5 635.5>
VStem: 71 202<765.5 882 765.5 901.5> 956 201<705.5 845.5>
LayerCount: 2
Fore
SplineSet
614 1598 m 0
 791 1598 925 1524 1018 1375 c 0
 1111 1227 1157 1027 1157 776 c 0
 1157 524 1111 324 1018 175 c 0
 925 27 791 -47 614 -47 c 0
 438 -47 303 27 210 175 c 0
 117 324 71 524 71 776 c 0
 71 1027 117 1227 210 1375 c 0
 303 1524 438 1598 614 1598 c 0
311 444 m 1
 848 1285 l 1
 814 1347 777 1389 737 1410 c 0
 698 1432 657 1443 614 1443 c 0
 503 1443 418 1381 360 1257 c 0
 302 1134 273 977 273 787 c 0
 273 744 274 697 277 647 c 0
 280 597 291 529 311 444 c 1
915 1100 m 1
 382 254 l 1
 439 157 514 108 606 108 c 0
 733 108 823 179 876 320 c 0
 929 462 956 619 956 792 c 0
 956 899 942 1001 915 1100 c 1
EndSplineSet
EndChar

StartChar: one
Encoding: 49 49 20
Width: 1229
Flags: MW
HStem: 0 155<188 568 754 1127 188 568> 1532 20G<568 754 754 754>
VStem: 568 186<155 1353 1353 1353 155 1552>
LayerCount: 2
Fore
SplineSet
188 155 m 1
 568 155 l 1
 568 1353 l 1
 512 1308 458 1270 405 1239 c 0
 352 1208 280 1176 188 1143 c 1
 188 1311 l 1
 334 1373 461 1453 568 1552 c 1
 754 1552 l 1
 754 155 l 1
 1127 155 l 1
 1127 0 l 1
 188 0 l 1
 188 155 l 1
EndSplineSet
EndChar

StartChar: two
Encoding: 50 50 21
Width: 1229
Flags: MW
HStem: 0 171<342 1088 149 149> 1443 155<613.5 636.5>
VStem: 149 193<0 171 171 193> 863 201<1224 1267.5>
LayerCount: 2
Fore
SplineSet
1088 171 m 1
 1088 0 l 1
 149 0 l 1
 149 171 l 2
 149 215 158 262 176 312 c 0
 194 363 228 419 279 482 c 0
 330 545 383 605 440 663 c 2
 546 771 l 2
 567 793 614 844 686 924 c 0
 758 1004 805 1065 828 1108 c 0
 851 1151 863 1193 863 1234 c 0
 863 1301 836 1352 783 1388 c 0
 730 1425 670 1443 603 1443 c 0
 565 1443 522 1439 475 1430 c 0
 428 1421 387 1411 352 1399 c 0
 317 1388 259 1364 180 1328 c 1
 180 1493 l 1
 264 1533 348 1560 432 1575 c 0
 517 1590 586 1598 641 1598 c 0
 722 1598 796 1585 863 1558 c 0
 931 1532 981 1491 1014 1436 c 0
 1047 1381 1064 1322 1064 1259 c 0
 1064 1189 1043 1117 1000 1044 c 0
 958 971 878 876 761 761 c 2
 647 648 l 1
 551 554 l 2
 490 493 441 433 404 376 c 0
 367 319 346 250 342 171 c 1
 1088 171 l 1
EndSplineSet
EndChar

StartChar: three
Encoding: 51 51 22
Width: 1229
Flags: MW
HStem: -47 155<495.5 593.5 486 605.5> 776 155<308 411 308 451> 1443 155<476 580>
VStem: 820 202<1196.5 1245.5> 897 202<393 491.5>
LayerCount: 2
Fore
SplineSet
145 28 m 1xe8
 145 224 l 1
 298 147 430 108 542 108 c 0
 645 108 729 139 796 201 c 0
 863 264 897 344 897 442 c 0xe8
 897 541 860 621 786 683 c 0
 713 745 588 776 411 776 c 2
 308 776 l 1
 308 931 l 1
 451 931 l 2
 581 931 675 960 733 1018 c 0
 791 1077 820 1142 820 1213 c 0
 820 1278 796 1332 749 1376 c 0
 702 1421 629 1443 531 1443 c 0
 421 1443 303 1412 176 1350 c 1
 176 1527 l 1
 303 1574 419 1598 524 1598 c 0
 713 1598 843 1561 914 1486 c 0
 986 1412 1022 1327 1022 1232 c 0
 1022 1161 1003 1095 965 1033 c 0xf0
 927 971 857 916 755 867 c 1
 845 840 913 808 959 769 c 0
 1051 692 1099 586 1099 455 c 0
 1099 310 1045 190 937 95 c 0
 830 0 691 -47 520 -47 c 0
 471 -47 417 -43 358 -36 c 0
 300 -29 229 -7 145 28 c 1xe8
EndSplineSet
EndChar

StartChar: four
Encoding: 52 52 23
Width: 1229
Flags: MW
HStem: 0 21G<707 894 707 707> 434 156<246 707 48 48 894 1181> 1532 20G<707 894 894 894>
VStem: 707 187<0 434 590 1270 1270 1270>
LayerCount: 2
Fore
SplineSet
894 0 m 1
 707 0 l 1
 707 434 l 1
 48 434 l 1
 48 590 l 1
 707 1552 l 1
 894 1552 l 1
 894 590 l 1
 1181 590 l 1
 1181 434 l 1
 894 434 l 1
 894 0 l 1
246 590 m 1
 707 590 l 1
 707 1270 l 1
 246 590 l 1
EndSplineSet
EndChar

StartChar: five
Encoding: 53 53 24
Width: 1229
Flags: MW
HStem: -47 171<511.5 570.5 511.5 591> 807 186<188 406> 1373 179<374 1057 374 374>
VStem: 188 186<993 1373 993 1552 993 1552> 894 209<432.5 509.5>
LayerCount: 2
Fore
SplineSet
309 807 m 2
 188 807 l 1
 188 1552 l 1
 1057 1552 l 1
 1057 1373 l 1
 374 1373 l 1
 374 993 l 1
 406 993 l 2
 629 993 801 946 922 853 c 0
 1043 760 1103 634 1103 476 c 0
 1103 376 1079 286 1030 207 c 0
 981 128 913 65 824 20 c 0
 735 -25 641 -47 541 -47 c 0
 441 -47 313 -23 157 26 c 1
 157 229 l 1
 214 198 277 173 347 153 c 0
 417 134 482 124 541 124 c 0
 600 124 658 138 715 167 c 0
 772 196 816 237 847 292 c 0
 878 347 894 404 894 461 c 0
 894 558 851 639 765 706 c 0
 680 773 528 807 309 807 c 2
EndSplineSet
EndChar

StartChar: six
Encoding: 54 54 25
Width: 1229
Flags: MW
HStem: -47 155<619 682 619 720> 815 155<662.5 733.5> 1443 155<658.5 777> 1532 20G<1041 1041>
VStem: 102 190<728 768 728 888.5> 971 186<454.5 538.5>
LayerCount: 2
Fore
SplineSet
292 768 m 2xec
 292 728 l 1
 340 799 399 857 470 902 c 0
 541 947 620 970 705 970 c 0
 786 970 862 950 934 911 c 0
 1079 832 1157 688 1157 501 c 0
 1157 354 1110 225 1015 116 c 0
 921 7 797 -47 643 -47 c 0
 462 -47 326 29 236 180 c 0
 147 332 102 525 102 759 c 0
 102 1018 159 1222 273 1372 c 0
 387 1523 541 1598 736 1598 c 0xec
 841 1598 942 1583 1041 1552 c 1xdc
 1041 1364 l 1
 930 1417 826 1443 728 1443 c 0
 589 1443 482 1379 406 1252 c 0
 330 1125 292 963 292 768 c 2xec
657 108 m 0
 707 108 757 123 808 152 c 0
 859 182 898 228 927 289 c 0
 956 351 971 418 971 491 c 0
 971 586 946 663 897 724 c 0
 848 785 779 815 688 815 c 0
 594 815 517 780 456 709 c 0
 396 639 366 554 366 453 c 0
 366 352 395 269 454 204 c 0
 513 140 581 108 657 108 c 0
EndSplineSet
EndChar

StartChar: seven
Encoding: 55 55 26
Width: 1229
Flags: MW
HStem: 0 21G<319 521 319 319> 1365 187<164 969 164 1149>
VStem: 319 202<0 139 0 193.5>
LayerCount: 2
Fore
SplineSet
521 0 m 1
 319 0 l 1
 319 139 l 2
 319 248 331 339 356 413 c 0
 381 487 424 569 486 660 c 0
 548 751 598 821 635 870 c 2
 797 1084 l 1
 855 1159 l 2
 899 1218 937 1287 969 1365 c 1
 164 1365 l 1
 164 1552 l 1
 1149 1552 l 1
 1149 1428 l 2
 1149 1379 1139 1333 1119 1291 c 0
 1100 1249 1040 1159 941 1022 c 0
 917 989 893 957 870 924 c 2
 766 778 l 2
 699 684 650 609 618 553 c 0
 586 497 562 439 545 378 c 0
 529 317 521 238 521 139 c 2
 521 0 l 1
EndSplineSet
EndChar

StartChar: eight
Encoding: 56 56 27
Width: 1229
Flags: MW
HStem: -47 156<588.5 664.5 588.5 703.5> 1443 155<588.5 660.5>
VStem: 133 202<323 417 323 440> 218 179<1213.5 1261 1213.5 1275.5> 862 187<1235 1270> 909 201<315.5 383.5>
LayerCount: 2
Fore
SplineSet
459 837 m 1xe4
 425 862 l 2
 378 895 331 944 286 1009 c 0
 241 1074 218 1146 218 1224 c 0
 218 1327 259 1415 340 1488 c 0
 421 1561 525 1598 650 1598 c 0
 727 1598 796 1584 857 1556 c 0
 918 1529 966 1488 999 1434 c 0
 1032 1380 1049 1321 1049 1257 c 0
 1049 1213 1041 1170 1026 1129 c 0
 1011 1088 988 1048 957 1007 c 0xd8
 927 967 867 910 777 837 c 1
 861 770 l 2
 959 690 1025 621 1059 563 c 0
 1093 505 1110 440 1110 368 c 0
 1110 256 1069 159 988 76 c 0
 907 -6 785 -47 622 -47 c 0
 459 -47 336 -9 255 68 c 0
 174 145 133 241 133 355 c 0
 133 525 242 686 459 837 c 1xe4
603 966 m 2
 650 932 l 1
 744 1003 803 1063 826 1111 c 0
 850 1159 862 1204 862 1245 c 0
 862 1295 840 1340 796 1381 c 0
 752 1422 695 1443 626 1443 c 0
 551 1443 494 1421 455 1376 c 0
 416 1331 397 1285 397 1237 c 0
 397 1190 413 1146 446 1105 c 0
 479 1064 531 1017 603 966 c 2
659 691 m 2
 599 738 l 1
 423 603 335 476 335 358 c 0
 335 288 364 229 422 181 c 0
 480 133 549 109 628 109 c 0
 701 109 766 132 823 178 c 0
 880 224 909 281 909 350 c 0xe4
 909 417 874 486 804 555 c 0
 735 624 686 670 659 691 c 2
EndSplineSet
EndChar

StartChar: nine
Encoding: 57 57 28
Width: 1229
Flags: MW
HStem: -47 156<451 569.5 451 589.5> 0 21G<187 187> 582 155<494.5 565.5> 1443 155<546 609>
VStem: 71 186<1013 1096.5 1013 1124.5> 936 190<784 824 824 824>
LayerCount: 2
Fore
SplineSet
936 784 m 2xbc
 936 824 l 1
 888 753 828 694 757 649 c 0
 686 604 608 582 523 582 c 0
 442 582 366 601 293 640 c 0
 149 719 71 864 71 1051 c 0
 71 1198 118 1325 212 1434 c 0
 307 1543 431 1598 585 1598 c 0
 766 1598 902 1522 991 1370 c 0
 1081 1219 1126 1026 1126 792 c 0
 1126 533 1069 329 955 178 c 0
 841 28 687 -47 492 -47 c 0xbc
 387 -47 286 -31 187 0 c 1x7c
 187 187 l 1
 298 135 402 109 500 109 c 0
 639 109 746 173 822 300 c 0
 898 427 936 589 936 784 c 2xbc
571 1443 m 0
 521 1443 471 1428 420 1398 c 0
 369 1369 329 1323 300 1262 c 0
 271 1201 257 1133 257 1060 c 0
 257 966 281 889 330 828 c 0
 379 767 449 737 540 737 c 0
 634 737 711 772 771 842 c 0
 832 913 862 998 862 1098 c 0
 862 1199 832 1282 773 1346 c 0
 714 1411 647 1443 571 1443 c 0
EndSplineSet
EndChar

StartChar: colon
Encoding: 58 58 29
Width: 1229
Flags: MW
HStem: -47 21G<591.5 636.5> 1128 20G<592 636>
VStem: 451 326<93.5 138.5 962.5 1007.5>
LayerCount: 2
Fore
SplineSet
614 -47 m 0
 569 -47 531 -31 499 1 c 0
 467 33 451 71 451 116 c 0
 451 161 467 200 499 231 c 0
 532 263 570 279 614 279 c 0
 658 279 696 263 728 231 c 0
 761 200 777 161 777 116 c 0
 777 71 761 33 729 1 c 0
 697 -31 659 -47 614 -47 c 0
614 822 m 0
 569 822 531 838 499 870 c 0
 467 902 451 940 451 985 c 0
 451 1030 467 1069 499 1100 c 0
 532 1132 570 1148 614 1148 c 0
 658 1148 696 1132 728 1100 c 0
 761 1069 777 1030 777 985 c 0
 777 940 761 902 729 870 c 0
 697 838 659 822 614 822 c 0
EndSplineSet
EndChar

StartChar: semicolon
Encoding: 59 59 30
Width: 1229
Flags: MW
HStem: -434 21G<424 424> -34 21G<585 616> 1128 20G<576 620>
VStem: 616 188<-85.5 66>
LayerCount: 2
Fore
SplineSet
424 -434 m 1
 424 -310 l 1
 472 -297 508 -279 533 -255 c 0
 584 -208 616 -137 616 -34 c 1
 554 -34 508 -17 479 18 c 0
 450 53 435 91 435 131 c 0
 435 177 451 216 484 247 c 0
 517 279 555 295 598 295 c 0
 654 295 702 271 743 222 c 0
 784 174 804 108 804 24 c 0
 801 -190 657 -405 424 -434 c 1
598 822 m 0
 553 822 515 838 483 870 c 0
 451 902 435 940 435 985 c 0
 435 1030 451 1069 483 1100 c 0
 516 1132 554 1148 598 1148 c 0
 642 1148 680 1132 712 1100 c 0
 745 1069 761 1030 761 985 c 0
 761 940 745 902 713 870 c 0
 681 838 643 822 598 822 c 0
EndSplineSet
EndChar

StartChar: less
Encoding: 60 60 31
Width: 1229
Flags: MW
HStem: 0 21G<1157 1157>
VStem: 71 1086<0 543>
LayerCount: 2
Fore
SplineSet
1157 0 m 1
 71 543 l 1
 1157 1086 l 1
 1157 913 l 1
 415 544 l 1
 1157 171 l 1
 1157 0 l 1
EndSplineSet
EndChar

StartChar: equal
Encoding: 61 61 32
Width: 1229
Flags: MW
HStem: 287 155<71 1157 71 1157> 636 155<71 1157 71 1157>
VStem: 71 1086<287 442 287 442 636 791 287 791>
LayerCount: 2
Fore
SplineSet
71 791 m 1
 1157 791 l 1
 1157 636 l 1
 71 636 l 1
 71 791 l 1
71 442 m 1
 1157 442 l 1
 1157 287 l 1
 71 287 l 1
 71 442 l 1
EndSplineSet
EndChar

StartChar: greater
Encoding: 62 62 33
Width: 1229
Flags: MW
HStem: 0 21G<71 71>
VStem: 71 1086<0 543 173 543 543 1086 543 1086>
LayerCount: 2
Fore
SplineSet
71 1086 m 1
 1157 543 l 1
 71 0 l 1
 71 173 l 1
 814 542 l 1
 71 915 l 1
 71 1086 l 1
EndSplineSet
EndChar

StartChar: question
Encoding: 63 63 34
Width: 1229
Flags: MW
HStem: -47 21G<483.5 522.5> 1443 155<567 641>
VStem: 401 186<442 477 477 488 442 504.5> 851 202<1239.5 1288.5>
LayerCount: 2
Fore
SplineSet
587 442 m 1
 401 442 l 1
 401 477 l 2
 401 532 406 578 415 615 c 0
 424 652 442 691 468 730 c 0
 495 770 534 818 587 874 c 2
 649 940 l 2
 661 953 678 973 701 1002 c 2
 767 1085 l 2
 823 1154 851 1214 851 1265 c 0
 851 1312 831 1353 791 1389 c 0
 751 1425 686 1443 596 1443 c 0
 538 1443 479 1435 418 1419 c 0
 358 1404 288 1373 207 1328 c 1
 207 1508 l 1
 330 1568 459 1598 594 1598 c 0
 743 1598 857 1567 935 1506 c 0
 1014 1445 1053 1366 1053 1269 c 0
 1053 1173 1002 1073 901 970 c 2
 835 902 l 1
 757 821 l 1
 686 748 l 2
 660 719 637 685 617 647 c 0
 597 609 587 556 587 488 c 2
 587 442 l 1
503 -47 m 0
 464 -47 431 -33 402 -4 c 0
 374 24 360 58 360 97 c 0
 360 136 374 170 402 198 c 0
 431 226 464 240 503 240 c 0
 542 240 576 226 604 198 c 0
 633 171 647 137 647 97 c 0
 647 57 633 23 604 -5 c 0
 575 -33 542 -47 503 -47 c 0
EndSplineSet
EndChar

StartChar: at
Encoding: 64 64 35
Width: 1229
Flags: MW
HStem: -47 117<581.5 657> 434 140<929 945 929 973.5> 434 156<456 502> 1078 132<636.5 867 676 712> 1482 116<564.5 654.5>
VStem: 2 124<711.5 846.5 711.5 902.5> 231 163<711.5 782.5 699.5 812.5> 712 155<809 1078 1078 1078> 1104 124<866 921.5>
LayerCount: 2
Fore
SplineSet
921 200 m 1xdf80
 921 43 l 1
 865 6 815 -18 772 -29 c 0
 729 -41 682 -47 632 -47 c 0
 493 -47 380 -13 291 54 c 0
 115 190 2 432 2 781 c 0
 2 1024 58 1220 169 1371 c 0
 280 1522 431 1598 620 1598 c 0
 807 1598 955 1531 1064 1398 c 0
 1173 1265 1228 1089 1228 872 c 0
 1228 776 1214 697 1186 635 c 0
 1130 512 1039 434 908 434 c 0
 857 434 816 445 784 467 c 0xdf80
 752 490 728 541 712 622 c 1
 693 579 665 536 626 495 c 0
 587 454 535 434 469 434 c 0
 400 434 343 465 298 527 c 0xbf80
 253 590 231 666 231 757 c 0
 231 868 263 972 327 1067 c 0
 392 1162 508 1210 676 1210 c 2
 867 1210 l 1
 867 772 l 2
 867 714 869 673 873 648 c 0
 882 600 913 574 945 574 c 0
 1026 569 1110 705 1104 866 c 1
 1104 977 1084 1085 1043 1190 c 0
 1002 1295 942 1370 862 1415 c 0
 782 1460 698 1482 611 1482 c 0
 518 1482 437 1454 366 1398 c 0
 296 1343 238 1259 193 1148 c 0
 148 1037 126 914 126 779 c 0
 126 644 148 518 193 403 c 0
 238 288 298 203 374 150 c 0
 450 97 535 70 628 70 c 0
 734 70 832 113 921 200 c 1xdf80
712 809 m 1
 712 1078 l 1
 676 1078 l 2
 597 1078 541 1066 506 1041 c 0
 471 1016 444 978 424 925 c 0
 404 872 394 814 394 751 c 0
 394 648 428 590 484 590 c 0
 523 590 563 613 604 658 c 0xbf80
 645 704 681 754 712 809 c 1
EndSplineSet
EndChar

StartChar: A
Encoding: 65 65 36
Width: 1229
Flags: MW
HStem: 0 21G<33 227 33 33 984 984 984 1197> 341 155<332 833 380 833 380 878> 1532 20G<511 716 716 716>
VStem: 33 1164<0 0>
LayerCount: 2
Fore
SplineSet
332 341 m 1
 227 0 l 1
 33 0 l 1
 511 1552 l 1
 716 1552 l 1
 1197 0 l 1
 984 0 l 1
 878 341 l 1
 332 341 l 1
563 1085 m 1
 380 496 l 1
 833 496 l 1
 646 1085 l 1
 602 1241 l 1
 563 1085 l 1
EndSplineSet
EndChar

StartChar: B
Encoding: 66 66 37
Width: 1229
Flags: MW
HStem: 0 155<374 549> 698 155<374 586 374 430> 1396 156<374 374 374 475 475 515>
VStem: 172 202<155 698 853 1396> 831 194<1175.5 1214.5> 878 202<376.5 437 366.5 438>
LayerCount: 2
Fore
SplineSet
549 0 m 2xf4
 172 0 l 1
 172 1552 l 1
 475 1552 l 2
 657 1552 779 1538 840 1510 c 0
 964 1455 1025 1342 1025 1203 c 0
 1025 1148 1016 1096 998 1047 c 0xf8
 962 950 899 871 764 799 c 1
 887 750 971 689 1014 617 c 0
 1058 545 1080 473 1080 401 c 0
 1080 332 1061 266 1024 201 c 0
 987 136 936 87 869 52 c 0
 802 17 696 0 549 0 c 2xf4
374 1396 m 1
 374 853 l 1
 586 853 l 1
 655 882 705 912 736 943 c 0
 800 1007 831 1085 831 1178 c 0
 831 1251 809 1306 766 1342 c 0
 723 1378 640 1396 515 1396 c 2
 374 1396 l 1
374 698 m 1
 374 155 l 1
 565 155 l 2
 672 155 750 180 801 230 c 0
 852 281 878 341 878 412 c 0
 878 464 864 512 836 555 c 0xf4
 808 599 765 634 706 659 c 0
 647 685 555 698 430 698 c 2
 374 698 l 1
EndSplineSet
EndChar

StartChar: C
Encoding: 67 67 38
Width: 1229
Flags: MW
HStem: -47 155<715.5 820.5 688.5 822> 1443 156<728 821>
VStem: 118 209<713 838 713 856.5>
LayerCount: 2
Fore
SplineSet
1088 201 m 1
 1088 18 l 1
 972 -25 868 -47 776 -47 c 0
 655 -47 543 -15 441 50 c 0
 339 115 260 212 203 340 c 0
 146 469 118 614 118 776 c 0
 118 937 146 1081 202 1209 c 0
 258 1337 337 1434 439 1500 c 0
 541 1566 653 1599 776 1599 c 0
 868 1599 972 1577 1088 1534 c 1
 1088 1350 l 1
 981 1412 874 1443 768 1443 c 0
 688 1443 615 1416 548 1361 c 0
 482 1306 429 1226 388 1120 c 0
 347 1015 327 900 327 776 c 0
 327 650 348 534 390 427 c 0
 474 214 609 108 768 108 c 0
 873 108 980 139 1088 201 c 1
EndSplineSet
EndChar

StartChar: D
Encoding: 68 68 39
Width: 1229
Flags: MW
HStem: 0 171<357 492 492 523> 1396 156<357 357 357 508>
VStem: 155 202<171 1396 171 1552 171 1552> 947 201<728 853.5 694.5 878.5>
LayerCount: 2
Fore
SplineSet
523 0 m 2
 155 0 l 1
 155 1552 l 1
 523 1552 l 2
 692 1552 818 1522 900 1463 c 0
 983 1404 1045 1315 1086 1196 c 0
 1127 1077 1148 935 1148 772 c 0
 1148 617 1126 481 1082 364 c 0
 1039 247 977 157 897 94 c 0
 817 31 692 0 523 0 c 2
357 1396 m 1
 357 171 l 1
 492 171 l 2
 629 171 726 195 784 244 c 0
 843 293 884 360 909 446 c 0
 934 533 947 652 947 804 c 0
 947 953 932 1067 903 1147 c 0
 874 1227 832 1288 777 1331 c 0
 722 1374 633 1396 508 1396 c 2
 357 1396 l 1
EndSplineSet
EndChar

StartChar: E
Encoding: 69 69 40
Width: 1229
Flags: MW
HStem: 0 171<405 1041 405 1041> 714 155<405 963 405 963> 1396 156<405 1025 405 405>
VStem: 203 202<171 171 171 714 869 1396>
LayerCount: 2
Fore
SplineSet
405 171 m 1
 1041 171 l 1
 1041 0 l 1
 203 0 l 1
 203 1552 l 1
 1025 1552 l 1
 1025 1396 l 1
 405 1396 l 1
 405 869 l 1
 963 869 l 1
 963 714 l 1
 405 714 l 1
 405 171 l 1
EndSplineSet
EndChar

StartChar: F
Encoding: 70 70 41
Width: 1229
Flags: MW
HStem: 0 21G<227 429 227 227> 714 155<429 1018 429 1018> 1396 156<429 1080 429 429>
VStem: 227 202<0 714 869 1396>
LayerCount: 2
Fore
SplineSet
429 0 m 1
 227 0 l 1
 227 1552 l 1
 1080 1552 l 1
 1080 1396 l 1
 429 1396 l 1
 429 869 l 1
 1018 869 l 1
 1018 714 l 1
 429 714 l 1
 429 0 l 1
EndSplineSet
EndChar

StartChar: G
Encoding: 71 71 42
Width: 1229
Flags: MW
HStem: -47 155<722.5 815.5 722.5 832.5> 613 155<731 886 731 1088> 1443 156<727 820>
VStem: 118 209<694.5 836.5 690 856.5> 886 202<113 613 613 613>
LayerCount: 2
Fore
SplineSet
1088 768 m 1
 1088 1 l 1
 979 -31 878 -47 787 -47 c 0
 658 -47 542 -15 441 49 c 0
 340 113 261 209 204 338 c 0
 147 467 118 613 118 776 c 0
 118 937 146 1081 202 1209 c 0
 258 1337 337 1434 439 1500 c 0
 541 1566 653 1599 775 1599 c 0
 867 1599 971 1577 1087 1534 c 1
 1087 1350 l 1
 980 1412 873 1443 767 1443 c 0
 687 1443 614 1416 547 1361 c 0
 481 1306 428 1226 387 1120 c 0
 347 1015 327 899 327 774 c 0
 327 606 365 453 442 315 c 0
 519 177 640 108 805 108 c 0
 826 108 853 110 886 113 c 1
 886 613 l 1
 731 613 l 1
 731 768 l 1
 1088 768 l 1
EndSplineSet
EndChar

StartChar: H
Encoding: 72 72 43
Width: 1229
Flags: MW
HStem: 0 21G<126 328 126 126 902 902 902 1103> 729 155<328 902 328 902> 1532 20G<126 328 328 328 902 1103 1103 1103>
VStem: 126 202<0 729 884 1552> 902 201<0 729 729 729 884 1552 0 1552>
LayerCount: 2
Fore
SplineSet
328 0 m 1
 126 0 l 1
 126 1552 l 1
 328 1552 l 1
 328 884 l 1
 902 884 l 1
 902 1552 l 1
 1103 1552 l 1
 1103 0 l 1
 902 0 l 1
 902 729 l 1
 328 729 l 1
 328 0 l 1
EndSplineSet
EndChar

StartChar: I
Encoding: 73 73 44
Width: 1229
Flags: MW
HStem: 0 155<172 513 715 1056 172 513> 1396 156<172 513 172 1056 715 715 715 1056>
VStem: 513 202<155 1396 155 1396>
LayerCount: 2
Fore
SplineSet
1056 0 m 1
 172 0 l 1
 172 155 l 1
 513 155 l 1
 513 1396 l 1
 172 1396 l 1
 172 1552 l 1
 1056 1552 l 1
 1056 1396 l 1
 715 1396 l 1
 715 155 l 1
 1056 155 l 1
 1056 0 l 1
EndSplineSet
EndChar

StartChar: J
Encoding: 74 74 45
Width: 1229
Flags: MW
HStem: -47 156<426 500.5 426 586> 1396 156<405 754 405 956>
VStem: 754 202<541 1396 1396 1396>
LayerCount: 2
Fore
SplineSet
110 34 m 1
 110 224 l 1
 255 147 377 109 475 109 c 0
 526 109 573 119 615 139 c 0
 658 159 691 192 716 239 c 0
 741 286 754 387 754 541 c 2
 754 1396 l 1
 405 1396 l 1
 405 1552 l 1
 956 1552 l 1
 956 536 l 2
 956 371 937 252 899 179 c 0
 824 34 692 -47 480 -47 c 0
 361 -47 238 -20 110 34 c 1
EndSplineSet
EndChar

StartChar: K
Encoding: 75 75 46
Width: 1229
Flags: MW
HStem: 0 21G<157 359 157 157 975 975 975 1228> 1532 20G<157 359 359 359 936 1150 1150 1150>
VStem: 157 202<0 791 791 1552>
LayerCount: 2
Fore
SplineSet
359 0 m 1
 157 0 l 1
 157 1552 l 1
 359 1552 l 1
 359 791 l 1
 936 1552 l 1
 1150 1552 l 1
 593 815 l 1
 1228 0 l 1
 975 0 l 1
 359 791 l 1
 359 0 l 1
EndSplineSet
EndChar

StartChar: L
Encoding: 76 76 47
Width: 1229
Flags: MW
HStem: 0 171<421 1057 421 1057> 1532 20G<219 421 421 421>
VStem: 219 202<171 171 171 1552>
LayerCount: 2
Fore
SplineSet
421 171 m 1
 1057 171 l 1
 1057 0 l 1
 219 0 l 1
 219 1552 l 1
 421 1552 l 1
 421 171 l 1
EndSplineSet
EndChar

StartChar: M
Encoding: 77 77 48
Width: 1229
Flags: MW
HStem: 0 21G<56 219 56 56 987 987 987 1173> 1105 20G<214 219 214 214 987 992 987 987> 1532 20G<56 259 259 259 975 1173 1173 1173>
VStem: 56 163<0 989 0 1125 0 1552> 987 186<0 989 989 989 1125 1125>
LayerCount: 2
Fore
SplineSet
219 989 m 1
 219 0 l 1
 56 0 l 1
 56 1552 l 1
 259 1552 l 1
 617 530 l 1
 975 1552 l 1
 1173 1552 l 1
 1173 0 l 1
 987 0 l 1
 987 989 l 1
 992 1125 l 1
 987 1125 l 1
 943 989 l 1
 703 310 l 1
 501 310 l 1
 258 989 l 1
 219 1125 l 1
 214 1125 l 1
 219 989 l 1
EndSplineSet
EndChar

StartChar: N
Encoding: 78 78 49
Width: 1229
Flags: MW
HStem: 0 21G<126 312 126 126 917 917 917 1103> 1532 20G<126 308 308 308 917 1103 1103 1103>
VStem: 126 186<0 1018 0 1552> 917 186<0 1552 365 365 519 1552 0 1552>
LayerCount: 2
Fore
SplineSet
312 1018 m 1
 312 0 l 1
 126 0 l 1
 126 1552 l 1
 308 1552 l 1
 857 519 l 1
 917 365 l 1
 922 365 l 1
 917 519 l 1
 917 1552 l 1
 1103 1552 l 1
 1103 0 l 1
 917 0 l 1
 383 1016 l 1
 308 1179 l 1
 312 1018 l 1
EndSplineSet
EndChar

StartChar: O
Encoding: 79 79 50
Width: 1229
Flags: MW
HStem: -47 156<565.5 662.5 565.5 702.5> 1443 155<565.5 662.5>
VStem: 71 202<664 888 664 901.5> 955 202<664 888>
LayerCount: 2
Fore
SplineSet
614 -47 m 0
 438 -47 303 27 210 175 c 0
 117 324 71 524 71 776 c 0
 71 1027 117 1227 210 1375 c 0
 303 1524 438 1598 614 1598 c 0
 791 1598 925 1524 1018 1375 c 0
 1111 1227 1157 1027 1157 776 c 0
 1157 524 1111 324 1018 175 c 0
 925 27 791 -47 614 -47 c 0
614 109 m 0
 711 109 792 164 857 274 c 0
 922 385 955 552 955 776 c 0
 955 1000 922 1167 857 1277 c 0
 792 1388 711 1443 614 1443 c 0
 517 1443 435 1388 370 1277 c 0
 305 1167 273 1000 273 776 c 0
 273 552 305 385 370 274 c 0
 435 164 517 109 614 109 c 0
EndSplineSet
EndChar

StartChar: P
Encoding: 80 80 51
Width: 1229
Flags: MW
HStem: 0 21G<176 378 176 176> 566 155<378 460 378 465> 1396 156<378 378 378 499>
VStem: 176 202<0 566 0 721 721 1396> 932 202<1062.5 1150.5>
LayerCount: 2
Fore
SplineSet
460 566 m 2
 378 566 l 1
 378 0 l 1
 176 0 l 1
 176 1552 l 1
 562 1552 l 2
 721 1552 836 1534 909 1498 c 0
 982 1463 1037 1411 1076 1342 c 0
 1115 1273 1134 1197 1134 1112 c 0
 1134 1013 1108 920 1056 834 c 0
 1004 748 931 682 838 635 c 0
 745 589 619 566 460 566 c 2
378 1396 m 1
 378 721 l 1
 465 721 l 2
 590 721 682 737 743 769 c 0
 864 834 932 965 932 1106 c 0
 932 1195 903 1266 844 1318 c 0
 786 1370 671 1396 499 1396 c 2
 378 1396 l 1
EndSplineSet
EndChar

StartChar: Q
Encoding: 81 81 52
Width: 1229
Flags: MW
HStem: -434 155<1115.5 1227 1209 1227 1209 1227> -29 21G 1443 155<565.5 662.5>
VStem: 71 202<723 888 664 912.5> 955 202<715 888>
LayerCount: 2
Fore
SplineSet
746 -29 m 1
 793 -106 834 -160 871 -190 c 0
 944 -250 1066 -279 1209 -279 c 2
 1227 -279 l 1
 1227 -434 l 1
 1180 -434 l 2
 1051 -434 958 -421 899 -394 c 0
 782 -341 676 -236 591 -45 c 1
 469 -32 372 7 301 71 c 0
 230 135 174 234 133 368 c 0
 92 502 71 646 71 800 c 0
 71 1025 116 1215 206 1368 c 0
 296 1521 432 1598 614 1598 c 0
 790 1598 924 1524 1017 1376 c 0
 1110 1228 1157 1028 1157 775 c 0
 1157 655 1145 540 1120 430 c 0
 1096 321 1054 224 994 141 c 0
 935 58 852 2 746 -29 c 1
614 1443 m 0
 517 1443 435 1388 370 1277 c 0
 305 1167 273 1000 273 776 c 0
 273 552 305 385 370 274 c 0
 435 164 517 109 614 109 c 0
 711 109 792 164 857 274 c 0
 922 385 955 552 955 776 c 0
 955 1000 922 1167 857 1277 c 0
 792 1388 711 1443 614 1443 c 0
EndSplineSet
EndChar

StartChar: R
Encoding: 82 82 53
Width: 1229
Flags: MW
HStem: 0 21G<149 351 149 149 964 964 964 1204> 659 156<351 553 351 634> 1396 156<351 351 351 502>
VStem: 149 202<0 659 0 815 815 1396> 870 194<1174 1194.5>
LayerCount: 2
Fore
SplineSet
553 659 m 1
 351 659 l 1
 351 0 l 1
 149 0 l 1
 149 1552 l 1
 564 1552 l 2
 699 1552 799 1538 863 1510 c 0
 927 1483 976 1441 1011 1385 c 0
 1046 1329 1064 1269 1064 1204 c 0
 1064 1144 1052 1084 1029 1023 c 0
 1006 962 973 908 932 860 c 0
 891 813 832 768 755 725 c 1
 1204 0 l 1
 964 0 l 1
 553 659 l 1
351 1396 m 1
 351 815 l 1
 634 815 l 1
 697 850 744 885 775 921 c 0
 838 993 870 1077 870 1158 c 0
 870 1231 843 1288 790 1331 c 0
 737 1374 641 1396 502 1396 c 2
 351 1396 l 1
EndSplineSet
EndChar

StartChar: S
Encoding: 83 83 54
Width: 1229
Flags: MW
HStem: -47 156<527.5 620.5 527.5 648.5> 1443 155<619 716>
VStem: 173 201<1179.5 1242.5> 902 201<331 386>
LayerCount: 2
Fore
SplineSet
157 33 m 1
 157 223 l 1
 317 147 462 109 593 109 c 0
 648 109 700 119 750 140 c 0
 850 183 902 267 902 359 c 0
 902 413 884 463 849 510 c 0
 814 557 747 609 650 666 c 2
 548 725 l 1
 445 784 l 2
 264 891 173 1025 173 1184 c 0
 173 1301 213 1399 294 1478 c 0
 375 1558 502 1598 674 1598 c 0
 785 1598 892 1582 995 1550 c 1
 995 1377 l 1
 881 1421 770 1443 662 1443 c 0
 576 1443 506 1420 453 1375 c 0
 400 1330 374 1275 374 1211 c 0
 374 1148 394 1095 435 1053 c 0
 476 1011 528 972 591 937 c 2
 669 890 l 1
 766 831 l 1
 848 783 l 2
 1018 679 1103 548 1103 391 c 0
 1103 271 1059 168 972 82 c 0
 885 -4 745 -47 552 -47 c 0
 491 -47 432 -42 376 -31 c 0
 321 -21 248 0 157 33 c 1
EndSplineSet
EndChar

StartChar: T
Encoding: 84 84 55
Width: 1229
Flags: MW
HStem: 0 21G<513 715 513 513> 1381 171<48 513 48 1181 715 715 715 1181>
VStem: 513 202<0 1381>
LayerCount: 2
Fore
SplineSet
715 0 m 1
 513 0 l 1
 513 1381 l 1
 48 1381 l 1
 48 1552 l 1
 1181 1552 l 1
 1181 1381 l 1
 715 1381 l 1
 715 0 l 1
EndSplineSet
EndChar

StartChar: U
Encoding: 85 85 56
Width: 1229
Flags: MW
HStem: -47 155<562.5 649 562.5 713.5> 1532 20G<126 328 328 328 917 1103 1103 1103>
VStem: 126 202<559 1552> 917 186<612 1552>
LayerCount: 2
Fore
SplineSet
126 559 m 2
 126 1552 l 1
 328 1552 l 1
 328 533 l 2
 328 399 339 307 361 258 c 0
 406 161 506 108 619 108 c 0
 679 108 732 122 779 149 c 0
 826 177 861 220 883 279 c 0
 906 338 917 449 917 612 c 2
 917 1552 l 1
 1103 1552 l 1
 1103 539 l 2
 1103 394 1081 281 1038 199 c 0
 953 36 819 -47 608 -47 c 0
 511 -47 425 -29 351 7 c 0
 277 43 221 97 183 169 c 0
 145 241 126 371 126 559 c 2
EndSplineSet
EndChar

StartChar: V
Encoding: 86 86 57
Width: 1229
Flags: MW
HStem: 0 21G<514 719 514 514> 1532 20G<33 246 246 246 1003 1197 1197 1197>
VStem: 33 1164<1552 1552>
LayerCount: 2
Fore
SplineSet
666 467 m 1
 1003 1552 l 1
 1197 1552 l 1
 719 0 l 1
 514 0 l 1
 33 1552 l 1
 246 1552 l 1
 583 468 l 1
 627 310 l 1
 666 467 l 1
EndSplineSet
EndChar

StartChar: W
Encoding: 87 87 58
Width: 1229
Flags: MW
HStem: 0 21G<208 397 208 208 822 822 822 1013> 1532 20G<28 212 212 212 520 704 704 704 1043 1201 1201 1201>
VStem: 28 1173<1552 1552>
LayerCount: 2
Fore
SplineSet
397 0 m 1
 208 0 l 1
 28 1552 l 1
 212 1552 l 1
 318 607 l 1
 332 450 l 1
 337 450 l 1
 357 607 l 1
 520 1552 l 1
 704 1552 l 1
 890 569 l 1
 909 419 l 1
 914 419 l 1
 926 570 l 1
 1043 1552 l 1
 1201 1552 l 1
 1013 0 l 1
 822 0 l 1
 622 1052 l 1
 601 1210 l 1
 596 1210 l 1
 577 1052 l 1
 397 0 l 1
EndSplineSet
EndChar

StartChar: X
Encoding: 88 88 59
Width: 1229
Flags: MW
HStem: 0 21G<48 258 48 48 948 948 948 1181> 1532 20G<92 321 321 321 922 1133 1133 1133>
VStem: 48 1133<0 0>
LayerCount: 2
Fore
SplineSet
607 619 m 1
 258 0 l 1
 48 0 l 1
 502 811 l 1
 92 1552 l 1
 321 1552 l 1
 618 1017 l 1
 922 1552 l 1
 1133 1552 l 1
 723 826 l 1
 1181 0 l 1
 948 0 l 1
 607 619 l 1
EndSplineSet
EndChar

StartChar: Y
Encoding: 89 89 60
Width: 1229
Flags: MW
HStem: 0 21G<514 716 514 514> 1532 20G<52 281 281 281 970 1177 1177 1177>
VStem: 514 202<0 718>
LayerCount: 2
Fore
SplineSet
716 0 m 1
 514 0 l 1
 514 718 l 1
 52 1552 l 1
 281 1552 l 1
 626 936 l 1
 970 1552 l 1
 1177 1552 l 1
 716 718 l 1
 716 0 l 1
EndSplineSet
EndChar

StartChar: Z
Encoding: 90 90 61
Width: 1229
Flags: MW
HStem: 0 171<356 1107 122 122> 1396 156<145 859 145 1092 145 1092>
VStem: 122 985<0 171 0 171>
LayerCount: 2
Fore
SplineSet
1107 0 m 1
 122 0 l 1
 122 171 l 1
 859 1396 l 1
 145 1396 l 1
 145 1552 l 1
 1092 1552 l 1
 1092 1396 l 1
 356 171 l 1
 1107 171 l 1
 1107 0 l 1
EndSplineSet
EndChar

StartChar: bracketleft
Encoding: 91 91 62
Width: 1229
Flags: MW
HStem: -372 155<541 1162 541 1162> 1489 156<541 1162 541 541>
VStem: 355 186<-217 1489 -217 1645 -217 1645>
LayerCount: 2
Fore
SplineSet
1162 -372 m 1
 355 -372 l 1
 355 1645 l 1
 1162 1645 l 1
 1162 1489 l 1
 541 1489 l 1
 541 -217 l 1
 1162 -217 l 1
 1162 -372 l 1
EndSplineSet
EndChar

StartChar: backslash
Encoding: 92 92 63
Width: 1229
Flags: MW
HStem: -47 21G<1014 1197 1014 1014> 1578 20G<33 210 210 210>
VStem: 33 1164
LayerCount: 2
Fore
SplineSet
1197 -47 m 1
 1014 -47 l 1
 33 1598 l 1
 210 1598 l 1
 1197 -47 l 1
EndSplineSet
EndChar

StartChar: bracketright
Encoding: 93 93 64
Width: 1229
Flags: MW
HStem: -372 155<67 688 67 874 67 688> 1489 156<67 688 67 874>
VStem: 688 186<-217 1489 1489 1489>
LayerCount: 2
Fore
SplineSet
67 1645 m 1
 874 1645 l 1
 874 -372 l 1
 67 -372 l 1
 67 -217 l 1
 688 -217 l 1
 688 1489 l 1
 67 1489 l 1
 67 1645 l 1
EndSplineSet
EndChar

StartChar: asciicircum
Encoding: 94 94 65
Width: 1229
Flags: MW
HStem: 1532 20G<614 614>
VStem: 71 1086<465 465>
LayerCount: 2
Fore
SplineSet
71 465 m 1
 614 1552 l 1
 1157 465 l 1
 986 465 l 1
 614 1212 l 1
 242 465 l 1
 71 465 l 1
EndSplineSet
EndChar

StartChar: underscore
Encoding: 95 95 66
Width: 1229
Flags: MW
HStem: -155 155<71 1157 71 1157>
VStem: 71 1086<-155 0 -155 0>
LayerCount: 2
Fore
SplineSet
1157 -155 m 1
 71 -155 l 1
 71 0 l 1
 1157 0 l 1
 1157 -155 l 1
EndSplineSet
EndChar

StartChar: grave
Encoding: 96 96 67
Width: 1229
Flags: MW
HStem: 1288 326<320 832 320 662>
VStem: 320 512<1288 1614>
LayerCount: 2
Fore
SplineSet
536 1614 m 1
 832 1288 l 1
 662 1288 l 1
 320 1614 l 1
 536 1614 l 1
EndSplineSet
EndChar

StartChar: a
Encoding: 97 97 68
Width: 1229
Flags: MW
HStem: -31 178<482.5 498.5> 0 21G<924 1118 924 924> 977 156<647.5 698.5 559 733.5> 1097 20G<889 1076 1076 1076>
VStem: 102 202<426.5 521.5> 889 187<472 951 951 951>
LayerCount: 2
Fore
SplineSet
889 251 m 1x64
 832 158 764 87 684 40 c 0
 605 -7 532 -31 465 -31 c 0
 372 -31 288 9 213 90 c 0
 139 171 102 293 102 457 c 0
 102 586 127 702 176 803 c 0
 275 1007 437 1133 681 1133 c 0xac
 716 1133 770 1129 841 1122 c 2
 889 1117 l 1
 1076 1117 l 1x54
 1076 328 l 2
 1076 193 1090 84 1118 0 c 1
 924 0 l 1
 909 61 898 145 889 251 c 1x64
889 472 m 1
 889 951 l 1
 823 968 762 977 705 977 c 0
 590 977 495 933 418 844 c 0
 342 755 304 635 304 482 c 0
 304 371 325 288 366 231 c 0
 408 175 456 147 509 147 c 0
 567 147 631 176 701 235 c 0xac
 771 294 834 373 889 472 c 1
EndSplineSet
EndChar

StartChar: b
Encoding: 98 98 69
Width: 1229
Flags: MW
HStem: -16 156<517.5 569.5 484.5 596> 0 21G<141 327 141 141> 970 178<717.5 733.5>
VStem: 141 186<0 166 166 645 866 1614> 913 202<595.5 690.5>
LayerCount: 2
Fore
SplineSet
327 1614 m 1xb0
 327 866 l 1
 384 959 453 1030 532 1077 c 0
 611 1124 684 1148 751 1148 c 0
 844 1148 928 1108 1003 1027 c 0
 1078 946 1115 824 1115 660 c 0
 1115 531 1090 415 1040 313 c 0
 991 212 925 131 842 72 c 0
 759 13 657 -16 535 -16 c 0xb8
 500 -16 447 -12 375 -5 c 2
 327 0 l 1
 141 0 l 1x70
 141 1614 l 1
 327 1614 l 1xb0
327 645 m 1
 327 166 l 1
 394 149 456 140 513 140 c 0
 626 140 720 184 797 272 c 0
 874 361 913 482 913 635 c 0
 913 746 892 830 850 886 c 0
 808 942 760 970 707 970 c 0
 649 970 585 941 515 882 c 0
 446 823 383 744 327 645 c 1
EndSplineSet
EndChar

StartChar: c
Encoding: 99 99 70
Width: 1229
Flags: MW
HStem: -31 171<739 777.5 689.5 795.5> 993 155<712 786.5 651 797.5>
VStem: 164 202<558 602.5 514.5 642.5>
LayerCount: 2
Fore
SplineSet
1095 211 m 1
 1095 32 l 1
 970 -10 852 -31 739 -31 c 0
 405 -33 160 224 164 558 c 0
 164 727 219 868 329 980 c 0
 440 1092 573 1148 729 1148 c 0
 844 1148 966 1126 1095 1083 c 1
 1095 904 l 1
 965 963 849 993 746 993 c 0
 678 993 614 976 554 942 c 0
 494 909 448 856 415 785 c 0
 382 714 366 640 366 565 c 0
 366 464 397 368 460 277 c 0
 523 186 622 140 757 140 c 0
 798 140 838 143 877 148 c 0
 916 154 989 175 1095 211 c 1
EndSplineSet
EndChar

StartChar: d
Encoding: 100 100 71
Width: 1229
Flags: MW
HStem: -31 178<494.5 510.5> 0 21G<901 901 901 1088> 977 156<659.5 710.5 571 745.5> 1097 20G<901 901> 1102 20G<853 853>
VStem: 114 202<426.5 521.5> 901 187<0 251 251 251 472 951 951 951 1117 1614 0 1614>
LayerCount: 2
Fore
SplineSet
901 0 m 1x62
 901 251 l 1
 844 158 776 87 696 40 c 0
 617 -7 544 -31 477 -31 c 0
 384 -31 300 9 225 90 c 0
 151 171 114 293 114 457 c 0
 114 586 139 702 188 803 c 0
 287 1007 449 1133 693 1133 c 0xa6
 728 1133 782 1129 853 1122 c 2x4a
 901 1117 l 1x52
 901 1614 l 1
 1088 1614 l 1
 1088 0 l 1
 901 0 l 1x62
901 472 m 1
 901 951 l 1
 835 968 774 977 717 977 c 0
 602 977 507 933 430 844 c 0
 354 755 316 635 316 482 c 0
 316 371 337 288 378 231 c 0
 420 175 468 147 521 147 c 0
 579 147 643 176 713 235 c 0
 783 294 846 373 901 472 c 1
EndSplineSet
EndChar

StartChar: e
Encoding: 101 101 72
Width: 1229
Flags: MW
HStem: -32 156<618.5 728.5> 528 139<341 898 341 1100 330 898> 993 155<610 689.5>
VStem: 130 200<503 528 489.5 607> 898 202<528 694 528 739.5>
LayerCount: 2
Fore
SplineSet
1084 244 m 1
 1084 74 l 1
 935 3 795 -32 662 -32 c 0
 561 -32 471 -7 392 43 c 0
 313 93 249 164 201 257 c 0
 154 350 130 450 130 556 c 0
 130 658 153 756 198 850 c 0
 243 944 307 1017 388 1069 c 0
 469 1122 560 1148 660 1148 c 0
 793 1148 899 1101 979 1006 c 0
 1060 911 1100 765 1100 568 c 2
 1100 528 l 1
 330 528 l 1
 330 451 346 380 378 316 c 0
 443 188 551 124 686 124 c 0
 806 124 939 164 1084 244 c 1
341 667 m 1
 898 667 l 1
 898 694 l 2
 898 785 876 858 831 912 c 0
 786 966 727 993 652 993 c 0
 501 993 385 882 341 667 c 1
EndSplineSet
EndChar

StartChar: f
Encoding: 102 102 73
Width: 1229
Flags: MW
HStem: 0 21G<415 601 415 415> 869 155<167 415 167 415 601 1044> 1489 156<873.5 939.5 838.5 940.5>
VStem: 415 186<0 869 1024 1076 1076 1096>
LayerCount: 2
Fore
SplineSet
601 0 m 1
 415 0 l 1
 415 869 l 1
 167 869 l 1
 167 1024 l 1
 415 1024 l 1
 415 1076 l 2
 415 1223 432 1332 465 1403 c 0
 498 1474 550 1532 619 1577 c 0
 689 1622 781 1645 896 1645 c 0
 983 1645 1071 1636 1160 1618 c 1
 1160 1441 l 1
 1063 1473 978 1489 903 1489 c 0
 844 1489 791 1478 746 1456 c 0
 701 1434 665 1398 639 1348 c 0
 614 1299 601 1215 601 1096 c 2
 601 1024 l 1
 1044 1024 l 1
 1044 869 l 1
 601 869 l 1
 601 0 l 1
EndSplineSet
EndChar

StartChar: g
Encoding: 103 103 74
Width: 1229
Flags: MW
HStem: -465 155<500 592.5 500 596.5> -31 178<494.5 510.5> 977 156<659.5 710.5 571 745.5> 1097 20G<901 1088 1088 1088>
VStem: 114 202<426.5 521.5> 901 187<233 251 251 251 472 951 951 951>
LayerCount: 2
Fore
SplineSet
901 93 m 2xe4
 901 251 l 1
 844 158 776 87 696 40 c 0
 617 -7 544 -31 477 -31 c 0
 384 -31 300 9 225 90 c 0
 151 171 114 293 114 457 c 0
 114 586 139 702 188 803 c 0
 287 1007 449 1133 693 1133 c 0xec
 728 1133 782 1129 853 1122 c 2
 901 1117 l 1
 1088 1117 l 1xd4
 1088 327 l 2
 1088 139 1085 24 1080 -17 c 0
 1075 -59 1067 -101 1056 -144 c 0
 1029 -243 968 -322 873 -379 c 0
 778 -436 664 -465 529 -465 c 0
 394 -465 257 -430 118 -361 c 1
 118 -173 l 1
 171 -209 235 -241 312 -268 c 0
 389 -296 464 -310 536 -310 c 0
 649 -310 757 -273 820 -205 c 0
 851 -171 873 -131 884 -86 c 0
 895 -41 901 18 901 93 c 2xe4
901 472 m 1
 901 951 l 1
 835 968 774 977 717 977 c 0
 602 977 507 933 430 844 c 0
 354 755 316 635 316 482 c 0
 316 371 337 288 378 231 c 0
 420 175 468 147 521 147 c 0
 579 147 643 176 713 235 c 0
 783 294 846 373 901 472 c 1
EndSplineSet
EndChar

StartChar: h
Encoding: 104 104 75
Width: 1229
Flags: MW
HStem: 0 21G<155 341 155 155 900 900 900 1086> 977 171<722.5 769.5>
VStem: 155 186<0 651 873 1614> 900 186<0 624 0 647 0 700.5>
LayerCount: 2
Fore
SplineSet
341 0 m 1
 155 0 l 1
 155 1614 l 1
 341 1614 l 1
 341 873 l 1
 394 959 459 1026 534 1075 c 0
 609 1124 685 1148 760 1148 c 0
 823 1148 881 1132 933 1099 c 0
 986 1067 1022 1028 1043 982 c 0
 1060 947 1071 909 1077 869 c 0
 1083 830 1086 748 1086 624 c 2
 1086 0 l 1
 900 0 l 1
 900 647 l 2
 900 754 895 825 884 859 c 0
 864 928 802 977 737 977 c 0
 672 977 601 946 526 884 c 0
 451 822 390 744 341 651 c 1
 341 0 l 1
EndSplineSet
EndChar

StartChar: i
Encoding: 105 105 76
Width: 1229
Flags: MW
HStem: 0 155<654 965 654 965> 962 155<158 468 158 654>
VStem: 468 186<155 962 962 962>
LayerCount: 2
Fore
SplineSet
965 0 m 1
 468 0 l 1
 468 962 l 1
 158 962 l 1
 158 1117 l 1
 654 1117 l 1
 654 155 l 1
 965 155 l 1
 965 0 l 1
437 1520 m 0
 437 1562 451 1593 480 1614 c 0
 509 1635 536 1645 561 1645 c 0
 587 1645 614 1635 643 1614 c 0
 672 1593 686 1562 686 1520 c 0
 686 1479 672 1448 643 1427 c 0
 614 1406 587 1396 561 1396 c 0
 536 1396 509 1406 480 1427 c 0
 451 1448 437 1479 437 1520 c 0
EndSplineSet
EndChar

StartChar: j
Encoding: 106 106 77
Width: 1229
Flags: MW
HStem: -466 156<399.5 466 399.5 483> -438 21G<172 172> 962 155<257 731 257 917>
VStem: 731 186<100 135 135 962 962 962>
LayerCount: 2
Fore
SplineSet
172 -438 m 1x70
 172 -264 l 1
 276 -295 364 -310 435 -310 c 0
 497 -310 550 -299 593 -277 c 0
 636 -256 670 -219 694 -168 c 0
 719 -117 731 -27 731 100 c 2
 731 962 l 1
 257 962 l 1
 257 1117 l 1
 917 1117 l 1
 917 135 l 2
 917 -54 895 -186 850 -259 c 0
 805 -333 751 -386 688 -418 c 0
 625 -450 538 -466 428 -466 c 0xb0
 349 -466 263 -457 172 -438 c 1x70
700 1520 m 0
 700 1562 714 1593 742 1614 c 0
 771 1635 798 1645 824 1645 c 0
 850 1645 877 1635 905 1614 c 0
 934 1593 948 1562 948 1520 c 0
 948 1479 934 1448 905 1427 c 0
 877 1406 850 1396 824 1396 c 0
 798 1396 771 1406 742 1427 c 0
 714 1448 700 1479 700 1520 c 0
EndSplineSet
EndChar

StartChar: k
Encoding: 107 107 78
Width: 1229
Flags: MW
HStem: 0 21G<205 391 205 205 934 934 934 1190> 1097 20G<928 1176 1176 1176>
VStem: 205 186<0 600 600 1614>
LayerCount: 2
Fore
SplineSet
391 0 m 1
 205 0 l 1
 205 1614 l 1
 391 1614 l 1
 391 600 l 1
 928 1117 l 1
 1176 1117 l 1
 640 600 l 1
 1190 0 l 1
 934 0 l 1
 391 600 l 1
 391 0 l 1
EndSplineSet
EndChar

StartChar: l
Encoding: 108 108 79
Width: 1229
Flags: MW
HStem: 0 155<641 990 641 990> 1458 156<121 455 121 641>
VStem: 455 186<155 1458 1458 1458>
LayerCount: 2
Fore
SplineSet
990 0 m 1
 455 0 l 1
 455 1458 l 1
 121 1458 l 1
 121 1614 l 1
 641 1614 l 1
 641 155 l 1
 990 155 l 1
 990 0 l 1
EndSplineSet
EndChar

StartChar: m
Encoding: 109 109 80
Width: 1229
Flags: MW
HStem: 0 21G<71 234 71 71 536 536 536 692 994 994 994 1157> 962 186<438 566> 1097 20G<71 234 234 234> 1128 20G<489.5 566 939.5 1007>
VStem: 71 163<0 645 861 1117> 536 156<0 619 0 762 0 811.5> 994 163<0 763 763 794.5>
CounterMasks: 1 0e
LayerCount: 2
Fore
SplineSet
234 0 m 1xbe
 71 0 l 1
 71 1117 l 1
 234 1117 l 1xbe
 234 861 l 1
 285 970 333 1045 377 1086 c 0
 422 1127 467 1148 512 1148 c 0
 620 1148 692 1060 692 904 c 2
 692 844 l 1
 714 912 740 967 771 1009 c 0
 834 1094 896 1148 983 1148 c 0
 1031 1148 1072 1128 1106 1087 c 0
 1140 1046 1157 965 1157 844 c 2
 1157 0 l 1
 994 0 l 1
 994 763 l 2
 994 826 992 868 988 891 c 0
 980 938 953 962 925 962 c 0
 890 962 853 935 813 882 c 0
 774 829 733 742 692 619 c 1
 692 0 l 1
 536 0 l 1
 536 762 l 2
 536 861 526 919 507 936 c 0
 488 953 470 962 455 962 c 0
 421 962 384 932 345 873 c 0xce
 306 814 269 738 234 645 c 1
 234 0 l 1xbe
EndSplineSet
EndChar

StartChar: n
Encoding: 110 110 81
Width: 1229
Flags: MW
HStem: 0 21G<155 341 155 155 900 900 900 1086> 977 171<722.5 769.5> 1097 20G<155 341 341 341>
VStem: 155 186<0 651 873 1117> 900 186<0 624 0 647 0 700.5>
LayerCount: 2
Fore
SplineSet
341 0 m 1xb8
 155 0 l 1
 155 1117 l 1
 341 1117 l 1xb8
 341 873 l 1
 394 959 459 1026 534 1075 c 0
 609 1124 685 1148 760 1148 c 0
 826 1148 886 1130 940 1095 c 0
 994 1060 1032 1015 1053 958 c 0
 1075 901 1086 790 1086 624 c 2
 1086 0 l 1
 900 0 l 1
 900 647 l 2
 900 754 895 825 884 859 c 0
 864 928 802 977 737 977 c 0
 672 977 601 946 526 884 c 0xd8
 451 822 390 744 341 651 c 1
 341 0 l 1xb8
EndSplineSet
EndChar

StartChar: o
Encoding: 111 111 82
Width: 1229
Flags: MW
HStem: -31 155<565 664.5 565 694.5> 993 155<565 664.5>
VStem: 87 202<491.5 626.5 491.5 644> 940 202<491.5 626.5>
LayerCount: 2
Fore
SplineSet
615 -31 m 0
 455 -31 327 25 231 136 c 0
 135 248 87 389 87 559 c 0
 87 729 135 870 231 981 c 0
 327 1092 455 1148 615 1148 c 0
 774 1148 902 1092 998 981 c 0
 1094 870 1142 729 1142 559 c 0
 1142 389 1094 248 998 136 c 0
 902 25 774 -31 615 -31 c 0
615 124 m 0
 714 124 793 163 852 240 c 0
 911 317 940 424 940 559 c 0
 940 694 911 800 852 877 c 0
 793 954 714 993 615 993 c 0
 515 993 436 954 377 877 c 0
 318 800 289 694 289 559 c 0
 289 424 318 317 377 240 c 0
 436 163 515 124 615 124 c 0
EndSplineSet
EndChar

StartChar: p
Encoding: 112 112 83
Width: 1229
Flags: MW
HStem: -434 21G<141 327 141 141> -16 156<517.5 569.5 484.5 596> -5 21G<375 375> 0 21G<327 327> 970 178<717.5 733.5> 1097 20G<141 327 327 327>
VStem: 141 186<-434 0 -434 166 166 645 866 1117> 913 202<595.5 690.5>
LayerCount: 2
Fore
SplineSet
327 1117 m 1xc6
 327 866 l 1
 384 959 453 1030 532 1077 c 0
 611 1124 684 1148 751 1148 c 0
 844 1148 928 1108 1003 1027 c 0
 1078 946 1115 824 1115 660 c 0
 1115 531 1090 415 1040 313 c 0
 991 212 925 131 842 72 c 0
 759 13 657 -16 535 -16 c 0xcb
 500 -16 447 -12 375 -5 c 2xa6
 327 0 l 1x96
 327 -434 l 1
 141 -434 l 1
 141 1117 l 1
 327 1117 l 1xc6
327 645 m 1
 327 166 l 1
 394 149 456 140 513 140 c 0
 626 140 720 184 797 272 c 0
 874 361 913 482 913 635 c 0
 913 746 892 830 850 886 c 0
 808 942 760 970 707 970 c 0
 649 970 585 941 515 882 c 0
 446 823 383 744 327 645 c 1
EndSplineSet
EndChar

StartChar: q
Encoding: 113 113 84
Width: 1229
Flags: MW
HStem: -434 21G<901 901 901 1088> -31 178<494.5 510.5> 977 156<659.5 710.5 571 745.5> 1097 20G<901 1088 1088 1088>
VStem: 114 202<426.5 521.5> 901 187<-434 251 251 251 472 951 951 951 -434 1117>
LayerCount: 2
Fore
SplineSet
901 -434 m 1xe4
 901 251 l 1
 844 158 776 87 696 40 c 0
 617 -7 544 -31 477 -31 c 0
 384 -31 300 9 225 90 c 0
 151 171 114 293 114 457 c 0
 114 586 139 702 188 803 c 0
 287 1007 449 1133 693 1133 c 0xec
 728 1133 782 1129 853 1122 c 2
 901 1117 l 1
 1088 1117 l 1xd4
 1088 -434 l 1
 901 -434 l 1xe4
901 472 m 1
 901 951 l 1
 835 968 774 977 717 977 c 0
 602 977 507 933 430 844 c 0
 354 755 316 635 316 482 c 0
 316 371 337 288 378 231 c 0
 420 175 468 147 521 147 c 0
 579 147 643 176 713 235 c 0
 783 294 846 373 901 472 c 1
EndSplineSet
EndChar

StartChar: r
Encoding: 114 114 85
Width: 1229
Flags: MW
HStem: 0 21G<250 436 250 250> 977 171<794 844> 1097 20G<250 436 436 436 1088 1088>
VStem: 250 186<0 649 873 1117> 909 179<714 969 969 969>
LayerCount: 2
Fore
SplineSet
436 0 m 1xd8
 250 0 l 1
 250 1117 l 1
 436 1117 l 1xb8
 436 873 l 1
 552 1057 702 1148 886 1148 c 0xd8
 953 1148 1021 1138 1088 1117 c 1xb8
 1088 714 l 1
 909 714 l 1
 909 969 l 1
 878 974 853 977 835 977 c 0
 696 977 563 868 436 649 c 1
 436 0 l 1xd8
EndSplineSet
EndChar

StartChar: s
Encoding: 115 115 86
Width: 1229
Flags: MW
HStem: -31 155<588 664 588 689.5> 993 155<604.5 698>
VStem: 199 194<828 868.5 828 878> 882 194<260.5 298>
LayerCount: 2
Fore
SplineSet
168 59 m 1
 168 256 l 1
 243 207 322 173 405 153 c 0
 488 134 559 124 617 124 c 0
 711 124 779 139 820 169 c 0
 861 200 882 238 882 283 c 0
 882 313 872 339 853 360 c 0
 834 381 786 408 709 439 c 2
 645 465 l 1
 516 516 l 2
 377 570 290 620 254 666 c 0
 217 711 199 767 199 832 c 0
 199 924 234 1000 305 1059 c 0
 376 1118 492 1148 651 1148 c 0
 770 1148 883 1131 990 1096 c 1
 990 927 l 1
 867 971 752 993 644 993 c 0
 565 993 504 979 459 951 c 0
 415 924 393 889 393 848 c 0
 393 808 412 776 451 752 c 0
 489 728 551 700 637 669 c 2
 763 623 l 2
 878 581 959 535 1006 486 c 0
 1053 437 1076 375 1076 301 c 0
 1076 204 1039 125 964 62 c 0
 890 0 771 -31 608 -31 c 0
 465 -31 319 -1 168 59 c 1
EndSplineSet
EndChar

StartChar: t
Encoding: 116 116 87
Width: 1229
Flags: MW
HStem: -31 155<756.5 803.5> 869 155<96 375 96 375 561 1058>
VStem: 375 186<419 422 422 869 1024 1474>
LayerCount: 2
Fore
SplineSet
1089 209 m 1
 1089 45 l 1
 1002 8 938 -13 899 -20 c 0
 860 -27 822 -31 785 -31 c 0
 707 -31 636 -16 571 14 c 0
 506 44 457 88 424 147 c 0
 391 206 375 296 375 419 c 2
 375 869 l 1
 96 869 l 1
 96 1024 l 1
 375 1024 l 1
 375 1474 l 1
 561 1474 l 1
 561 1024 l 1
 1058 1024 l 1
 1058 869 l 1
 561 869 l 1
 561 422 l 2
 561 332 572 268 593 231 c 0
 636 158 708 124 805 124 c 0
 895 124 990 152 1089 209 c 1
EndSplineSet
EndChar

StartChar: u
Encoding: 117 117 88
Width: 1229
Flags: MW
HStem: -31 171<459 523.5 459 541.5> 0 21G<888 1074 888 888> 1097 20G<143 329 329 329 888 1074 1074 1074>
VStem: 143 186<493 1117> 888 186<0 245 245 245 466 1117 0 1117>
LayerCount: 2
Fore
SplineSet
888 1117 m 1xb8
 1074 1117 l 1
 1074 0 l 1
 888 0 l 1x78
 888 245 l 1
 768 61 615 -31 468 -31 c 0
 403 -31 343 -14 288 21 c 0
 234 56 196 102 175 159 c 0
 154 216 143 328 143 493 c 2
 143 1117 l 1
 329 1117 l 1
 329 470 l 2
 329 363 334 292 344 257 c 0
 365 189 427 140 491 140 c 0
 556 140 626 171 701 232 c 0
 776 294 839 372 888 466 c 1
 888 1117 l 1xb8
EndSplineSet
EndChar

StartChar: v
Encoding: 118 118 89
Width: 1229
Flags: MW
HStem: 0 21G<518 708 518 518> 1097 20G<33 237 237 237 1011 1197 1197 1197>
VStem: 33 1164<1117 1117>
LayerCount: 2
Fore
SplineSet
708 0 m 1
 518 0 l 1
 33 1117 l 1
 237 1117 l 1
 620 233 l 1
 1011 1117 l 1
 1197 1117 l 1
 708 0 l 1
EndSplineSet
EndChar

StartChar: w
Encoding: 119 119 90
Width: 1229
Flags: MW
HStem: 0 21G<202 383 202 202 853 853 853 1027> 1097 20G<20 193 193 193 532 699 699 699 1065 1208 1208 1208>
VStem: 20 1188<1117 1117>
LayerCount: 2
Fore
SplineSet
383 0 m 1
 202 0 l 1
 20 1117 l 1
 193 1117 l 1
 299 437 l 1
 327 279 l 1
 354 437 l 1
 532 1117 l 1
 699 1117 l 1
 900 437 l 1
 935 279 l 1
 958 437 l 1
 1065 1117 l 1
 1208 1117 l 1
 1027 0 l 1
 853 0 l 1
 639 719 l 1
 605 877 l 1
 600 877 l 1
 569 720 l 1
 383 0 l 1
EndSplineSet
EndChar

StartChar: x
Encoding: 120 120 91
Width: 1229
Flags: MW
HStem: 0 21G<56 271 56 56 942 942 942 1181> 1097 20G<85 323 323 323 897 1108 1108 1108>
VStem: 56 1125<0 0>
LayerCount: 2
Fore
SplineSet
602 445 m 1
 271 0 l 1
 56 0 l 1
 495 585 l 1
 85 1117 l 1
 323 1117 l 1
 614 742 l 1
 897 1117 l 1
 1108 1117 l 1
 720 603 l 1
 1181 0 l 1
 942 0 l 1
 602 445 l 1
EndSplineSet
EndChar

StartChar: y
Encoding: 121 121 92
Width: 1229
Flags: MW
HStem: -466 155<155.5 209 155.5 249.5> -451 21G<32 32> 1097 20G<50 255 255 255 1010 1197 1197 1197>
VStem: 32 1165
LayerCount: 2
Fore
SplineSet
549 2 m 2xb0
 566 45 l 1
 50 1117 l 1
 255 1117 l 1
 666 279 l 1
 1010 1117 l 1
 1197 1117 l 1
 764 79 l 2
 673 -140 586 -286 503 -358 c 0
 421 -430 315 -466 184 -466 c 0xb0
 127 -466 77 -461 32 -451 c 1x70
 32 -287 l 1
 83 -303 132 -311 179 -311 c 0
 239 -311 292 -299 339 -276 c 0
 386 -253 428 -211 467 -152 c 0
 506 -93 533 -41 549 2 c 2xb0
EndSplineSet
EndChar

StartChar: z
Encoding: 122 122 93
Width: 1229
Flags: MW
HStem: 0 171<374 1087 133 133> 962 155<149 818 149 1064 149 1064>
VStem: 133 954<0 171 0 171>
LayerCount: 2
Fore
SplineSet
1087 0 m 1
 133 0 l 1
 133 171 l 1
 818 962 l 1
 149 962 l 1
 149 1117 l 1
 1064 1117 l 1
 1064 962 l 1
 374 171 l 1
 1087 171 l 1
 1087 0 l 1
EndSplineSet
EndChar

StartChar: braceleft
Encoding: 123 123 94
Width: 1229
Flags: MW
HStem: -372 155<854.5 1103 948 1103 948 1103> 559 155<211 300 211 300> 1489 156<946 948 948 1103>
VStem: 514 191<-91.5 -65.5 1338.5 1362.5> 583 187<322.5 365 920.5 953>
LayerCount: 2
Fore
SplineSet
547 636 m 1xe8
 609 603 654 571 683 540 c 0
 742 477 770 415 770 330 c 0
 770 292 763 242 750 181 c 2xe8
 725 67 l 2
 712 5 705 -41 705 -71 c 0
 705 -112 721 -146 752 -174 c 0
 784 -203 849 -217 948 -217 c 2
 1103 -217 l 1
 1103 -372 l 1
 946 -372 l 2
 763 -372 646 -343 593 -284 c 0
 540 -225 514 -159 514 -85 c 0
 514 -46 519 -3 529 42 c 2
 547 122 l 1
 564 209 l 1xf0
 576 262 l 2
 581 287 583 311 583 334 c 0
 583 396 562 449 520 493 c 0
 479 537 405 559 300 559 c 2
 211 559 l 1
 211 714 l 1
 300 714 l 2
 404 714 477 736 519 779 c 0
 562 822 583 876 583 941 c 0
 583 965 581 988 576 1011 c 2
 564 1063 l 1
 547 1150 l 1xe8
 529 1230 l 2
 519 1276 514 1319 514 1358 c 0
 514 1431 540 1497 593 1556 c 0
 646 1615 763 1645 946 1645 c 2
 1103 1645 l 1
 1103 1489 l 1
 948 1489 l 2
 850 1489 785 1475 753 1446 c 0
 721 1418 705 1383 705 1342 c 0
 705 1313 712 1267 725 1205 c 2xf0
 750 1091 l 2
 763 1030 770 980 770 942 c 0
 770 899 763 861 748 828 c 0
 720 763 671 701 547 636 c 1xe8
EndSplineSet
EndChar

StartChar: bar
Encoding: 124 124 95
Width: 1229
Flags: MW
HStem: -47 21G<533 696 533 533> 1578 20G<533 696 696 696>
VStem: 533 163<-47 1598>
LayerCount: 2
Fore
SplineSet
696 -47 m 1
 533 -47 l 1
 533 1598 l 1
 696 1598 l 1
 696 -47 l 1
EndSplineSet
EndChar

StartChar: braceright
Encoding: 125 125 96
Width: 1229
Flags: MW
HStem: -372 155<126 281 281 283 126 281> 559 155<877 1018 929 1018> 1489 156<126 281 126 283>
VStem: 460 186<319.5 351.5 907.5 949.5> 524 192<-90.5 -66.5 -123 -55.5 1338 1363.5>
LayerCount: 2
Fore
SplineSet
682 636 m 1xf0
 620 669 574 701 545 732 c 0
 488 795 460 857 460 942 c 0
 460 980 466 1030 479 1091 c 2xf0
 504 1205 l 2
 517 1267 524 1313 524 1343 c 0
 524 1384 508 1418 476 1446 c 0
 445 1475 380 1489 281 1489 c 2
 126 1489 l 1
 126 1645 l 1
 283 1645 l 2
 466 1645 583 1615 636 1556 c 0
 689 1497 716 1431 716 1358 c 0
 716 1318 711 1275 700 1230 c 2
 682 1150 l 1
 665 1063 l 1xe8
 653 1011 l 2
 648 986 646 961 646 938 c 0
 646 877 667 824 708 780 c 0
 750 736 824 714 929 714 c 2
 1018 714 l 1
 1018 559 l 1
 929 559 l 2
 825 559 752 537 709 493 c 0
 667 450 646 396 646 331 c 0
 646 308 648 285 653 262 c 2
 665 209 l 1
 682 122 l 1xf0
 700 42 l 2
 711 -4 716 -47 716 -86 c 0
 716 -160 689 -226 636 -284 c 0
 583 -343 466 -372 283 -372 c 2
 126 -372 l 1
 126 -217 l 1
 281 -217 l 2
 380 -217 445 -203 476 -174 c 0
 508 -146 524 -111 524 -70 c 0
 524 -41 517 5 504 67 c 2xe8
 479 181 l 2
 466 242 460 292 460 330 c 0
 460 373 467 410 481 443 c 0
 495 476 516 509 545 540 c 0
 574 571 620 603 682 636 c 1xf0
EndSplineSet
EndChar

StartChar: asciitilde
Encoding: 126 126 97
Width: 1229
Flags: MW
HStem: 372 156<876.5 913.5> 590 155<313.5 350.5>
VStem: 56 120<403 421 403 464.5> 1045 128<698 714 642.5 714>
LayerCount: 2
Fore
SplineSet
176 403 m 1
 56 403 l 1
 56 421 l 2
 56 508 82 584 133 648 c 0
 185 713 255 745 342 745 c 0
 364 745 385 743 406 738 c 0
 427 734 451 727 478 716 c 0
 505 706 545 686 598 656 c 2
 719 589 l 2
 793 548 853 528 900 528 c 0
 949 528 986 546 1009 581 c 0
 1033 617 1045 656 1045 698 c 2
 1045 714 l 1
 1173 714 l 1
 1173 698 l 2
 1173 587 1141 504 1078 451 c 0
 1015 398 949 372 878 372 c 0
 812 372 725 403 616 465 c 2
 514 524 l 2
 437 568 374 590 327 590 c 0
 300 590 275 583 252 569 c 0
 229 555 211 533 197 502 c 0
 183 471 176 444 176 421 c 2
 176 403 l 1
EndSplineSet
EndChar

StartChar: Adieresis
Encoding: 196 196 98
Width: 1229
Flags: MW
HStem: 0 21G<33 227 33 33 984 984 984 1197> 341 155<332 833 380 833 380 878> 1532 20G<511 716 716 716> 1722 248<380.5 413.5 380.5 414 815.5 848.5>
VStem: 33 1164<0 0>
LayerCount: 2
Fore
SplineSet
332 341 m 1
 227 0 l 1
 33 0 l 1
 511 1552 l 1
 716 1552 l 1
 1197 0 l 1
 984 0 l 1
 878 341 l 1
 332 341 l 1
563 1085 m 1
 380 496 l 1
 833 496 l 1
 646 1085 l 1
 602 1241 l 1
 563 1085 l 1
397 1722 m 0
 363 1722 334 1734 309 1758 c 0
 285 1782 273 1811 273 1846 c 0
 273 1881 285 1910 310 1934 c 0
 335 1958 364 1970 397 1970 c 0
 430 1970 459 1958 484 1934 c 0
 509 1910 521 1881 521 1846 c 0
 521 1811 509 1782 484 1758 c 0
 460 1734 431 1722 397 1722 c 0
832 1722 m 0
 798 1722 769 1734 744 1758 c 0
 719 1782 707 1811 707 1846 c 0
 707 1881 719 1910 744 1934 c 0
 769 1958 799 1970 832 1970 c 0
 865 1970 894 1958 919 1934 c 0
 944 1910 956 1881 956 1846 c 0
 956 1811 944 1782 919 1758 c 0
 894 1734 865 1722 832 1722 c 0
EndSplineSet
EndChar

StartChar: Aring
Encoding: 197 197 99
Width: 1229
Flags: MW
HStem: 0 21G<33 227 33 33 984 1197 984 984> 341 155<380 833 380 878 332 833> 1532 20G<511 511 716 716> 1800 93<600.5 638.5>
VStem: 427 93<1681.5 1719.5 1681.5 1732> 706 93<1681.5 1732.5>
LayerCount: 2
Fore
SplineSet
716 1552 m 1
 1197 0 l 1
 984 0 l 1
 878 341 l 1
 332 341 l 1
 227 0 l 1
 33 0 l 1
 511 1552 l 1
 455 1593 427 1644 427 1707 c 0
 427 1757 445 1800 481 1837 c 0
 518 1874 562 1893 613 1893 c 0
 664 1893 708 1875 744 1838 c 0
 781 1801 799 1758 799 1707 c 0
 799 1646 772 1593 716 1552 c 1
563 1085 m 1
 380 496 l 1
 833 496 l 1
 646 1085 l 1
 602 1241 l 1
 563 1085 l 1
520 1707 m 0
 520 1656 562 1614 613 1614 c 0
 664 1614 706 1656 706 1707 c 0
 706 1758 664 1800 613 1800 c 0
 588 1800 566 1791 547 1772 c 0
 529 1753 520 1732 520 1707 c 0
EndSplineSet
EndChar

StartChar: Ccedilla
Encoding: 199 199 100
Width: 1229
Flags: MW
HStem: -435 86<637.5 729.5> -49 157<752 778.5> -37 21G<651 651> 1443 156<728 821>
VStem: 118 209<713 838 713 888.5> 749 131<-291.5 -273 -307.5 -261.5>
LayerCount: 2
Fore
SplineSet
1088 1534 m 1xbc
 1088 1350 l 1
 981 1412 874 1443 768 1443 c 0
 688 1443 615 1416 548 1361 c 0
 482 1306 429 1226 388 1120 c 0
 347 1015 327 900 327 776 c 0
 327 650 348 534 390 427 c 0
 474 214 609 108 768 108 c 0
 873 108 980 139 1088 201 c 1
 1088 18 l 1
 1003 -13 939 -31 896 -38 c 0
 853 -45 805 -49 752 -49 c 1
 707 -131 l 1xdc
 778 -145 825 -167 847 -196 c 0
 869 -226 880 -257 880 -289 c 0
 880 -326 865 -359 836 -389 c 0
 807 -420 761 -435 698 -435 c 0
 643 -435 590 -426 539 -407 c 1
 539 -318 l 1
 578 -339 617 -349 658 -349 c 0
 681 -349 702 -342 721 -328 c 0
 740 -314 749 -299 749 -284 c 0
 749 -239 687 -210 563 -197 c 1
 651 -37 l 1
 522 -4 418 50 341 127 c 0
 188 282 118 482 118 754 c 0
 118 1023 180 1231 305 1378 c 0
 430 1525 587 1599 776 1599 c 0
 868 1599 972 1577 1088 1534 c 1xbc
EndSplineSet
EndChar

StartChar: Eacute
Encoding: 201 201 101
Width: 1229
Flags: MW
HStem: 0 171<405 1041 405 1041> 714 155<405 963 405 963> 1396 156<405 1025 405 405>
VStem: 203 202<171 171 171 714 869 1396>
LayerCount: 2
Fore
SplineSet
405 171 m 1
 1041 171 l 1
 1041 0 l 1
 203 0 l 1
 203 1552 l 1
 1025 1552 l 1
 1025 1396 l 1
 405 1396 l 1
 405 869 l 1
 963 869 l 1
 963 714 l 1
 405 714 l 1
 405 171 l 1
537 1722 m 1
 367 1722 l 1
 663 2048 l 1
 879 2048 l 1
 537 1722 l 1
EndSplineSet
EndChar

StartChar: Ntilde
Encoding: 209 209 102
Width: 1229
Flags: MW
HStem: 0 21G<126 312 126 126 917 917 917 1103> 1532 20G<126 308 308 308 917 1103 1103 1103> 1721 140<752 783 752 797.5> 1838 140<481.5 499.5>
VStem: 126 186<0 1018 0 1552> 298 125<1722 1745.5 1722 1810> 823 127<1939 1978> 917 186<0 1552 365 365 519 1552 0 1552>
LayerCount: 2
Fore
SplineSet
312 1018 m 1xe9
 312 0 l 1
 126 0 l 1
 126 1552 l 1
 308 1552 l 1
 857 519 l 1
 917 365 l 1
 922 365 l 1
 917 519 l 1
 917 1552 l 1
 1103 1552 l 1
 1103 0 l 1
 917 0 l 1
 383 1016 l 1
 308 1179 l 1
 312 1018 l 1xe9
423 1722 m 1xe5
 298 1722 l 1
 298 1898 375 1978 479 1978 c 0
 520 1978 562 1965 605 1938 c 2xd5
 647 1913 l 2
 702 1878 741 1861 763 1861 c 0
 803 1861 823 1900 823 1978 c 1xea
 950 1978 l 1
 946 1910 937 1860 923 1829 c 0
 895 1766 832 1721 763 1721 c 0
 720 1721 673 1737 622 1770 c 2
 578 1798 l 1xe9
 554 1815 l 2
 531 1830 510 1838 489 1838 c 0
 474 1838 460 1830 445 1815 c 0xd5
 430 1800 423 1769 423 1722 c 1xe5
EndSplineSet
EndChar

StartChar: Odieresis
Encoding: 214 214 103
Width: 1229
Flags: MW
HStem: -47 156<565.5 662.5 565.5 702.5> 1443 155<565.5 662.5> 1722 248<380.5 413.5 380.5 414 815.5 848.5>
VStem: 71 202<664 888 664 901.5> 955 202<664 888>
LayerCount: 2
Fore
SplineSet
614 -47 m 0
 438 -47 303 27 210 175 c 0
 117 324 71 524 71 776 c 0
 71 1027 117 1227 210 1375 c 0
 303 1524 438 1598 614 1598 c 0
 791 1598 925 1524 1018 1375 c 0
 1111 1227 1157 1027 1157 776 c 0
 1157 524 1111 324 1018 175 c 0
 925 27 791 -47 614 -47 c 0
614 109 m 0
 711 109 792 164 857 274 c 0
 922 385 955 552 955 776 c 0
 955 1000 922 1167 857 1277 c 0
 792 1388 711 1443 614 1443 c 0
 517 1443 435 1388 370 1277 c 0
 305 1167 273 1000 273 776 c 0
 273 552 305 385 370 274 c 0
 435 164 517 109 614 109 c 0
397 1722 m 0
 363 1722 334 1734 309 1758 c 0
 285 1782 273 1811 273 1846 c 0
 273 1881 285 1910 310 1934 c 0
 335 1958 364 1970 397 1970 c 0
 430 1970 459 1958 484 1934 c 0
 509 1910 521 1881 521 1846 c 0
 521 1811 509 1782 484 1758 c 0
 460 1734 431 1722 397 1722 c 0
832 1722 m 0
 798 1722 769 1734 744 1758 c 0
 719 1782 707 1811 707 1846 c 0
 707 1881 719 1910 744 1934 c 0
 769 1958 799 1970 832 1970 c 0
 865 1970 894 1958 919 1934 c 0
 944 1910 956 1881 956 1846 c 0
 956 1811 944 1782 919 1758 c 0
 894 1734 865 1722 832 1722 c 0
EndSplineSet
EndChar

StartChar: Udieresis
Encoding: 220 220 104
Width: 1229
Flags: MW
HStem: -47 155<562.5 649 562.5 713.5> 1532 20G<126 328 328 328 917 1103 1103 1103> 1722 248<380.5 413.5 380.5 414 815.5 848.5>
VStem: 126 202<559 1552> 917 186<612 1552>
LayerCount: 2
Fore
SplineSet
126 559 m 2
 126 1552 l 1
 328 1552 l 1
 328 533 l 2
 328 399 339 307 361 258 c 0
 406 161 506 108 619 108 c 0
 679 108 732 122 779 149 c 0
 826 177 861 220 883 279 c 0
 906 338 917 449 917 612 c 2
 917 1552 l 1
 1103 1552 l 1
 1103 539 l 2
 1103 394 1081 281 1038 199 c 0
 953 36 819 -47 608 -47 c 0
 511 -47 425 -29 351 7 c 0
 277 43 221 97 183 169 c 0
 145 241 126 371 126 559 c 2
397 1722 m 0
 363 1722 334 1734 309 1758 c 0
 285 1782 273 1811 273 1846 c 0
 273 1881 285 1910 310 1934 c 0
 335 1958 364 1970 397 1970 c 0
 430 1970 459 1958 484 1934 c 0
 509 1910 521 1881 521 1846 c 0
 521 1811 509 1782 484 1758 c 0
 460 1734 431 1722 397 1722 c 0
832 1722 m 0
 798 1722 769 1734 744 1758 c 0
 719 1782 707 1811 707 1846 c 0
 707 1881 719 1910 744 1934 c 0
 769 1958 799 1970 832 1970 c 0
 865 1970 894 1958 919 1934 c 0
 944 1910 956 1881 956 1846 c 0
 956 1811 944 1782 919 1758 c 0
 894 1734 865 1722 832 1722 c 0
EndSplineSet
EndChar

StartChar: aacute
Encoding: 225 225 105
Width: 1229
Flags: MW
HStem: -31 178<482.5 498.5> 0 21G<924 1118 924 924> 977 156<647.5 698.5 559 733.5> 1097 20G<889 1076 1076 1076>
VStem: 102 202<426.5 521.5> 889 187<472 951 951 951>
LayerCount: 2
Fore
SplineSet
889 251 m 1x64
 832 158 764 87 684 40 c 0
 605 -7 532 -31 465 -31 c 0
 372 -31 288 9 213 90 c 0
 139 171 102 293 102 457 c 0
 102 586 127 702 176 803 c 0
 275 1007 437 1133 681 1133 c 0xac
 716 1133 770 1129 841 1122 c 2
 889 1117 l 1
 1076 1117 l 1x54
 1076 328 l 2
 1076 193 1090 84 1118 0 c 1
 924 0 l 1
 909 61 898 145 889 251 c 1x64
889 472 m 1
 889 951 l 1
 823 968 762 977 705 977 c 0
 590 977 495 933 418 844 c 0
 342 755 304 635 304 482 c 0
 304 371 325 288 366 231 c 0
 408 175 456 147 509 147 c 0
 567 147 631 176 701 235 c 0xac
 771 294 834 373 889 472 c 1
649 1288 m 1
 479 1288 l 1
 775 1614 l 1
 991 1614 l 1
 649 1288 l 1
EndSplineSet
EndChar

StartChar: agrave
Encoding: 224 224 106
Width: 1229
Flags: MW
HStem: -31 178<482.5 498.5> 0 21G<924 1118 924 924> 977 156<647.5 698.5 559 733.5> 1097 20G<889 1076 1076 1076>
VStem: 102 202<426.5 521.5> 889 187<472 951 951 951>
LayerCount: 2
Fore
SplineSet
889 251 m 1x64
 832 158 764 87 684 40 c 0
 605 -7 532 -31 465 -31 c 0
 372 -31 288 9 213 90 c 0
 139 171 102 293 102 457 c 0
 102 586 127 702 176 803 c 0
 275 1007 437 1133 681 1133 c 0xac
 716 1133 770 1129 841 1122 c 2
 889 1117 l 1
 1076 1117 l 1x54
 1076 328 l 2
 1076 193 1090 84 1118 0 c 1
 924 0 l 1
 909 61 898 145 889 251 c 1x64
889 472 m 1
 889 951 l 1
 823 968 762 977 705 977 c 0
 590 977 495 933 418 844 c 0
 342 755 304 635 304 482 c 0
 304 371 325 288 366 231 c 0
 408 175 456 147 509 147 c 0
 567 147 631 176 701 235 c 0xac
 771 294 834 373 889 472 c 1
602 1614 m 1
 898 1288 l 1
 728 1288 l 1
 386 1614 l 1
 602 1614 l 1
EndSplineSet
EndChar

StartChar: acircumflex
Encoding: 226 226 107
Width: 1229
Flags: MW
HStem: -31 178<482.5 498.5> 0 21G<924 1118 924 924> 977 156<647.5 698.5 559 733.5> 1097 20G<889 1076 1076 1076>
VStem: 102 202<426.5 521.5> 889 187<472 951 951 951>
LayerCount: 2
Fore
SplineSet
889 251 m 1x64
 832 158 764 87 684 40 c 0
 605 -7 532 -31 465 -31 c 0
 372 -31 288 9 213 90 c 0
 139 171 102 293 102 457 c 0
 102 586 127 702 176 803 c 0
 275 1007 437 1133 681 1133 c 0xac
 716 1133 770 1129 841 1122 c 2
 889 1117 l 1
 1076 1117 l 1x54
 1076 328 l 2
 1076 193 1090 84 1118 0 c 1
 924 0 l 1
 909 61 898 145 889 251 c 1x64
889 472 m 1
 889 951 l 1
 823 968 762 977 705 977 c 0
 590 977 495 933 418 844 c 0
 342 755 304 635 304 482 c 0
 304 371 325 288 366 231 c 0
 408 175 456 147 509 147 c 0
 567 147 631 176 701 235 c 0xac
 771 294 834 373 889 472 c 1
843 1288 m 1
 704 1456 l 1
 564 1288 l 1
 409 1288 l 1
 642 1614 l 1
 766 1614 l 1
 999 1288 l 1
 843 1288 l 1
EndSplineSet
EndChar

StartChar: adieresis
Encoding: 228 228 108
Width: 1229
Flags: MW
HStem: -31 178<482.5 498.5> 0 21G<924 1118 924 924> 977 156<647.5 698.5 559 733.5> 1097 20G<889 1076 1076 1076> 1288 248<438.5 471.5 438.5 472 873.5 906.5>
VStem: 102 202<426.5 521.5> 889 187<472 951 951 951>
LayerCount: 2
Fore
SplineSet
889 251 m 1x62
 832 158 764 87 684 40 c 0
 605 -7 532 -31 465 -31 c 0
 372 -31 288 9 213 90 c 0
 139 171 102 293 102 457 c 0
 102 586 127 702 176 803 c 0
 275 1007 437 1133 681 1133 c 0xa6
 716 1133 770 1129 841 1122 c 2
 889 1117 l 1
 1076 1117 l 1x52
 1076 328 l 2
 1076 193 1090 84 1118 0 c 1
 924 0 l 1
 909 61 898 145 889 251 c 1x62
889 472 m 1
 889 951 l 1
 823 968 762 977 705 977 c 0
 590 977 495 933 418 844 c 0
 342 755 304 635 304 482 c 0
 304 371 325 288 366 231 c 0
 408 175 456 147 509 147 c 0
 567 147 631 176 701 235 c 0xae
 771 294 834 373 889 472 c 1
455 1288 m 0
 421 1288 392 1300 367 1324 c 0
 343 1348 331 1377 331 1412 c 0
 331 1447 343 1476 368 1500 c 0
 393 1524 422 1536 455 1536 c 0
 488 1536 517 1524 542 1500 c 0
 567 1476 579 1447 579 1412 c 0
 579 1377 567 1348 542 1324 c 0
 518 1300 489 1288 455 1288 c 0
890 1288 m 0
 856 1288 827 1300 802 1324 c 0
 777 1348 765 1377 765 1412 c 0
 765 1447 777 1476 802 1500 c 0
 827 1524 857 1536 890 1536 c 0
 923 1536 952 1524 977 1500 c 0
 1002 1476 1014 1447 1014 1412 c 0
 1014 1377 1002 1348 977 1324 c 0
 952 1300 923 1288 890 1288 c 0
EndSplineSet
EndChar

StartChar: atilde
Encoding: 227 227 109
Width: 1229
Flags: MW
HStem: -31 178<482.5 498.5> 0 21G<924 1118 924 924> 977 156<647.5 698.5 559 733.5> 1097 20G<889 1076 1076 1076> 1287 140<786 817 786 831.5> 1404 140<515.5 533.5>
VStem: 102 202<426.5 521.5> 332 125<1288 1311.5 1288 1376> 857 127<1505 1544> 889 187<472 951 951 951>
LayerCount: 2
Fore
SplineSet
889 251 m 1x6840
 832 158 764 87 684 40 c 0
 605 -7 532 -31 465 -31 c 0
 372 -31 288 9 213 90 c 0
 139 171 102 293 102 457 c 0
 102 586 127 702 176 803 c 0
 275 1007 437 1133 681 1133 c 0xaa40
 716 1133 770 1129 841 1122 c 2
 889 1117 l 1
 1076 1117 l 1x5840
 1076 328 l 2
 1076 193 1090 84 1118 0 c 1
 924 0 l 1
 909 61 898 145 889 251 c 1x6840
889 472 m 1
 889 951 l 1
 823 968 762 977 705 977 c 0
 590 977 495 933 418 844 c 0
 342 755 304 635 304 482 c 0
 304 371 325 288 366 231 c 0
 408 175 456 147 509 147 c 0
 567 147 631 176 701 235 c 0xaa40
 771 294 834 373 889 472 c 1
457 1288 m 1x6540
 332 1288 l 1
 332 1464 409 1544 513 1544 c 0
 554 1544 596 1531 639 1504 c 2x6540
 681 1479 l 2
 736 1444 775 1427 797 1427 c 0
 837 1427 857 1466 857 1544 c 1
 984 1544 l 1
 980 1476 971 1426 957 1395 c 0
 929 1332 866 1287 797 1287 c 0
 754 1287 707 1303 656 1336 c 2
 612 1364 l 1x6880
 588 1381 l 2
 565 1396 544 1404 523 1404 c 0
 508 1404 494 1396 479 1381 c 0
 464 1366 457 1335 457 1288 c 1x6540
EndSplineSet
EndChar

StartChar: aring
Encoding: 229 229 110
Width: 1229
Flags: MW
HStem: -31 178<482.5 498.5> 0 21G<924 1118 924 924> 977 156<647.5 698.5 559 733.5> 1097 20G<889 1076 1076 1076> 1288 93<631.5 683 631.5 683> 1567 93<631.5 683>
VStem: 102 202<426.5 521.5> 471 93<1449.5 1499> 750 93<1449.5 1499 1449.5 1499.5> 889 187<472 951 951 951>
LayerCount: 2
Fore
SplineSet
889 251 m 1x6c40
 832 158 764 87 684 40 c 0
 605 -7 532 -31 465 -31 c 0
 372 -31 288 9 213 90 c 0
 139 171 102 293 102 457 c 0
 102 586 127 702 176 803 c 0
 275 1007 437 1133 681 1133 c 0xae40
 716 1133 770 1129 841 1122 c 2
 889 1117 l 1
 1076 1117 l 1x5c40
 1076 328 l 2
 1076 193 1090 84 1118 0 c 1
 924 0 l 1
 909 61 898 145 889 251 c 1x6c40
889 472 m 1
 889 951 l 1
 823 968 762 977 705 977 c 0
 590 977 495 933 418 844 c 0
 342 755 304 635 304 482 c 0
 304 371 325 288 366 231 c 0
 408 175 456 147 509 147 c 0
 567 147 631 176 701 235 c 0xafc0
 771 294 834 373 889 472 c 1
657 1381 m 0
 709 1381 750 1423 750 1474 c 0
 750 1525 709 1567 657 1567 c 0
 606 1567 564 1525 564 1474 c 0
 564 1423 606 1381 657 1381 c 0
657 1288 m 0
 605 1288 561 1307 525 1344 c 0
 489 1381 471 1425 471 1474 c 0
 471 1524 489 1567 525 1604 c 0
 562 1641 606 1660 657 1660 c 0
 709 1660 753 1641 789 1604 c 0
 825 1567 843 1524 843 1474 c 0
 843 1425 825 1381 789 1344 c 0
 753 1307 709 1288 657 1288 c 0
EndSplineSet
EndChar

StartChar: ccedilla
Encoding: 231 231 111
Width: 1229
Flags: MW
HStem: -435 86<633 725> -34 21G<757 757> -34 174<757 757> -28 21G<652 652> 993 155<712 786.5 653.5 797.5>
VStem: 164 202<514.5 602.5 514.5 637.5> 744 132<-291.5 -273 -307.5 -261.5>
LayerCount: 2
Fore
SplineSet
757 -34 m 1xce
 702 -131 l 1xce
 774 -145 821 -167 843 -196 c 0
 865 -226 876 -257 876 -289 c 0
 876 -326 861 -359 831 -389 c 0
 802 -420 756 -435 694 -435 c 0
 639 -435 586 -426 535 -407 c 1
 535 -318 l 1
 574 -339 613 -349 653 -349 c 0
 677 -349 698 -342 716 -328 c 0
 735 -314 744 -299 744 -284 c 0
 744 -239 682 -210 559 -197 c 1
 652 -28 l 1x9e
 542 -9 451 28 380 84 c 0
 237 196 164 342 164 547 c 0
 164 728 220 874 333 983 c 0
 446 1093 578 1148 729 1148 c 0
 844 1148 966 1126 1095 1083 c 1
 1095 904 l 1
 965 963 849 993 746 993 c 0
 678 993 614 976 554 942 c 0
 494 909 448 856 415 785 c 0
 382 714 366 640 366 565 c 0
 366 464 397 368 460 277 c 0
 523 186 622 140 757 140 c 0
 798 140 838 143 877 148 c 0
 916 154 989 175 1095 211 c 1xae
 1095 32 l 1
 991 -5 878 -27 757 -34 c 1xce
EndSplineSet
EndChar

StartChar: eacute
Encoding: 233 233 112
Width: 1229
Flags: MW
HStem: -32 156<618.5 728.5> 528 139<341 898 341 1100 330 898> 993 155<610 689.5>
VStem: 130 200<503 528 489.5 607> 898 202<528 694 528 739.5>
LayerCount: 2
Fore
SplineSet
1084 244 m 1
 1084 74 l 1
 935 3 795 -32 662 -32 c 0
 561 -32 471 -7 392 43 c 0
 313 93 249 164 201 257 c 0
 154 350 130 450 130 556 c 0
 130 658 153 756 198 850 c 0
 243 944 307 1017 388 1069 c 0
 469 1122 560 1148 660 1148 c 0
 793 1148 899 1101 979 1006 c 0
 1060 911 1100 765 1100 568 c 2
 1100 528 l 1
 330 528 l 1
 330 451 346 380 378 316 c 0
 443 188 551 124 686 124 c 0
 806 124 939 164 1084 244 c 1
341 667 m 1
 898 667 l 1
 898 694 l 2
 898 785 876 858 831 912 c 0
 786 966 727 993 652 993 c 0
 501 993 385 882 341 667 c 1
614 1288 m 1
 444 1288 l 1
 740 1614 l 1
 956 1614 l 1
 614 1288 l 1
EndSplineSet
EndChar

StartChar: egrave
Encoding: 232 232 113
Width: 1229
Flags: MW
HStem: -32 156<618.5 728.5> 528 139<341 898 341 1100 330 898> 993 155<610 689.5>
VStem: 130 200<503 528 489.5 607> 898 202<528 694 528 739.5>
LayerCount: 2
Fore
SplineSet
1084 244 m 1
 1084 74 l 1
 935 3 795 -32 662 -32 c 0
 561 -32 471 -7 392 43 c 0
 313 93 249 164 201 257 c 0
 154 350 130 450 130 556 c 0
 130 658 153 756 198 850 c 0
 243 944 307 1017 388 1069 c 0
 469 1122 560 1148 660 1148 c 0
 793 1148 899 1101 979 1006 c 0
 1060 911 1100 765 1100 568 c 2
 1100 528 l 1
 330 528 l 1
 330 451 346 380 378 316 c 0
 443 188 551 124 686 124 c 0
 806 124 939 164 1084 244 c 1
341 667 m 1
 898 667 l 1
 898 694 l 2
 898 785 876 858 831 912 c 0
 786 966 727 993 652 993 c 0
 501 993 385 882 341 667 c 1
614 1614 m 1
 910 1288 l 1
 740 1288 l 1
 398 1614 l 1
 614 1614 l 1
EndSplineSet
EndChar

StartChar: ecircumflex
Encoding: 234 234 114
Width: 1229
Flags: MW
HStem: -32 156<618.5 728.5> 528 139<341 898 341 1100 330 898> 993 155<610 689.5>
VStem: 130 200<503 528 489.5 607> 898 202<528 694 528 739.5>
LayerCount: 2
Fore
SplineSet
1084 244 m 1
 1084 74 l 1
 935 3 795 -32 662 -32 c 0
 561 -32 471 -7 392 43 c 0
 313 93 249 164 201 257 c 0
 154 350 130 450 130 556 c 0
 130 658 153 756 198 850 c 0
 243 944 307 1017 388 1069 c 0
 469 1122 560 1148 660 1148 c 0
 793 1148 899 1101 979 1006 c 0
 1060 911 1100 765 1100 568 c 2
 1100 528 l 1
 330 528 l 1
 330 451 346 380 378 316 c 0
 443 188 551 124 686 124 c 0
 806 124 939 164 1084 244 c 1
341 667 m 1
 898 667 l 1
 898 694 l 2
 898 785 876 858 831 912 c 0
 786 966 727 993 652 993 c 0
 501 993 385 882 341 667 c 1
793 1288 m 1
 654 1456 l 1
 514 1288 l 1
 359 1288 l 1
 592 1614 l 1
 716 1614 l 1
 949 1288 l 1
 793 1288 l 1
EndSplineSet
EndChar

StartChar: edieresis
Encoding: 235 235 115
Width: 1229
Flags: MW
HStem: -32 156<618.5 728.5> 528 139<341 898 341 1100 330 898> 993 155<610 689.5> 1288 248<434.5 467.5 434.5 468 869.5 902.5>
VStem: 130 200<503 528 489.5 607> 898 202<528 694 528 739.5>
LayerCount: 2
Fore
SplineSet
1084 244 m 1
 1084 74 l 1
 935 3 795 -32 662 -32 c 0
 561 -32 471 -7 392 43 c 0
 313 93 249 164 201 257 c 0
 154 350 130 450 130 556 c 0
 130 658 153 756 198 850 c 0
 243 944 307 1017 388 1069 c 0
 469 1122 560 1148 660 1148 c 0
 793 1148 899 1101 979 1006 c 0
 1060 911 1100 765 1100 568 c 2
 1100 528 l 1
 330 528 l 1
 330 451 346 380 378 316 c 0
 443 188 551 124 686 124 c 0
 806 124 939 164 1084 244 c 1
341 667 m 1
 898 667 l 1
 898 694 l 2
 898 785 876 858 831 912 c 0
 786 966 727 993 652 993 c 0
 501 993 385 882 341 667 c 1
451 1288 m 0
 417 1288 388 1300 363 1324 c 0
 339 1348 327 1377 327 1412 c 0
 327 1447 339 1476 364 1500 c 0
 389 1524 418 1536 451 1536 c 0
 484 1536 513 1524 538 1500 c 0
 563 1476 575 1447 575 1412 c 0
 575 1377 563 1348 538 1324 c 0
 514 1300 485 1288 451 1288 c 0
886 1288 m 0
 852 1288 823 1300 798 1324 c 0
 773 1348 761 1377 761 1412 c 0
 761 1447 773 1476 798 1500 c 0
 823 1524 853 1536 886 1536 c 0
 919 1536 948 1524 973 1500 c 0
 998 1476 1010 1447 1010 1412 c 0
 1010 1377 998 1348 973 1324 c 0
 948 1300 919 1288 886 1288 c 0
EndSplineSet
EndChar

StartChar: iacute
Encoding: 237 237 116
Width: 1229
Flags: MW
HStem: 0 155<653 964 653 964> 962 155<157 467 157 653>
VStem: 467 186<155 962 962 962>
LayerCount: 2
Fore
SplineSet
964 0 m 1
 467 0 l 1
 467 962 l 1
 157 962 l 1
 157 1117 l 1
 653 1117 l 1
 653 155 l 1
 964 155 l 1
 964 0 l 1
482 1288 m 1
 312 1288 l 1
 608 1614 l 1
 824 1614 l 1
 482 1288 l 1
EndSplineSet
EndChar

StartChar: igrave
Encoding: 236 236 117
Width: 1229
Flags: MW
HStem: 0 155<653 964 653 964> 962 155<157 467 157 653>
VStem: 467 186<155 962 962 962>
LayerCount: 2
Fore
SplineSet
964 0 m 1
 467 0 l 1
 467 962 l 1
 157 962 l 1
 157 1117 l 1
 653 1117 l 1
 653 155 l 1
 964 155 l 1
 964 0 l 1
528 1614 m 1
 824 1288 l 1
 654 1288 l 1
 312 1614 l 1
 528 1614 l 1
EndSplineSet
EndChar

StartChar: icircumflex
Encoding: 238 238 118
Width: 1229
Flags: MW
HStem: 0 155<653 964 653 964> 962 155<157 467 157 653>
VStem: 467 186<155 962 962 962>
LayerCount: 2
Fore
SplineSet
964 0 m 1
 467 0 l 1
 467 962 l 1
 157 962 l 1
 157 1117 l 1
 653 1117 l 1
 653 155 l 1
 964 155 l 1
 964 0 l 1
708 1288 m 1
 569 1456 l 1
 429 1288 l 1
 274 1288 l 1
 507 1614 l 1
 631 1614 l 1
 864 1288 l 1
 708 1288 l 1
EndSplineSet
EndChar

StartChar: idieresis
Encoding: 239 239 119
Width: 1229
Flags: MW
HStem: 0 155<653 964 653 964> 962 155<157 467 157 653> 1288 248<334.5 367.5 334.5 368 769.5 802.5>
VStem: 467 186<155 962 962 962>
LayerCount: 2
Fore
SplineSet
964 0 m 1
 467 0 l 1
 467 962 l 1
 157 962 l 1
 157 1117 l 1
 653 1117 l 1
 653 155 l 1
 964 155 l 1
 964 0 l 1
351 1288 m 0
 317 1288 288 1300 263 1324 c 0
 239 1348 227 1377 227 1412 c 0
 227 1447 239 1476 264 1500 c 0
 289 1524 318 1536 351 1536 c 0
 384 1536 413 1524 438 1500 c 0
 463 1476 475 1447 475 1412 c 0
 475 1377 463 1348 438 1324 c 0
 414 1300 385 1288 351 1288 c 0
786 1288 m 0
 752 1288 723 1300 698 1324 c 0
 673 1348 661 1377 661 1412 c 0
 661 1447 673 1476 698 1500 c 0
 723 1524 753 1536 786 1536 c 0
 819 1536 848 1524 873 1500 c 0
 898 1476 910 1447 910 1412 c 0
 910 1377 898 1348 873 1324 c 0
 848 1300 819 1288 786 1288 c 0
EndSplineSet
EndChar

StartChar: ntilde
Encoding: 241 241 120
Width: 1229
Flags: MW
HStem: 0 21G<157 343 157 157 902 902 902 1088> 977 171<724.5 771.5> 1097 20G<157 343 343 343> 1287 140<759 790 759 804.5> 1404 140<488.5 506.5>
VStem: 157 186<0 651 873 1117> 305 125<1288 1311.5 1288 1376> 830 127<1505 1544> 902 186<0 624 0 647 0 700.5>
LayerCount: 2
Fore
SplineSet
343 0 m 1xb480
 157 0 l 1
 157 1117 l 1
 343 1117 l 1xb480
 343 873 l 1
 396 959 461 1026 536 1075 c 0
 611 1124 687 1148 762 1148 c 0
 828 1148 888 1130 942 1095 c 0
 996 1060 1034 1015 1055 958 c 0
 1077 901 1088 790 1088 624 c 2
 1088 0 l 1
 902 0 l 1
 902 647 l 2
 902 754 897 825 886 859 c 0
 866 928 804 977 739 977 c 0
 674 977 603 946 528 884 c 0xd480
 453 822 392 744 343 651 c 1
 343 0 l 1xb480
430 1288 m 1xaa80
 305 1288 l 1
 305 1464 382 1544 486 1544 c 0
 527 1544 569 1531 612 1504 c 2xaa80
 654 1479 l 2
 709 1444 748 1427 770 1427 c 0
 810 1427 830 1466 830 1544 c 1
 957 1544 l 1
 953 1476 944 1426 930 1395 c 0
 902 1332 839 1287 770 1287 c 0
 727 1287 680 1303 629 1336 c 2
 585 1364 l 1xb5
 561 1381 l 2
 538 1396 517 1404 496 1404 c 0
 481 1404 467 1396 452 1381 c 0
 437 1366 430 1335 430 1288 c 1xaa80
EndSplineSet
EndChar

StartChar: oacute
Encoding: 243 243 121
Width: 1229
Flags: MW
HStem: -31 155<565 664.5 565 694.5> 993 155<565 664.5>
VStem: 87 202<491.5 626.5 491.5 644> 940 202<491.5 626.5>
LayerCount: 2
Fore
SplineSet
615 -31 m 0
 455 -31 327 25 231 136 c 0
 135 248 87 389 87 559 c 0
 87 729 135 870 231 981 c 0
 327 1092 455 1148 615 1148 c 0
 774 1148 902 1092 998 981 c 0
 1094 870 1142 729 1142 559 c 0
 1142 389 1094 248 998 136 c 0
 902 25 774 -31 615 -31 c 0
615 124 m 0
 714 124 793 163 852 240 c 0
 911 317 940 424 940 559 c 0
 940 694 911 800 852 877 c 0
 793 954 714 993 615 993 c 0
 515 993 436 954 377 877 c 0
 318 800 289 694 289 559 c 0
 289 424 318 317 377 240 c 0
 436 163 515 124 615 124 c 0
529 1288 m 1
 359 1288 l 1
 655 1614 l 1
 871 1614 l 1
 529 1288 l 1
EndSplineSet
EndChar

StartChar: ograve
Encoding: 242 242 122
Width: 1229
Flags: MW
HStem: -31 155<565 664.5 565 694.5> 993 155<565 664.5>
VStem: 87 202<491.5 626.5 491.5 644> 940 202<491.5 626.5>
LayerCount: 2
Fore
SplineSet
615 -31 m 0
 455 -31 327 25 231 136 c 0
 135 248 87 389 87 559 c 0
 87 729 135 870 231 981 c 0
 327 1092 455 1148 615 1148 c 0
 774 1148 902 1092 998 981 c 0
 1094 870 1142 729 1142 559 c 0
 1142 389 1094 248 998 136 c 0
 902 25 774 -31 615 -31 c 0
615 124 m 0
 714 124 793 163 852 240 c 0
 911 317 940 424 940 559 c 0
 940 694 911 800 852 877 c 0
 793 954 714 993 615 993 c 0
 515 993 436 954 377 877 c 0
 318 800 289 694 289 559 c 0
 289 424 318 317 377 240 c 0
 436 163 515 124 615 124 c 0
575 1614 m 1
 871 1288 l 1
 701 1288 l 1
 359 1614 l 1
 575 1614 l 1
EndSplineSet
EndChar

StartChar: ocircumflex
Encoding: 244 244 123
Width: 1229
Flags: MW
HStem: -31 155<565 664.5 565 694.5> 993 155<565 664.5>
VStem: 87 202<491.5 626.5 491.5 644> 940 202<491.5 626.5>
LayerCount: 2
Fore
SplineSet
615 -31 m 0
 455 -31 327 25 231 136 c 0
 135 248 87 389 87 559 c 0
 87 729 135 870 231 981 c 0
 327 1092 455 1148 615 1148 c 0
 774 1148 902 1092 998 981 c 0
 1094 870 1142 729 1142 559 c 0
 1142 389 1094 248 998 136 c 0
 902 25 774 -31 615 -31 c 0
615 124 m 0
 714 124 793 163 852 240 c 0
 911 317 940 424 940 559 c 0
 940 694 911 800 852 877 c 0
 793 954 714 993 615 993 c 0
 515 993 436 954 377 877 c 0
 318 800 289 694 289 559 c 0
 289 424 318 317 377 240 c 0
 436 163 515 124 615 124 c 0
754 1288 m 1
 615 1456 l 1
 475 1288 l 1
 320 1288 l 1
 553 1614 l 1
 677 1614 l 1
 910 1288 l 1
 754 1288 l 1
EndSplineSet
EndChar

StartChar: odieresis
Encoding: 246 246 124
Width: 1229
Flags: MW
HStem: -31 155<565 664.5 565 694.5> 993 155<565 664.5> 1288 248<380.5 413.5 380.5 414 815.5 848.5>
VStem: 87 202<491.5 626.5 491.5 644> 940 202<491.5 626.5>
LayerCount: 2
Fore
SplineSet
615 -31 m 0
 455 -31 327 25 231 136 c 0
 135 248 87 389 87 559 c 0
 87 729 135 870 231 981 c 0
 327 1092 455 1148 615 1148 c 0
 774 1148 902 1092 998 981 c 0
 1094 870 1142 729 1142 559 c 0
 1142 389 1094 248 998 136 c 0
 902 25 774 -31 615 -31 c 0
615 124 m 0
 714 124 793 163 852 240 c 0
 911 317 940 424 940 559 c 0
 940 694 911 800 852 877 c 0
 793 954 714 993 615 993 c 0
 515 993 436 954 377 877 c 0
 318 800 289 694 289 559 c 0
 289 424 318 317 377 240 c 0
 436 163 515 124 615 124 c 0
397 1288 m 0
 363 1288 334 1300 309 1324 c 0
 285 1348 273 1377 273 1412 c 0
 273 1447 285 1476 310 1500 c 0
 335 1524 364 1536 397 1536 c 0
 430 1536 459 1524 484 1500 c 0
 509 1476 521 1447 521 1412 c 0
 521 1377 509 1348 484 1324 c 0
 460 1300 431 1288 397 1288 c 0
832 1288 m 0
 798 1288 769 1300 744 1324 c 0
 719 1348 707 1377 707 1412 c 0
 707 1447 719 1476 744 1500 c 0
 769 1524 799 1536 832 1536 c 0
 865 1536 894 1524 919 1500 c 0
 944 1476 956 1447 956 1412 c 0
 956 1377 944 1348 919 1324 c 0
 894 1300 865 1288 832 1288 c 0
EndSplineSet
EndChar

StartChar: otilde
Encoding: 245 245 125
Width: 1229
Flags: MW
HStem: -31 155<565 664.5 565 694.5> 993 155<565 664.5> 1287 140<743 774 743 788.5> 1404 140<472.5 490.5>
VStem: 87 202<491.5 626.5 491.5 644> 289 125<1288 1311.5 1288 1376> 814 127<1505 1544> 940 202<491.5 626.5>
LayerCount: 2
Fore
SplineSet
615 -31 m 0xe9
 455 -31 327 25 231 136 c 0
 135 248 87 389 87 559 c 0
 87 729 135 870 231 981 c 0
 327 1092 455 1148 615 1148 c 0
 774 1148 902 1092 998 981 c 0
 1094 870 1142 729 1142 559 c 0
 1142 389 1094 248 998 136 c 0
 902 25 774 -31 615 -31 c 0xe9
615 124 m 0
 714 124 793 163 852 240 c 0
 911 317 940 424 940 559 c 0
 940 694 911 800 852 877 c 0
 793 954 714 993 615 993 c 0
 515 993 436 954 377 877 c 0
 318 800 289 694 289 559 c 0
 289 424 318 317 377 240 c 0
 436 163 515 124 615 124 c 0
414 1288 m 1xe5
 289 1288 l 1
 289 1464 366 1544 470 1544 c 0
 511 1544 553 1531 596 1504 c 2xd5
 638 1479 l 2
 693 1444 732 1427 754 1427 c 0
 794 1427 814 1466 814 1544 c 1
 941 1544 l 1
 937 1476 928 1426 914 1395 c 0
 886 1332 823 1287 754 1287 c 0
 711 1287 664 1303 613 1336 c 2
 569 1364 l 1xea
 545 1381 l 2
 522 1396 501 1404 480 1404 c 0
 465 1404 451 1396 436 1381 c 0xd5
 421 1366 414 1335 414 1288 c 1xe5
EndSplineSet
EndChar

StartChar: uacute
Encoding: 250 250 126
Width: 1229
Flags: MW
HStem: -31 171<459 523.5 459 541.5> 0 21G<888 1074 888 888> 1097 20G<143 329 329 329 888 1074 1074 1074>
VStem: 143 186<493 1117> 888 186<0 245 245 245 466 1117 0 1117>
LayerCount: 2
Fore
SplineSet
888 1117 m 1xb8
 1074 1117 l 1
 1074 0 l 1
 888 0 l 1x78
 888 245 l 1
 768 61 615 -31 468 -31 c 0
 403 -31 343 -14 288 21 c 0
 234 56 196 102 175 159 c 0
 154 216 143 328 143 493 c 2
 143 1117 l 1
 329 1117 l 1
 329 470 l 2
 329 363 334 292 344 257 c 0
 365 189 427 140 491 140 c 0
 556 140 626 171 701 232 c 0
 776 294 839 372 888 466 c 1
 888 1117 l 1xb8
577 1288 m 1
 407 1288 l 1
 703 1614 l 1
 919 1614 l 1
 577 1288 l 1
EndSplineSet
EndChar

StartChar: ugrave
Encoding: 249 249 127
Width: 1229
Flags: MW
HStem: -31 171<459 523.5 459 541.5> 0 21G<888 1074 888 888> 1097 20G<143 329 329 329 888 1074 1074 1074>
VStem: 143 186<493 1117> 888 186<0 245 245 245 466 1117 0 1117>
LayerCount: 2
Fore
SplineSet
888 1117 m 1xb8
 1074 1117 l 1
 1074 0 l 1
 888 0 l 1x78
 888 245 l 1
 768 61 615 -31 468 -31 c 0
 403 -31 343 -14 288 21 c 0
 234 56 196 102 175 159 c 0
 154 216 143 328 143 493 c 2
 143 1117 l 1
 329 1117 l 1
 329 470 l 2
 329 363 334 292 344 257 c 0
 365 189 427 140 491 140 c 0
 556 140 626 171 701 232 c 0
 776 294 839 372 888 466 c 1
 888 1117 l 1xb8
576 1614 m 1
 872 1288 l 1
 702 1288 l 1
 360 1614 l 1
 576 1614 l 1
EndSplineSet
EndChar

StartChar: ucircumflex
Encoding: 251 251 128
Width: 1229
Flags: MW
HStem: -31 171<459 523.5 459 541.5> 0 21G<888 1074 888 888> 1097 20G<143 329 329 329 888 1074 1074 1074>
VStem: 143 186<493 1117> 888 186<0 245 245 245 466 1117 0 1117>
LayerCount: 2
Fore
SplineSet
888 1117 m 1xb8
 1074 1117 l 1
 1074 0 l 1
 888 0 l 1x78
 888 245 l 1
 768 61 615 -31 468 -31 c 0
 403 -31 343 -14 288 21 c 0
 234 56 196 102 175 159 c 0
 154 216 143 328 143 493 c 2
 143 1117 l 1
 329 1117 l 1
 329 470 l 2
 329 363 334 292 344 257 c 0
 365 189 427 140 491 140 c 0
 556 140 626 171 701 232 c 0
 776 294 839 372 888 466 c 1
 888 1117 l 1xb8
756 1288 m 1
 617 1456 l 1
 477 1288 l 1
 322 1288 l 1
 555 1614 l 1
 679 1614 l 1
 912 1288 l 1
 756 1288 l 1
EndSplineSet
EndChar

StartChar: udieresis
Encoding: 252 252 129
Width: 1229
Flags: MW
HStem: -31 171<459 523.5 459 541.5> 0 21G<888 1074 888 888> 1097 20G<143 329 329 329 888 1074 1074 1074> 1288 248<382.5 415.5 382.5 416 817.5 850.5>
VStem: 143 186<493 1117> 888 186<0 245 245 245 466 1117 0 1117>
LayerCount: 2
Fore
SplineSet
888 1117 m 1xac
 1074 1117 l 1
 1074 0 l 1
 888 0 l 1x7c
 888 245 l 1
 768 61 615 -31 468 -31 c 0
 403 -31 343 -14 288 21 c 0
 234 56 196 102 175 159 c 0
 154 216 143 328 143 493 c 2
 143 1117 l 1
 329 1117 l 1
 329 470 l 2
 329 363 334 292 344 257 c 0
 365 189 427 140 491 140 c 0
 556 140 626 171 701 232 c 0
 776 294 839 372 888 466 c 1
 888 1117 l 1xac
399 1288 m 0
 365 1288 336 1300 311 1324 c 0
 287 1348 275 1377 275 1412 c 0
 275 1447 287 1476 312 1500 c 0
 337 1524 366 1536 399 1536 c 0
 432 1536 461 1524 486 1500 c 0
 511 1476 523 1447 523 1412 c 0
 523 1377 511 1348 486 1324 c 0
 462 1300 433 1288 399 1288 c 0
834 1288 m 0
 800 1288 771 1300 746 1324 c 0
 721 1348 709 1377 709 1412 c 0
 709 1447 721 1476 746 1500 c 0
 771 1524 801 1536 834 1536 c 0
 867 1536 896 1524 921 1500 c 0
 946 1476 958 1447 958 1412 c 0
 958 1377 946 1348 921 1324 c 0
 896 1300 867 1288 834 1288 c 0
EndSplineSet
EndChar

StartChar: dagger
Encoding: 8224 8224 130
Width: 1229
Flags: MW
HStem: 1124 20G<537 537 695 695> 1532 20G<503 729 729 729>
VStem: 520 192
LayerCount: 2
Fore
SplineSet
695 989 m 1
 729 -372 l 1
 503 -372 l 1
 537 989 l 1
 180 962 l 1
 180 1176 l 1
 537 1144 l 1
 503 1552 l 1
 729 1552 l 1
 695 1144 l 1
 1049 1176 l 1
 1049 962 l 1
 695 989 l 1
EndSplineSet
EndChar

StartChar: degree
Encoding: 176 176 131
Width: 1229
Flags: MW
HStem: 1055 93<589.5 640 589.5 652.5> 1505 93<590.5 639.5>
VStem: 343 93<1302.5 1350.5 1302.5 1363.5> 793 93<1302.5 1350.5>
LayerCount: 2
Fore
SplineSet
615 1055 m 0
 539 1055 475 1082 422 1135 c 0
 369 1189 343 1253 343 1326 c 0
 343 1401 370 1465 423 1518 c 0
 477 1571 541 1598 615 1598 c 0
 689 1598 753 1571 806 1518 c 0
 859 1465 886 1401 886 1326 c 0
 886 1253 860 1189 807 1135 c 0
 754 1082 690 1055 615 1055 c 0
615 1148 m 0
 665 1148 707 1166 741 1202 c 0
 776 1238 793 1279 793 1326 c 0
 793 1375 775 1417 740 1452 c 0
 705 1487 664 1505 615 1505 c 0
 566 1505 523 1487 488 1452 c 0
 453 1417 436 1375 436 1326 c 0
 436 1279 453 1238 487 1202 c 0
 522 1166 564 1148 615 1148 c 0
EndSplineSet
EndChar

StartChar: cent
Encoding: 162 162 132
Width: 1229
Flags: MW
HStem: -155 1862<607 762 607 762> 191 146<762 762>
VStem: 118 202<723 814.5 723 818> 607 155<-155 191 345 1195 1195 1195 1353 1707>
LayerCount: 2
Fore
SplineSet
762 -155 m 1x90
 607 -155 l 1
 607 191 l 1
 508 203 422 235 351 287 c 0
 210 391 118 558 118 766 c 0
 118 870 138 962 177 1043 c 0
 256 1204 391 1314 607 1353 c 1
 607 1707 l 1
 762 1707 l 1
 762 1353 l 1
 873 1340 968 1322 1049 1297 c 1
 1049 1118 l 1
 973 1158 889 1190 762 1203 c 1
 762 337 l 1
 815 343 856 350 885 358 c 0
 914 366 957 383 1015 410 c 2
 1049 426 l 1
 1049 246 l 1
 950 213 854 195 762 191 c 1x70
 762 -155 l 1x90
607 345 m 1
 607 1195 l 1
 504 1163 431 1108 386 1030 c 0
 342 952 320 864 320 765 c 0
 320 681 340 598 380 515 c 0
 420 433 496 376 607 345 c 1
EndSplineSet
EndChar

StartChar: sterling
Encoding: 163 163 133
Width: 1229
Flags: MW
HStem: 0 171<402 1111 141 141> 768 155<141 366 141 366 552 878> 1443 155<746 807>
VStem: 366 186<588.5 651 651 768 588.5 768 923 992 992 1002>
LayerCount: 2
Fore
SplineSet
1111 0 m 1
 141 0 l 1
 141 171 l 1
 203 185 248 206 277 233 c 0
 336 289 366 393 366 557 c 2
 366 768 l 1
 141 768 l 1
 141 923 l 1
 366 923 l 1
 366 992 l 2
 366 1169 383 1296 417 1372 c 0
 485 1524 612 1598 787 1598 c 0
 870 1598 957 1579 1049 1540 c 1
 1049 1360 l 1
 944 1415 849 1443 765 1443 c 0
 727 1443 690 1430 655 1405 c 0
 620 1380 594 1342 577 1291 c 0
 560 1240 552 1143 552 1002 c 2
 552 923 l 1
 878 923 l 1
 878 768 l 1
 552 768 l 1
 552 651 l 2
 552 526 545 431 530 366 c 0
 515 301 473 236 402 171 c 1
 1111 171 l 1
 1111 0 l 1
EndSplineSet
EndChar

StartChar: section
Encoding: 167 167 134
Width: 1229
Flags: MW
HStem: -372 155<546.5 627.5 546.5 677.5> 1443 155<658 675>
VStem: 172 186<709 748.5 709 748.5> 188 201<1186 1291> 886 202<-29.5 -5.5> 933 170<486.5 529>
LayerCount: 2
Fore
SplineSet
149 -301 m 1xd4
 149 -100 l 1
 217 -137 290 -165 367 -186 c 0
 445 -207 515 -217 578 -217 c 0
 677 -217 753 -197 806 -156 c 0
 859 -115 886 -72 886 -25 c 0
 886 14 873 48 847 77 c 0
 820 106 763 145 676 194 c 2
 529 277 l 2
 398 350 306 420 252 486 c 0
 199 552 172 621 172 694 c 0xe8
 172 803 220 901 317 990 c 1
 232 1054 188 1136 188 1236 c 0
 193 1428 349 1602 658 1598 c 0
 757 1598 869 1579 995 1541 c 1
 995 1363 l 1
 954 1384 899 1403 830 1419 c 0
 761 1435 701 1443 649 1443 c 0
 558 1443 492 1425 451 1389 c 0
 410 1353 389 1313 389 1269 c 0
 389 1222 412 1181 459 1144 c 0
 505 1107 547 1078 585 1055 c 2
 648 1020 l 1
 797 932 l 2
 926 856 1009 789 1047 732 c 0
 1084 674 1103 610 1103 541 c 0xd4
 1103 432 1055 333 959 244 c 1
 1020 193 1057 148 1069 108 c 0
 1082 68 1088 33 1088 2 c 0
 1088 -61 1066 -123 1021 -185 c 0xd8
 933 -310 784 -372 571 -372 c 0
 424 -372 284 -348 149 -301 c 1xd4
666 416 m 2
 833 319 l 1
 900 372 933 434 933 505 c 0
 933 553 911 600 868 645 c 0xd4
 825 691 776 730 720 762 c 2
 626 815 l 1
 442 920 l 1
 403 876 380 840 371 813 c 0
 362 786 358 761 358 736 c 0
 358 682 376 634 413 592 c 0
 450 551 534 492 666 416 c 2
EndSplineSet
EndChar

StartChar: bullet
Encoding: 8226 8226 135
Width: 1229
Flags: MW
HStem: 248 1034<569.5 660>
VStem: 98 1032<717.5 811>
LayerCount: 2
Fore
SplineSet
615 248 m 0
 524 248 438 270 359 314 c 0
 280 359 217 421 169 502 c 0
 122 583 98 670 98 765 c 0
 98 857 121 943 167 1023 c 0
 213 1103 276 1166 357 1212 c 0
 438 1259 524 1282 615 1282 c 0
 705 1282 790 1259 871 1212 c 0
 952 1166 1015 1103 1061 1023 c 0
 1107 943 1130 857 1130 765 c 0
 1130 670 1106 583 1058 502 c 0
 1011 421 947 359 868 314 c 0
 789 270 705 248 615 248 c 0
EndSplineSet
EndChar

StartChar: paragraph
Encoding: 182 182 136
Width: 1229
Flags: MW
HStem: 1396 156<708 863 708 708 1018 1181 1018 1018>
VStem: 552 156<-372 683 683 683> 863 155<-372 1396 -372 1396>
LayerCount: 2
Fore
SplineSet
708 -372 m 1
 552 -372 l 1
 552 683 l 1
 395 699 279 749 202 833 c 0
 125 918 87 1015 87 1124 c 0
 87 1199 106 1270 143 1339 c 0
 180 1408 232 1460 299 1497 c 0
 366 1534 481 1552 644 1552 c 2
 1181 1552 l 1
 1181 1396 l 1
 1018 1396 l 1
 1018 -372 l 1
 863 -372 l 1
 863 1396 l 1
 708 1396 l 1
 708 -372 l 1
EndSplineSet
EndChar

StartChar: germandbls
Encoding: 223 223 137
Width: 1229
Flags: MW
HStem: -31 155<724.5 751.5 716.5 795.5> 0 21G<130 316 130 130 479 479> 1489 156<551 594>
VStem: 130 186<0 1122> 425 194<826.5 919.5> 758 202<1347.5 1384.5> 952 187<255.5 303.5>
LayerCount: 2
Fore
SplineSet
316 0 m 1x7c
 130 0 l 1
 130 1122 l 2
 130 1254 149 1355 187 1425 c 0
 264 1566 403 1645 598 1645 c 0
 725 1645 817 1615 874 1555 c 0
 931 1496 960 1433 960 1368 c 0
 960 1327 948 1286 925 1246 c 0x7c
 902 1207 856 1157 787 1098 c 2
 719 1040 l 2
 706 1029 686 1010 659 984 c 0
 632 959 619 933 619 906 c 0
 619 887 623 871 631 858 c 0
 639 845 663 824 702 795 c 2
 766 748 l 1
 892 661 l 2
 963 613 1022 561 1069 504 c 0
 1116 447 1139 381 1139 304 c 0
 1139 207 1101 126 1026 63 c 0
 951 0 854 -31 737 -31 c 0
 712 -31 681 -30 646 -27 c 0
 611 -25 583 -23 563 -20 c 0xba
 544 -17 516 -11 479 0 c 1x7c
 479 185 l 1
 519 168 553 155 581 148 c 0
 637 135 698 124 735 124 c 0
 768 124 803 130 840 142 c 0
 913 166 952 227 952 283 c 0
 952 324 936 365 904 405 c 0xba
 871 445 817 490 741 541 c 2
 621 621 l 2
 498 704 425 777 425 876 c 0
 425 913 435 949 454 984 c 0
 474 1019 518 1068 585 1130 c 2
 644 1185 l 2
 708 1244 758 1300 758 1363 c 0
 758 1406 737 1438 696 1458 c 0
 655 1479 614 1489 574 1489 c 0
 528 1489 485 1478 446 1455 c 0
 407 1433 376 1399 352 1353 c 0
 328 1308 316 1231 316 1122 c 2
 316 0 l 1x7c
EndSplineSet
EndChar

StartChar: registered
Encoding: 174 174 138
Width: 1229
Flags: MW
HStem: -47 125<572.5 657.5 572.5 744.5> 718 111<494 576 494 610> 1143 110<494 494 494 539> 1474 124<571.5 657.5>
VStem: 2 124<711 838.5 711 853.5> 355 139<339 718 339 829 829 1143> 737 139<992 1035.5> 1104 124<711.5 840>
LayerCount: 2
Fore
SplineSet
615 -47 m 0
 486 -47 378 -13 292 54 c 0
 206 121 136 218 82 345 c 0
 29 472 2 615 2 776 c 0
 2 931 27 1070 76 1194 c 0
 126 1318 195 1416 282 1489 c 0
 370 1562 481 1598 615 1598 c 0
 744 1598 852 1564 938 1496 c 0
 1025 1428 1095 1331 1148 1205 c 0
 1201 1079 1228 936 1228 776 c 0
 1228 615 1201 472 1147 345 c 0
 1040 92 874 -47 615 -47 c 0
615 78 m 0
 700 78 780 105 855 158 c 0
 930 212 990 296 1035 411 c 0
 1081 526 1104 647 1104 776 c 0
 1104 904 1081 1026 1035 1141 c 0
 989 1256 929 1341 854 1394 c 0
 779 1447 700 1474 615 1474 c 0
 528 1474 447 1446 371 1390 c 0
 296 1335 236 1250 192 1135 c 0
 148 1021 126 901 126 776 c 0
 126 646 149 523 196 407 c 0
 243 291 303 207 377 155 c 0
 451 104 530 78 615 78 c 0
576 718 m 1
 494 718 l 1
 494 339 l 1
 355 339 l 1
 355 1253 l 1
 575 1253 l 2
 692 1253 772 1231 813 1188 c 0
 855 1145 876 1097 876 1042 c 0
 876 942 822 831 702 763 c 1
 938 339 l 1
 772 339 l 1
 576 718 l 1
494 1143 m 1
 494 829 l 1
 610 829 l 1
 695 877 737 939 737 1016 c 0
 737 1055 723 1086 695 1109 c 0
 668 1132 616 1143 539 1143 c 2
 494 1143 l 1
EndSplineSet
EndChar

StartChar: copyright
Encoding: 169 169 139
Width: 1229
Flags: MW
HStem: -47 125<572.5 657.5 572.5 744.5> 248 140<680 721.5> 1149 154<631.5 694> 1474 124<571.5 657.5>
VStem: 2 124<711 838.5 711 853.5> 227 171<775 823.5> 1104 124<711.5 840>
LayerCount: 2
Fore
SplineSet
615 -47 m 0
 486 -47 378 -13 292 54 c 0
 206 121 136 218 82 345 c 0
 29 472 2 615 2 776 c 0
 2 931 27 1070 76 1194 c 0
 126 1318 195 1416 282 1489 c 0
 370 1562 481 1598 615 1598 c 0
 744 1598 852 1564 938 1496 c 0
 1025 1428 1095 1331 1148 1205 c 0
 1201 1079 1228 936 1228 776 c 0
 1228 615 1201 472 1147 345 c 0
 1040 92 874 -47 615 -47 c 0
615 78 m 0
 700 78 780 105 855 158 c 0
 930 212 990 296 1035 411 c 0
 1081 526 1104 647 1104 776 c 0
 1104 904 1081 1026 1035 1141 c 0
 989 1256 929 1341 854 1394 c 0
 779 1447 700 1474 615 1474 c 0
 528 1474 447 1446 371 1390 c 0
 296 1335 236 1250 192 1135 c 0
 148 1021 126 901 126 776 c 0
 126 646 149 523 196 407 c 0
 243 291 303 207 377 155 c 0
 451 104 530 78 615 78 c 0
894 433 m 1
 894 281 l 1
 834 259 763 248 680 248 c 0
 422 244 226 485 227 775 c 0
 227 872 246 962 284 1044 c 0
 361 1208 484 1303 665 1303 c 0
 733 1303 809 1292 894 1271 c 1
 894 1112 l 1
 816 1136 714 1149 674 1149 c 0
 589 1149 522 1115 472 1046 c 0
 423 977 398 886 398 773 c 0
 398 648 427 553 485 487 c 0
 544 421 615 388 700 388 c 0
 755 388 819 403 894 433 c 1
EndSplineSet
EndChar

StartChar: trademark
Encoding: 8482 8482 140
Width: 1229
Flags: MW
HStem: 1439 113<2 225 2 577 353 353 353 577>
VStem: 225 128<776 1439> 638 106<776 1254 776 1552> 1107 121<776 1253 1253 1253>
LayerCount: 2
Fore
SplineSet
353 776 m 1
 225 776 l 1
 225 1439 l 1
 2 1439 l 1
 2 1552 l 1
 577 1552 l 1
 577 1439 l 1
 353 1439 l 1
 353 776 l 1
867 925 m 1
 744 1254 l 1
 744 776 l 1
 638 776 l 1
 638 1552 l 1
 763 1552 l 1
 933 1088 l 1
 1105 1552 l 1
 1228 1552 l 1
 1228 776 l 1
 1107 776 l 1
 1107 1253 l 1
 986 925 l 1
 867 925 l 1
EndSplineSet
EndChar

StartChar: acute
Encoding: 180 180 141
Width: 1229
Flags: MW
HStem: 1288 326<320 832 320 832>
VStem: 320 512<1288 1614>
LayerCount: 2
Fore
SplineSet
490 1288 m 1
 320 1288 l 1
 616 1614 l 1
 832 1614 l 1
 490 1288 l 1
EndSplineSet
EndChar

StartChar: dieresis
Encoding: 168 168 142
Width: 1229
Flags: MW
HStem: 1288 248<380.5 413.5 380.5 414 815.5 848.5>
VStem: 273 683<1394.5 1429.5>
LayerCount: 2
Fore
SplineSet
397 1288 m 0
 363 1288 334 1300 309 1324 c 0
 285 1348 273 1377 273 1412 c 0
 273 1447 285 1476 310 1500 c 0
 335 1524 364 1536 397 1536 c 0
 430 1536 459 1524 484 1500 c 0
 509 1476 521 1447 521 1412 c 0
 521 1377 509 1348 484 1324 c 0
 460 1300 431 1288 397 1288 c 0
832 1288 m 0
 798 1288 769 1300 744 1324 c 0
 719 1348 707 1377 707 1412 c 0
 707 1447 719 1476 744 1500 c 0
 769 1524 799 1536 832 1536 c 0
 865 1536 894 1524 919 1500 c 0
 944 1476 956 1447 956 1412 c 0
 956 1377 944 1348 919 1324 c 0
 894 1300 865 1288 832 1288 c 0
EndSplineSet
EndChar

StartChar: notequal_old
Encoding: 65537 -1 143
Width: 1229
Flags: MW
HStem: 287 140<71 302 71 413 614 1157 71 503> 652 139<71 596 71 712 71 798 915 1157>
VStem: 71 1086<287 427 287 427 652 791 287 791>
LayerCount: 2
Fore
SplineSet
614 427 m 1
 1157 427 l 1
 1157 287 l 1
 503 287 l 1
 347 101 l 1
 147 101 l 1
 302 287 l 1
 71 287 l 1
 71 427 l 1
 413 427 l 1
 596 652 l 1
 71 652 l 1
 71 791 l 1
 712 791 l 1
 862 977 l 1
 1067 977 l 1
 915 791 l 1
 1157 791 l 1
 1157 652 l 1
 798 652 l 1
 614 427 l 1
EndSplineSet
EndChar

StartChar: AE
Encoding: 198 198 144
Width: 1229
Flags: MW
HStem: 0 171<824 1181 824 1181> 372 140<381 638 381 638 324 638> 706 155<824 1166 824 1166> 1396 156<824 1181 824 824>
VStem: 638 186<171 372 372 372 512 706 861 1134 1134 1134>
LayerCount: 2
Fore
SplineSet
1181 0 m 1
 638 0 l 1
 638 372 l 1
 324 372 l 1
 172 0 l 1
 2 0 l 1
 638 1552 l 1
 1181 1552 l 1
 1181 1396 l 1
 824 1396 l 1
 824 861 l 1
 1166 861 l 1
 1166 706 l 1
 824 706 l 1
 824 171 l 1
 1181 171 l 1
 1181 0 l 1
638 1134 m 1
 381 512 l 1
 638 512 l 1
 638 1134 l 1
EndSplineSet
EndChar

StartChar: Oslash
Encoding: 216 216 145
Width: 1229
Flags: MW
HStem: -47 156<576.5 667 572.5 668.5> 1443 155<562.5 627 528 632.5>
VStem: 71 202<773 890.5 773 917.5> 955 202<682 794.5>
LayerCount: 2
Fore
SplineSet
306 69 m 1
 209 -109 l 1
 71 -109 l 1
 219 167 l 1
 177 234 147 297 129 356 c 0
 93 476 71 624 71 785 c 0
 71 1050 120 1252 218 1390 c 0
 317 1529 447 1598 609 1598 c 0
 645 1598 682 1594 720 1586 c 0
 759 1579 793 1569 823 1556 c 0
 853 1543 889 1521 931 1488 c 1
 1024 1660 l 1
 1157 1660 l 1
 1015 1387 l 1
 1056 1318 1085 1257 1102 1202 c 0
 1119 1147 1133 1080 1142 1000 c 0
 1152 921 1157 842 1157 765 c 0
 1157 599 1135 454 1090 329 c 0
 1046 204 986 110 910 47 c 0
 835 -16 733 -47 604 -47 c 0
 549 -47 501 -41 460 -28 c 0
 419 -15 368 17 306 69 c 1
321 360 m 1
 846 1329 l 1
 805 1378 765 1409 726 1422 c 0
 688 1436 651 1443 614 1443 c 0
 511 1443 429 1385 366 1268 c 0
 304 1152 273 992 273 789 c 0
 273 757 274 708 276 642 c 0
 278 577 282 527 287 493 c 0
 293 459 304 415 321 360 c 1
911 1195 m 1
 390 225 l 1
 461 137 536 109 609 109 c 0
 725 109 812 170 869 293 c 0
 926 416 955 578 955 777 c 0
 955 812 954 858 952 915 c 0
 950 972 946 1019 941 1055 c 0
 936 1092 926 1138 911 1195 c 1
EndSplineSet
EndChar

StartChar: infinity
Encoding: 8734 8734 146
Width: 1229
Flags: MW
HStem: 201 171<903 931 903 961.5> 202 124<307.5 345 307.5 353> 737 179<296 325.5> 792 123<883 914.5>
VStem: 71 128<512.5 570 512.5 579.5> 1030 127<532.5 586.5 532.5 596>
LayerCount: 2
Fore
SplineSet
656 396 m 2x5c
 615 448 l 1
 589 404 l 2
 535 317 490 262 453 238 c 0
 417 214 376 202 330 202 c 0
 252 202 189 237 142 307 c 0
 95 377 71 458 71 550 c 0
 71 609 82 667 103 724 c 0
 147 839 220 916 311 916 c 0
 354 916 396 897 439 858 c 0x6c
 482 820 530 771 581 710 c 2
 615 668 l 1
 646 737 684 796 729 843 c 0
 775 891 830 915 893 915 c 0
 942 915 987 900 1028 870 c 0
 1069 840 1100 795 1123 734 c 0
 1146 673 1157 615 1157 558 c 0
 1157 507 1146 451 1124 389 c 0
 1080 265 1005 201 918 201 c 0x9c
 834 201 759 268 656 396 c 2x5c
531 546 m 1
 486 601 l 1
 451 638 l 1
 418 673 l 2
 377 716 341 737 310 737 c 0
 282 737 256 718 233 681 c 0
 210 644 199 598 199 542 c 0
 199 483 210 433 232 390 c 0
 255 347 287 326 328 326 c 0
 362 326 393 341 421 371 c 0
 450 402 486 460 531 546 c 1
698 572 m 1
 729 532 l 1
 769 488 l 1
 813 439 l 2
 853 394 888 372 918 372 c 0
 944 372 969 389 993 423 c 0
 1018 457 1030 503 1030 562 c 0
 1030 630 1018 685 993 728 c 0
 968 771 935 792 894 792 c 0
 872 792 851 784 831 769 c 0
 812 754 792 732 773 703 c 0x9c
 754 674 729 631 698 572 c 1
EndSplineSet
EndChar

StartChar: plusminus
Encoding: 177 177 147
Width: 1229
Flags: MW
HStem: 0 155<71 1157 71 1157> 776 155<71 536 71 536 692 1157>
VStem: 536 156<310 776 310 776 931 1396>
LayerCount: 2
Fore
SplineSet
692 931 m 1
 1157 931 l 1
 1157 776 l 1
 692 776 l 1
 692 310 l 1
 536 310 l 1
 536 776 l 1
 71 776 l 1
 71 931 l 1
 536 931 l 1
 536 1396 l 1
 692 1396 l 1
 692 931 l 1
71 155 m 1
 1157 155 l 1
 1157 0 l 1
 71 0 l 1
 71 155 l 1
EndSplineSet
EndChar

StartChar: lessequal
Encoding: 8804 8804 148
Width: 1229
Flags: MW
HStem: 0 155<71 1157 71 1157>
VStem: 71 1086<0 155 0 155 0 853>
LayerCount: 2
Fore
SplineSet
1157 310 m 1
 71 853 l 1
 1157 1396 l 1
 1157 1223 l 1
 415 855 l 1
 1157 481 l 1
 1157 310 l 1
71 155 m 1
 1157 155 l 1
 1157 0 l 1
 71 0 l 1
 71 155 l 1
EndSplineSet
EndChar

StartChar: greaterequal
Encoding: 8805 8805 149
Width: 1229
Flags: MW
HStem: 0 155<71 1157 71 1157>
VStem: 71 1086<0 155 0 155 0 484 0 484 0 1396>
LayerCount: 2
Fore
SplineSet
71 1396 m 1
 1157 853 l 1
 71 310 l 1
 71 484 l 1
 814 852 l 1
 71 1225 l 1
 71 1396 l 1
71 155 m 1
 1157 155 l 1
 1157 0 l 1
 71 0 l 1
 71 155 l 1
EndSplineSet
EndChar

StartChar: yen
Encoding: 165 165 150
Width: 1229
Flags: MW
HStem: 0 21G<522 708 522 522> 248 140<196 522 196 522 708 1026> 582 139<196 513 196 522 196 513 708 1026> 1532 20G<52 257 257 257 992 1177 1177 1177>
VStem: 522 186<0 248 388 582>
LayerCount: 2
Fore
SplineSet
708 0 m 1
 522 0 l 1
 522 248 l 1
 196 248 l 1
 196 388 l 1
 522 388 l 1
 522 582 l 1
 196 582 l 1
 196 721 l 1
 513 721 l 1
 52 1552 l 1
 257 1552 l 1
 624 910 l 1
 992 1552 l 1
 1177 1552 l 1
 708 721 l 1
 1026 721 l 1
 1026 582 l 1
 708 582 l 1
 708 388 l 1
 1026 388 l 1
 1026 248 l 1
 708 248 l 1
 708 0 l 1
EndSplineSet
EndChar

StartChar: mu
Encoding: 181 181 151
Width: 1229
Flags: MW
HStem: -31 162<507.5 543.5 484.5 583.5> 0 21G<890 1076 890 890> 1097 20G<122 308 308 308 890 1076 1076 1076>
VStem: 122 186<-372 47 405 468 468 1117> 890 186<0 242 242 242 458 1117 0 1117>
LayerCount: 2
Fore
SplineSet
890 1117 m 1x78
 1076 1117 l 1
 1076 0 l 1
 890 0 l 1x78
 890 242 l 1
 789 53 648 -31 519 -31 c 0
 496 -31 472 -28 447 -23 c 0
 422 -18 401 -11 382 -2 c 0
 363 6 339 22 308 47 c 1
 308 -372 l 1
 122 -372 l 1
 122 1117 l 1
 308 1117 l 1
 308 468 l 2
 308 342 328 254 367 205 c 0
 406 156 455 131 514 131 c 0
 573 131 629 153 684 196 c 0xb8
 739 240 808 327 890 458 c 1
 890 1117 l 1x78
EndSplineSet
EndChar

StartChar: partialdiff_old
Encoding: 65538 -1 152
Width: 1229
Flags: MW
HStem: -31 155<489 564 489 576> 954 155<664.5 737.5 649.5 740.5> 1458 156<328 349 349 356 328 349>
VStem: 64 194<383.5 464> 972 194<691.5 744.5>
LayerCount: 2
Fore
SplineSet
908 1062 m 1
 856 1322 660 1458 356 1458 c 2
 328 1458 l 1
 328 1614 l 1
 349 1614 l 2
 520 1614 667 1580 788 1511 c 0
 909 1442 1003 1340 1068 1205 c 0
 1133 1070 1166 924 1166 766 c 0
 1166 617 1136 480 1076 355 c 0
 1016 230 937 134 839 68 c 0
 741 2 634 -31 518 -31 c 0
 430 -31 350 -12 279 25 c 0
 208 63 155 116 118 185 c 0
 82 254 64 328 64 406 c 0
 64 522 94 636 155 749 c 0
 216 862 295 950 392 1013 c 0
 489 1077 594 1109 705 1109 c 0
 770 1109 837 1093 908 1062 c 1
528 124 m 0
 600 124 670 148 739 195 c 0
 808 242 864 314 907 409 c 0
 950 505 972 603 972 702 c 0
 972 787 946 850 894 891 c 0
 843 933 779 954 702 954 c 0
 627 954 555 930 486 881 c 0
 417 832 361 766 320 681 c 0
 279 597 258 513 258 429 c 0
 258 338 283 265 334 208 c 0
 385 152 450 124 528 124 c 0
EndSplineSet
EndChar

StartChar: summation_old
Encoding: 65539 -1 153
Width: 1229
Flags: MW
HStem: -434 186<301 1123 91 91> 1396 156<114 1084 368 368 368 1084>
VStem: 91 277 114 187
LayerCount: 2
Fore
SplineSet
301 -248 m 1xd0
 1123 -248 l 1
 1123 -434 l 1
 91 -434 l 1
 91 -248 l 1xe0
 557 608 l 1
 114 1396 l 1
 114 1552 l 1xd0
 1084 1552 l 1
 1084 1396 l 1
 368 1396 l 1xe0
 779 650 l 1
 301 -248 l 1xd0
EndSplineSet
EndChar

StartChar: product
Encoding: 8719 8719 154
Width: 1229
Flags: MW
HStem: -434 21G<219 421 219 219 809 809 809 1010> 1396 156<33 219 33 1197 421 421 421 809 1010 1010 1010 1197>
VStem: 219 202<-434 1396> 809 201<-434 1396 -434 1396>
LayerCount: 2
Fore
SplineSet
421 -434 m 1
 219 -434 l 1
 219 1396 l 1
 33 1396 l 1
 33 1552 l 1
 1197 1552 l 1
 1197 1396 l 1
 1010 1396 l 1
 1010 -434 l 1
 809 -434 l 1
 809 1396 l 1
 421 1396 l 1
 421 -434 l 1
EndSplineSet
EndChar

StartChar: pi
Encoding: 960 960 155
Width: 1229
Flags: MW
HStem: 0 21G<288 475 288 288 846 846 846 1037> 954 163<229.5 1150 276 288 475 777 475 475 963 963 963 1150>
VStem: 288 187<0 954 0 954> 777 186<370 375 375 954>
LayerCount: 2
Fore
SplineSet
777 954 m 1
 475 954 l 1
 475 0 l 1
 288 0 l 1
 288 954 l 1
 263 954 l 2
 196 954 125 932 48 887 c 1
 48 1076 l 1
 77 1087 103 1094 124 1099 c 0
 146 1104 173 1108 205 1111 c 0
 237 1115 261 1117 276 1117 c 2
 1150 1117 l 1
 1150 954 l 1
 963 954 l 1
 963 375 l 2
 963 232 988 107 1037 0 c 1
 846 0 l 1
 800 106 777 229 777 370 c 2
 777 954 l 1
EndSplineSet
EndChar

StartChar: integral_old
Encoding: 65540 -1 156
Width: 1229
Flags: MW
HStem: -372 132<365 395.5 365 396.5> 1458 140<843.5 861>
VStem: 522 186<286 388 388 756 756 884>
LayerCount: 2
Fore
SplineSet
341 -231 m 1
 350 -237 360 -240 370 -240 c 0
 421 -240 460 -206 485 -137 c 0
 510 -68 522 73 522 286 c 2
 522 756 l 2
 522 1109 558 1338 631 1442 c 0
 703 1546 786 1598 880 1598 c 0
 934 1598 979 1581 1016 1548 c 0
 1053 1515 1072 1475 1072 1426 c 0
 1072 1379 1059 1346 1034 1326 c 0
 1009 1306 985 1296 962 1296 c 0
 939 1296 917 1304 895 1320 c 0
 874 1336 863 1359 863 1388 c 0
 863 1411 871 1432 887 1453 c 1
 875 1456 865 1458 857 1458 c 0
 830 1458 805 1446 782 1422 c 0
 759 1399 741 1359 728 1302 c 0
 715 1245 708 1106 708 884 c 2
 708 388 l 2
 708 96 673 -104 603 -211 c 0
 533 -318 447 -372 346 -372 c 0
 289 -372 243 -356 208 -324 c 0
 174 -292 157 -251 157 -201 c 0
 157 -167 168 -138 190 -114 c 0
 212 -90 238 -78 268 -78 c 0
 293 -78 316 -86 336 -103 c 0
 356 -120 366 -140 366 -165 c 0
 366 -188 358 -210 341 -231 c 1
EndSplineSet
EndChar

StartChar: ordfeminine
Encoding: 170 170 157
Width: 1229
Flags: MW
HStem: 892 132<511.5 530> 1474 124<645.5 689 574.5 714> 1570 20G<839 979 979 979>
VStem: 211 155<1171.5 1229.5> 838 140
LayerCount: 2
Fore
SplineSet
840 1060 m 1xc8
 801 1009 750 969 685 938 c 0
 620 907 559 892 501 892 c 0
 426 892 359 916 300 965 c 0
 241 1014 211 1089 211 1190 c 0
 211 1269 230 1338 269 1399 c 0
 348 1522 475 1598 674 1598 c 0xd8
 704 1598 747 1596 803 1593 c 2
 839 1590 l 1
 979 1590 l 1xa8
 979 1114 l 2
 979 1081 981 1050 984 1019 c 0
 988 989 1002 952 1026 908 c 1
 871 908 l 1
 858 947 847 997 840 1060 c 1xc8
839 1208 m 1
 838 1463 l 1
 786 1470 737 1474 691 1474 c 0
 600 1474 523 1450 460 1402 c 0
 397 1354 366 1287 366 1201 c 0
 366 1142 383 1097 416 1068 c 0xd8
 449 1039 489 1024 534 1024 c 0
 582 1024 635 1041 693 1076 c 0
 751 1111 800 1155 839 1208 c 1
EndSplineSet
EndChar

StartChar: ordmasculine
Encoding: 186 186 158
Width: 1229
Flags: MW
HStem: 884 124<573 655.5 573 687> 1474 124<573 655.5>
VStem: 180 155<1203.5 1278.5 1203.5 1289> 894 155<1203.5 1278.5>
LayerCount: 2
Fore
SplineSet
614 884 m 0
 469 884 360 920 288 991 c 0
 216 1062 180 1146 180 1241 c 0
 180 1337 216 1420 288 1491 c 0
 360 1562 469 1598 614 1598 c 0
 760 1598 869 1562 941 1491 c 0
 1013 1420 1049 1337 1049 1241 c 0
 1049 1146 1013 1062 941 991 c 0
 869 920 760 884 614 884 c 0
614 1008 m 0
 697 1008 764 1028 816 1068 c 0
 868 1108 894 1166 894 1241 c 0
 894 1316 868 1374 816 1414 c 0
 764 1454 697 1474 614 1474 c 0
 532 1474 465 1454 413 1414 c 0
 361 1374 335 1316 335 1241 c 0
 335 1166 361 1108 413 1068 c 0
 465 1028 532 1008 614 1008 c 0
EndSplineSet
EndChar

StartChar: Omega
Encoding: 8486 8486 159
Width: 1229
Flags: MW
HStem: 0 178<33 274 33 529 33 274 956 1197> 1443 155<560.5 669.5>
VStem: 72 201<723.5 881 723.5 902.5> 956 202<720.5 881>
LayerCount: 2
Fore
SplineSet
529 178 m 1
 529 0 l 1
 33 0 l 1
 33 178 l 1
 274 178 l 1
 191 273 136 367 110 462 c 0
 85 557 72 663 72 778 c 0
 72 1027 118 1226 211 1375 c 0
 304 1524 438 1598 615 1598 c 0
 792 1598 926 1524 1019 1375 c 0
 1112 1226 1158 1027 1158 778 c 0
 1158 663 1145 557 1119 462 c 0
 1094 367 1039 273 956 178 c 1
 1197 178 l 1
 1197 0 l 1
 700 0 l 1
 700 178 l 1
 759 205 806 243 841 292 c 0
 910 392 956 560 956 777 c 0
 956 985 926 1148 867 1266 c 0
 808 1384 724 1443 615 1443 c 0
 506 1443 421 1384 362 1265 c 0
 303 1146 273 984 273 778 c 0
 273 669 283 574 304 491 c 0
 347 327 410 231 529 178 c 1
EndSplineSet
EndChar

StartChar: ae
Encoding: 230 230 160
Width: 1229
Flags: MW
HStem: -31 155<908.5 949.5> -31 209 535 132<762 979 762 1166 762 979> 993 155<466 477.5 466 498.5 864.5 890.5>
VStem: 64 186<423.5 483> 576 186<470 535 667 699> 979 187
LayerCount: 2
Fore
SplineSet
592 226 m 1xbe
 523 53 425 -31 340 -31 c 0
 265 -31 201 17 146 113 c 0
 91 209 64 332 64 483 c 0
 59 880 256 1151 466 1148 c 0
 489 1148 514 1145 540 1140 c 0
 567 1135 590 1129 611 1121 c 0
 632 1114 659 1099 691 1077 c 1
 740 1113 777 1134 804 1139 c 0
 831 1145 854 1148 875 1148 c 0
 960 1148 1029 1110 1084 1034 c 0
 1139 959 1166 809 1166 585 c 2
 1166 535 l 1
 762 535 l 1
 762 452 l 2
 762 353 769 284 784 243 c 0
 815 163 874 124 943 124 c 0
 1010 124 1085 150 1166 203 c 1
 1166 33 l 1
 1072 -10 987 -31 912 -31 c 0
 863 -31 817 -22 776 -5 c 0
 735 12 699 37 668 71 c 0
 638 105 613 157 592 226 c 1xbe
576 470 m 1
 576 959 l 1
 544 982 513 993 484 993 c 0
 406 993 347 938 308 828 c 0
 269 718 250 596 250 463 c 0
 250 384 261 317 283 260 c 0
 305 203 333 176 367 178 c 0x7e
 437 183 507 280 576 470 c 1
762 699 m 2
 762 667 l 1
 979 667 l 1
 979 699 l 2
 979 816 970 895 952 934 c 0
 934 973 908 993 873 993 c 0
 800 993 762 895 762 699 c 2
EndSplineSet
EndChar

StartChar: oslash
Encoding: 248 248 161
Width: 1229
Flags: MW
HStem: -31 155<593 666 576.5 702> 993 155<562 629.5 527.5 648.5>
VStem: 87 202<514 630 514 645> 940 202<492.5 607.5>
LayerCount: 2
Fore
SplineSet
332 44 m 1
 236 -93 l 1
 87 -93 l 1
 237 128 l 1
 137 254 87 399 87 564 c 0
 87 726 132 864 222 977 c 0
 312 1091 442 1148 613 1148 c 0
 646 1148 680 1146 713 1141 c 0
 746 1136 776 1130 802 1121 c 0
 829 1112 861 1097 898 1075 c 1
 992 1210 l 1
 1142 1210 l 1
 993 995 l 1
 1092 866 1142 721 1142 559 c 0
 1142 401 1098 263 1010 145 c 0
 922 28 790 -31 614 -31 c 0
 572 -31 531 -27 490 -20 c 0
 450 -13 397 8 332 44 c 1
341 280 m 1
 805 943 l 1
 746 976 682 993 615 993 c 0
 509 993 428 954 372 877 c 0
 317 800 289 696 289 564 c 0
 289 464 306 369 341 280 c 1
889 845 m 1
 424 177 l 1
 488 142 548 124 605 124 c 0
 727 124 813 165 864 246 c 0
 915 328 940 431 940 554 c 0
 940 661 923 758 889 845 c 1
EndSplineSet
EndChar

StartChar: questiondown
Encoding: 191 191 162
Width: 1229
Flags: MW
HStem: -497 156<587.5 661 587.5 701.5> 1120 20G<705.5 744.5>
VStem: 176 202<-186.5 -137.5 -186.5 -120> 641 187<613 624 624 659 596.5 659>
LayerCount: 2
Fore
SplineSet
641 659 m 1
 828 659 l 1
 828 624 l 2
 828 569 823 523 814 486 c 0
 795 413 746 340 641 228 c 2
 579 161 l 2
 568 149 550 129 527 100 c 2
 461 17 l 2
 406 -52 378 -112 378 -163 c 0
 378 -210 398 -251 438 -287 c 0
 478 -323 543 -341 632 -341 c 0
 690 -341 749 -333 810 -318 c 0
 871 -303 941 -272 1022 -227 c 1
 1022 -406 l 1
 898 -467 769 -497 634 -497 c 0
 485 -497 371 -466 293 -405 c 0
 215 -344 176 -265 176 -168 c 0
 176 -72 226 28 327 132 c 2
 394 200 l 1
 471 280 l 1
 543 353 l 2
 569 383 592 417 611 454 c 0
 631 492 641 545 641 613 c 2
 641 659 l 1
725 853 m 0
 686 853 652 867 624 895 c 0
 596 924 582 958 582 997 c 0
 582 1036 596 1070 624 1098 c 0
 652 1126 686 1140 725 1140 c 0
 764 1140 797 1126 826 1098 c 0
 855 1071 869 1037 869 997 c 0
 869 957 855 923 826 895 c 0
 797 867 764 853 725 853 c 0
EndSplineSet
EndChar

StartChar: exclamdown
Encoding: 161 161 163
Width: 1229
Flags: MW
HStem: -450 21G<498 746 498 498> 1128 20G<596 633.5>
VStem: 471 287<985.5 1024>
LayerCount: 2
Fore
SplineSet
545 659 m 1
 700 659 l 1
 746 -450 l 1
 498 -450 l 1
 545 659 l 1
615 1148 m 0
 652 1148 685 1134 714 1105 c 0
 743 1076 758 1043 758 1005 c 0
 758 966 743 933 714 904 c 0
 685 875 652 861 615 861 c 0
 577 861 543 875 514 904 c 0
 485 933 471 966 471 1005 c 0
 471 1043 485 1076 514 1105 c 0
 543 1134 577 1148 615 1148 c 0
EndSplineSet
EndChar

StartChar: logicalnot
Encoding: 172 172 164
Width: 1229
Flags: MW
HStem: 465 156<71 1002 71 1157>
VStem: 1002 155<155 465 465 465>
LayerCount: 2
Fore
SplineSet
71 621 m 1
 1157 621 l 1
 1157 155 l 1
 1002 155 l 1
 1002 465 l 1
 71 465 l 1
 71 621 l 1
EndSplineSet
EndChar

StartChar: radical_old
Encoding: 65541 -1 165
Width: 1229
Flags: MW
HStem: 1489 156<1072 1072 1072 1227>
VStem: 9 1218<631 1645>
LayerCount: 2
Fore
SplineSet
1072 1489 m 1
 654 -372 l 1
 499 -372 l 1
 203 535 l 1
 60 481 l 1
 9 631 l 1
 299 740 l 1
 564 -67 l 1
 952 1645 l 1
 1227 1645 l 1
 1227 1489 l 1
 1072 1489 l 1
EndSplineSet
EndChar

StartChar: florin
Encoding: 402 402 166
Width: 1229
Flags: MW
HStem: 869 155<173 392 141 426 173 580 611 974> 1489 156<987.5 1036.5>
VStem: 141 1086<869 1629>
LayerCount: 2
Fore
SplineSet
327 -372 m 1
 141 -372 l 1
 392 869 l 1
 141 869 l 1
 173 1024 l 1
 426 1024 l 1
 433 1076 l 2
 451 1193 484 1292 531 1371 c 0
 578 1451 643 1517 726 1568 c 0
 809 1619 918 1645 1054 1645 c 0
 1087 1645 1132 1641 1187 1634 c 2
 1227 1629 l 1
 1195 1468 l 1
 1155 1475 l 2
 1101 1484 1055 1489 1018 1489 c 0
 957 1489 901 1479 851 1459 c 0
 801 1439 758 1406 721 1359 c 0
 684 1312 653 1224 626 1095 c 2
 611 1024 l 1
 1006 1024 l 1
 974 869 l 1
 580 869 l 1
 327 -372 l 1
EndSplineSet
EndChar

StartChar: approxequal_old
Encoding: 65542 -1 167
Width: 1229
Flags: MW
HStem: 178 156<876.5 913.5> 396 155<313.5 350.5> 566 155<876.5 913.5> 784 155<313.5 350.5>
VStem: 56 120<209 227 209 270.5 597 615> 1045 128<504 520 448.5 520 892 908>
LayerCount: 2
Fore
SplineSet
176 597 m 1
 56 597 l 1
 56 615 l 2
 56 702 82 778 133 842 c 0
 185 907 255 939 342 939 c 0
 364 939 385 937 406 932 c 0
 427 928 451 921 478 910 c 0
 505 900 545 880 598 850 c 2
 719 783 l 2
 793 742 853 721 900 721 c 0
 949 721 986 739 1009 775 c 0
 1033 811 1045 850 1045 892 c 2
 1045 908 l 1
 1173 908 l 1
 1173 892 l 2
 1173 781 1141 698 1078 645 c 0
 1015 592 949 566 878 566 c 0
 812 566 725 597 616 659 c 2
 514 718 l 2
 437 762 374 784 327 784 c 0
 300 784 275 777 252 763 c 0
 229 749 211 727 197 696 c 0
 183 665 176 638 176 615 c 2
 176 597 l 1
176 209 m 1
 56 209 l 1
 56 227 l 2
 56 314 82 390 133 454 c 0
 185 519 255 551 342 551 c 0
 364 551 385 549 406 544 c 0
 427 540 451 533 478 522 c 0
 505 512 545 492 598 463 c 2
 719 395 l 2
 793 354 853 334 900 334 c 0
 949 334 986 352 1009 387 c 0
 1033 423 1045 462 1045 504 c 2
 1045 520 l 1
 1173 520 l 1
 1173 504 l 2
 1173 393 1141 310 1078 257 c 0
 1015 204 949 178 878 178 c 0
 812 178 725 209 616 272 c 2
 514 330 l 2
 437 374 374 396 327 396 c 0
 300 396 275 389 252 375 c 0
 229 361 211 339 197 308 c 0xfc
 183 277 176 250 176 227 c 2
 176 209 l 1
EndSplineSet
EndChar

StartChar: increment
Encoding: 8710 8710 168
Width: 1229
Flags: MW
HStem: 0 186<201 980 33 33> 1532 20G<508 713 713 713>
VStem: 33 1164<0 186 0 186>
LayerCount: 2
Fore
SplineSet
1197 186 m 1
 1197 0 l 1
 33 0 l 1
 33 186 l 1
 508 1552 l 1
 713 1552 l 1
 1197 186 l 1
593 1291 m 1
 201 186 l 1
 980 186 l 1
 593 1291 l 1
EndSplineSet
EndChar

StartChar: guillemotleft
Encoding: 171 171 169
Width: 1229
Flags: MW
HStem: 62 993<537 537 537 1010>
VStem: 153 970<160 636 160 636>
LayerCount: 2
Fore
SplineSet
1010 62 m 1
 626 481 l 1
 626 636 l 1
 1010 1055 l 1
 1123 946 l 1
 811 559 l 1
 1123 160 l 1
 1010 62 l 1
537 62 m 1
 153 481 l 1
 153 636 l 1
 537 1055 l 1
 649 946 l 1
 338 559 l 1
 649 160 l 1
 537 62 l 1
EndSplineSet
EndChar

StartChar: guillemotright
Encoding: 187 187 170
Width: 1229
Flags: MW
HStem: 62 993<219 219 219 692>
VStem: 106 970<171 636 481 957>
LayerCount: 2
Fore
SplineSet
219 1055 m 1
 602 636 l 1
 602 481 l 1
 219 62 l 1
 106 171 l 1
 418 559 l 1
 106 957 l 1
 219 1055 l 1
692 1055 m 1
 1076 636 l 1
 1076 481 l 1
 692 62 l 1
 579 171 l 1
 891 559 l 1
 579 957 l 1
 692 1055 l 1
EndSplineSet
EndChar

StartChar: ellipsis
Encoding: 8230 8230 171
Width: 1229
Flags: MW
HStem: -47 21G<186 223.5 595 633 1005 1043> -47 287<186 223.5 595 633 1005 1043>
VStem: 61 1106<77.5 116.5>
LayerCount: 2
Fore
SplineSet
205 -47 m 0xa0
 167 -47 133 -33 104 -4 c 0
 75 25 61 58 61 97 c 0
 61 136 75 169 104 197 c 0
 133 226 167 240 205 240 c 0
 242 240 275 226 304 197 c 0x60
 333 169 348 136 348 97 c 0
 348 58 333 25 304 -4 c 0
 275 -33 242 -47 205 -47 c 0xa0
614 -47 m 0
 576 -47 543 -33 514 -4 c 0
 485 25 471 58 471 97 c 0
 471 136 485 169 514 197 c 0
 543 226 576 240 614 240 c 0
 652 240 685 226 714 197 c 0x60
 743 169 758 136 758 97 c 0
 758 58 743 25 714 -4 c 0
 685 -33 652 -47 614 -47 c 0
1024 -47 m 0
 986 -47 952 -33 923 -4 c 0
 894 25 880 58 880 97 c 0
 880 136 894 169 923 197 c 0
 952 226 986 240 1024 240 c 0
 1062 240 1095 226 1124 197 c 0x60
 1153 169 1167 136 1167 97 c 0
 1167 58 1153 25 1124 -4 c 0
 1095 -33 1062 -47 1024 -47 c 0
EndSplineSet
EndChar

StartChar: Agrave
Encoding: 192 192 173
Width: 1229
Flags: MW
HStem: 0 21G<33 227 33 33 984 984 984 1197> 341 155<332 833 380 833 380 878> 1532 20G<511 716 716 716>
VStem: 33 1164<0 0>
LayerCount: 2
Fore
SplineSet
332 341 m 1
 227 0 l 1
 33 0 l 1
 511 1552 l 1
 716 1552 l 1
 1197 0 l 1
 984 0 l 1
 878 341 l 1
 332 341 l 1
563 1085 m 1
 380 496 l 1
 833 496 l 1
 646 1085 l 1
 602 1241 l 1
 563 1085 l 1
572 2048 m 1
 868 1722 l 1
 698 1722 l 1
 356 2048 l 1
 572 2048 l 1
EndSplineSet
EndChar

StartChar: Atilde
Encoding: 195 195 174
Width: 1229
Flags: MW
HStem: 0 21G<33 227 33 33 984 984 984 1197> 341 155<332 833 380 833 380 878> 1532 20G<511 716 716 716> 1721 140<752 783 752 797.5> 1838 140<481.5 499.5>
VStem: 298 125<1722 1745.5 1722 1810> 823 127<1939 1978>
LayerCount: 2
Fore
SplineSet
332 341 m 1xf6
 227 0 l 1
 33 0 l 1
 511 1552 l 1
 716 1552 l 1
 1197 0 l 1
 984 0 l 1
 878 341 l 1
 332 341 l 1xf6
563 1085 m 1
 380 496 l 1
 833 496 l 1
 646 1085 l 1
 602 1241 l 1
 563 1085 l 1
423 1722 m 1
 298 1722 l 1
 298 1898 375 1978 479 1978 c 0
 520 1978 562 1965 605 1938 c 2xee
 647 1913 l 2
 702 1878 741 1861 763 1861 c 0
 803 1861 823 1900 823 1978 c 1
 950 1978 l 1
 946 1910 937 1860 923 1829 c 0
 895 1766 832 1721 763 1721 c 0
 720 1721 673 1737 622 1770 c 2
 578 1798 l 1xf6
 554 1815 l 2
 531 1830 510 1838 489 1838 c 0
 474 1838 460 1830 445 1815 c 0xee
 430 1800 423 1769 423 1722 c 1
EndSplineSet
EndChar

StartChar: Otilde
Encoding: 213 213 175
Width: 1229
Flags: MW
HStem: -47 156<565.5 662.5 565.5 702.5> 1443 155<565.5 662.5> 1721 140<743 774 743 788.5> 1838 140<472.5 490.5>
VStem: 71 202<664 888 664 901.5> 289 125<1722 1745.5 1722 1810> 814 127<1939 1978> 955 202<664 888>
LayerCount: 2
Fore
SplineSet
614 -47 m 0xe9
 438 -47 303 27 210 175 c 0
 117 324 71 524 71 776 c 0
 71 1027 117 1227 210 1375 c 0
 303 1524 438 1598 614 1598 c 0
 791 1598 925 1524 1018 1375 c 0
 1111 1227 1157 1027 1157 776 c 0
 1157 524 1111 324 1018 175 c 0
 925 27 791 -47 614 -47 c 0xe9
614 109 m 0
 711 109 792 164 857 274 c 0
 922 385 955 552 955 776 c 0
 955 1000 922 1167 857 1277 c 0
 792 1388 711 1443 614 1443 c 0
 517 1443 435 1388 370 1277 c 0
 305 1167 273 1000 273 776 c 0
 273 552 305 385 370 274 c 0
 435 164 517 109 614 109 c 0
414 1722 m 1xed
 289 1722 l 1
 289 1898 366 1978 470 1978 c 0
 511 1978 553 1965 596 1938 c 2xdd
 638 1913 l 2
 693 1878 732 1861 754 1861 c 0
 794 1861 814 1900 814 1978 c 1
 941 1978 l 1
 937 1910 928 1860 914 1829 c 0
 886 1766 823 1721 754 1721 c 0
 711 1721 664 1737 613 1770 c 2
 569 1798 l 1xeb
 545 1815 l 2
 522 1830 501 1838 480 1838 c 0
 465 1838 451 1830 436 1815 c 0xdd
 421 1800 414 1769 414 1722 c 1xed
EndSplineSet
EndChar

StartChar: OE
Encoding: 338 338 176
Width: 1229
Flags: MW
HStem: -32 156<443 482> 0 124<443 1184 443 633> 0 171<820 1184 820 1184> 706 155<820 1153 820 1153> 1396 156<820 1169 820 820> 1428 155<442.5 490 441 510>
VStem: 36 202<715 873 697.5 879> 633 187<0 706 39 706 521 706 861 1022 1022 1110.5>
LayerCount: 2
Fore
SplineSet
1184 171 m 1x3b
 1184 0 l 1
 633 0 l 1
 633 39 l 1x3b
 588 -1 553 -23 529 -26 c 0
 506 -30 488 -32 476 -32 c 0
 399 -32 325 -1 254 62 c 0
 183 125 129 222 92 355 c 0
 55 488 36 635 36 795 c 0
 36 963 56 1109 97 1233 c 0
 138 1358 193 1447 262 1501 c 0
 331 1556 403 1583 479 1583 c 0
 501 1583 524 1580 547 1573 c 0
 570 1566 599 1546 633 1513 c 1x97
 633 1552 l 1
 1169 1552 l 1
 1169 1396 l 1
 820 1396 l 1
 820 861 l 1
 1153 861 l 1
 1153 706 l 1
 820 706 l 1
 820 171 l 1
 1184 171 l 1x3b
633 521 m 2
 633 1022 l 2
 633 1199 620 1310 595 1357 c 0
 570 1404 534 1428 486 1428 c 0
 399 1428 335 1366 296 1243 c 0
 257 1120 238 966 238 780 c 0
 238 615 256 464 293 328 c 0
 330 192 396 124 490 124 c 0
 537 124 572 147 596 194 c 0x57
 621 241 633 350 633 521 c 2
EndSplineSet
EndChar

StartChar: oe
Encoding: 339 339 177
Width: 1229
Flags: MW
HStem: -31 155<385.5 399 907.5 946.5> 535 132<757 975 757 1161 757 975> 993 155<836 883.5>
VStem: 67 178<508.5 609.5 488.5 642.5> 571 186<493 535 414.5 595 414.5 637.5> 975 186
LayerCount: 2
Fore
SplineSet
625 135 m 1
 586 61 544 15 500 -3 c 0
 457 -22 417 -31 381 -31 c 0
 322 -31 269 -10 222 32 c 0
 175 74 137 143 109 240 c 0
 81 337 67 447 67 570 c 0
 67 715 92 847 143 967 c 0
 194 1088 281 1148 402 1148 c 0
 509 1148 587 1093 639 982 c 1
 698 1093 776 1148 875 1148 c 0
 954 1148 1022 1110 1077 1035 c 0
 1133 960 1161 814 1161 597 c 2
 1161 535 l 1
 757 535 l 1
 757 474 l 2
 757 355 765 276 781 237 c 0
 814 160 874 124 941 124 c 0
 1010 124 1083 150 1161 202 c 1
 1161 29 l 1
 1067 -11 983 -31 910 -31 c 0
 853 -31 801 -20 754 1 c 0
 707 23 664 68 625 135 c 1
571 493 m 2
 571 595 l 2
 571 680 569 739 564 773 c 0
 560 807 552 841 540 875 c 0
 528 908 510 937 487 960 c 0
 464 984 439 995 412 993 c 0
 355 990 313 947 286 864 c 0
 259 781 245 675 245 544 c 0
 245 433 258 336 284 251 c 0
 311 166 355 124 416 124 c 0
 461 124 498 153 527 210 c 0
 556 267 571 362 571 493 c 2
757 701 m 2
 757 667 l 1
 975 667 l 1
 975 700 l 2
 975 823 965 903 945 939 c 0
 925 975 899 993 868 993 c 0
 804 993 757 905 757 701 c 2
EndSplineSet
EndChar

StartChar: endash
Encoding: 8211 8211 178
Width: 1229
Flags: MW
HStem: 528 155<71 1157 71 1157>
VStem: 71 1086<528 683 528 683>
LayerCount: 2
Fore
SplineSet
1157 528 m 1
 71 528 l 1
 71 683 l 1
 1157 683 l 1
 1157 528 l 1
EndSplineSet
EndChar

StartChar: emdash
Encoding: 8212 8212 179
Width: 1229
Flags: MW
HStem: 528 124<71 1157 71 1157>
VStem: 71 1086<528 652 528 652>
LayerCount: 2
Fore
SplineSet
1157 528 m 1
 71 528 l 1
 71 652 l 1
 1157 652 l 1
 1157 528 l 1
EndSplineSet
EndChar

StartChar: quotedblleft
Encoding: 8220 8220 180
Width: 1229
Flags: MW
HStem: 915 730<358 560 560 896.5>
VStem: 180 188<1144 1296> 180 869<1144 1645> 669 188<1144 1296>
LayerCount: 2
Fore
SplineSet
1049 1645 m 1xa0
 1049 1520 l 1
 1001 1507 964 1489 939 1466 c 0
 890 1419 857 1348 857 1244 c 1
 918 1244 964 1226 993 1191 c 0
 1023 1156 1038 1119 1038 1080 c 0
 1038 1033 1022 994 989 962 c 0
 956 931 918 915 875 915 c 0
 818 915 770 939 729 987 c 0
 689 1036 669 1102 669 1186 c 0
 669 1260 685 1329 717 1394 c 0xd0
 781 1523 890 1624 1049 1645 c 1xa0
560 1645 m 1
 560 1520 l 1
 512 1507 475 1489 450 1466 c 0
 401 1419 368 1348 368 1244 c 1
 430 1244 476 1226 505 1191 c 0
 534 1156 549 1119 549 1080 c 0
 549 1033 533 994 500 962 c 0
 467 931 429 915 386 915 c 0
 330 915 282 939 241 987 c 0
 200 1036 180 1102 180 1186 c 0
 180 1260 196 1329 228 1394 c 0
 292 1523 401 1624 560 1645 c 1
EndSplineSet
EndChar

StartChar: quotedblright
Encoding: 8221 8221 181
Width: 1229
Flags: MW
HStem: 915 730<180 382 332.5 669>
VStem: 180 869<915 1416 1040 1416> 372 188<1264 1416> 861 188<1264 1416>
LayerCount: 2
Fore
SplineSet
180 915 m 1xc0
 180 1040 l 1
 228 1053 264 1071 289 1094 c 0
 340 1141 372 1212 372 1316 c 1
 310 1316 264 1333 235 1368 c 0
 206 1403 191 1441 191 1480 c 0
 191 1527 207 1566 240 1597 c 0
 273 1629 311 1645 354 1645 c 0
 410 1645 458 1621 499 1572 c 0
 540 1524 560 1458 560 1374 c 0
 560 1300 544 1231 512 1166 c 0xb0
 448 1037 339 936 180 915 c 1xc0
669 915 m 1
 669 1040 l 1
 716 1053 753 1071 778 1094 c 0
 829 1141 861 1212 861 1316 c 1
 799 1316 753 1333 724 1368 c 0
 695 1403 680 1441 680 1480 c 0
 680 1527 696 1566 728 1597 c 0
 761 1629 799 1645 842 1645 c 0
 899 1645 947 1621 988 1572 c 0
 1029 1524 1049 1458 1049 1374 c 0
 1049 1300 1033 1231 1001 1166 c 0
 937 1037 828 936 669 915 c 1
EndSplineSet
EndChar

StartChar: quoteleft
Encoding: 8216 8216 182
Width: 1229
Flags: MW
HStem: 915 730<602 804>
VStem: 424 188<1144 1296> 424 380<1144 1645>
LayerCount: 2
Fore
SplineSet
804 1645 m 1xa0
 804 1520 l 1
 756 1507 719 1489 694 1466 c 0
 645 1419 612 1348 612 1244 c 1
 674 1244 720 1226 749 1191 c 0
 778 1156 793 1119 793 1080 c 0
 793 1033 777 994 744 962 c 0
 711 931 673 915 630 915 c 0
 574 915 526 939 485 987 c 0
 444 1036 424 1102 424 1186 c 0
 424 1260 440 1329 472 1394 c 0xc0
 536 1523 645 1624 804 1645 c 1xa0
EndSplineSet
EndChar

StartChar: quoteright
Encoding: 8217 8217 183
Width: 1229
Flags: MW
HStem: 915 730<424 626>
VStem: 424 380<915 1416 1040 1416> 616 188<1264 1416>
LayerCount: 2
Fore
SplineSet
424 915 m 1xc0
 424 1040 l 1
 472 1053 508 1071 533 1094 c 0
 584 1141 616 1212 616 1316 c 1
 554 1316 508 1333 479 1368 c 0
 450 1403 435 1441 435 1480 c 0
 435 1527 451 1566 484 1597 c 0
 517 1629 555 1645 598 1645 c 0
 654 1645 702 1621 743 1572 c 0
 784 1524 804 1458 804 1374 c 0
 804 1300 788 1231 756 1166 c 0xa0
 692 1037 583 936 424 915 c 1xc0
EndSplineSet
EndChar

StartChar: divide
Encoding: 247 247 184
Width: 1229
Flags: MW
HStem: 465 156<71 1157 71 1157>
VStem: 71 1086<465 621 465 621>
LayerCount: 2
Fore
SplineSet
614 776 m 0
 576 776 543 790 514 819 c 0
 485 848 471 881 471 919 c 0
 471 958 485 991 514 1020 c 0
 543 1049 576 1063 614 1063 c 0
 652 1063 685 1049 714 1020 c 0
 743 991 758 958 758 919 c 0
 758 881 743 848 714 819 c 0
 685 790 652 776 614 776 c 0
71 621 m 1
 1157 621 l 1
 1157 465 l 1
 71 465 l 1
 71 621 l 1
614 23 m 0
 576 23 543 37 514 66 c 0
 485 95 471 128 471 167 c 0
 471 206 485 239 514 267 c 0
 543 296 576 310 614 310 c 0
 652 310 685 296 714 267 c 0
 743 239 758 206 758 167 c 0
 758 128 743 95 714 66 c 0
 685 37 652 23 614 23 c 0
EndSplineSet
EndChar

StartChar: lozenge
Encoding: 9674 9674 185
Width: 1229
Flags: MW
HStem: 0 21G<614 614> 1532 20G<614 614>
VStem: 71 1086<776 776>
LayerCount: 2
Fore
SplineSet
1157 776 m 1
 614 0 l 1
 71 776 l 1
 614 1552 l 1
 1157 776 l 1
257 776 m 1
 614 264 l 1
 971 776 l 1
 614 1272 l 1
 257 776 l 1
EndSplineSet
EndChar

StartChar: ydieresis
Encoding: 255 255 186
Width: 1229
Flags: MW
HStem: -466 155<172.5 226 172.5 266.5> -451 21G<49 49> 1097 20G<67 272 272 272 1027 1214 1214 1214> 1288 248<428.5 461.5 428.5 462 863.5 896.5>
VStem: 49 1165
LayerCount: 2
Fore
SplineSet
566 2 m 2xa8
 583 45 l 1
 67 1117 l 1
 272 1117 l 1
 683 279 l 1
 1027 1117 l 1
 1214 1117 l 1
 781 79 l 2
 690 -140 603 -286 520 -358 c 0
 438 -430 332 -466 201 -466 c 0xb8
 144 -466 94 -461 49 -451 c 1x68
 49 -287 l 1
 100 -303 149 -311 196 -311 c 0
 256 -311 309 -299 356 -276 c 0
 403 -253 445 -211 484 -152 c 0
 523 -93 550 -41 566 2 c 2xa8
445 1288 m 0
 411 1288 382 1300 357 1324 c 0
 333 1348 321 1377 321 1412 c 0
 321 1447 333 1476 358 1500 c 0
 383 1524 412 1536 445 1536 c 0
 478 1536 507 1524 532 1500 c 0
 557 1476 569 1447 569 1412 c 0
 569 1377 557 1348 532 1324 c 0
 508 1300 479 1288 445 1288 c 0
880 1288 m 0
 846 1288 817 1300 792 1324 c 0
 767 1348 755 1377 755 1412 c 0
 755 1447 767 1476 792 1500 c 0
 817 1524 847 1536 880 1536 c 0
 913 1536 942 1524 967 1500 c 0
 992 1476 1004 1447 1004 1412 c 0
 1004 1377 992 1348 967 1324 c 0
 942 1300 913 1288 880 1288 c 0
EndSplineSet
EndChar

StartChar: Ydieresis
Encoding: 376 376 187
Width: 1229
Flags: MW
HStem: 0 21G<514 716 514 514> 1532 20G<52 281 281 281 970 1177 1177 1177> 1722 248<380.5 413.5 380.5 414 815.5 848.5>
VStem: 514 202<0 718>
LayerCount: 2
Fore
SplineSet
716 0 m 1
 514 0 l 1
 514 718 l 1
 52 1552 l 1
 281 1552 l 1
 626 936 l 1
 970 1552 l 1
 1177 1552 l 1
 716 718 l 1
 716 0 l 1
397 1722 m 0
 363 1722 334 1734 309 1758 c 0
 285 1782 273 1811 273 1846 c 0
 273 1881 285 1910 310 1934 c 0
 335 1958 364 1970 397 1970 c 0
 430 1970 459 1958 484 1934 c 0
 509 1910 521 1881 521 1846 c 0
 521 1811 509 1782 484 1758 c 0
 460 1734 431 1722 397 1722 c 0
832 1722 m 0
 798 1722 769 1734 744 1758 c 0
 719 1782 707 1811 707 1846 c 0
 707 1881 719 1910 744 1934 c 0
 769 1958 799 1970 832 1970 c 0
 865 1970 894 1958 919 1934 c 0
 944 1910 956 1881 956 1846 c 0
 956 1811 944 1782 919 1758 c 0
 894 1734 865 1722 832 1722 c 0
EndSplineSet
EndChar

StartChar: fraction
Encoding: 8260 8260 188
Width: 1229
Flags: MW
HStem: -47 21G<2 166 2 2> 1578 20G<1063 1228 1228 1228>
VStem: 2 1226
LayerCount: 2
Fore
SplineSet
1228 1598 m 1
 166 -47 l 1
 2 -47 l 1
 1063 1598 l 1
 1228 1598 l 1
EndSplineSet
EndChar

StartChar: Euro
Encoding: 8364 8364 189
Width: 1229
Flags: MW
HStem: 0 110<683.5 843.5 683.5 845> 495 110<-30 969 -78 1017> 715 110<-30 1063 -78 1109> 1104 20G<1236 1236> 1210 110<683.5 841.5>
VStem: 100 110<583.5 736.5 583.5 753.5>
LayerCount: 2
Fore
SplineSet
1109 825 m 1
 1063 715 l 1
 -78 715 l 1
 -30 825 l 1
 1109 825 l 1
1017 605 m 1
 969 495 l 1
 -78 495 l 1
 -30 605 l 1
 1017 605 l 1
1188 311 m 1
 1188 149 l 1
 1073 50 930 0 760 0 c 0
 573 0 417 63 290 190 c 0
 163 317 100 473 100 660 c 0
 100 847 163 1003 290 1130 c 0
 417 1257 573 1320 760 1320 c 0
 947 1320 1105 1255 1236 1124 c 1
 1188 1013 l 1
 1066 1144 923 1210 760 1210 c 0
 607 1210 477 1157 370 1050 c 0
 263 943 210 813 210 660 c 0
 210 507 263 377 370 270 c 0
 477 163 607 110 760 110 c 0
 927 110 1069 177 1188 311 c 1
EndSplineSet
EndChar

StartChar: guilsinglleft
Encoding: 8249 8249 190
Width: 1229
Flags: MW
HStem: 0 21G<832 832> 1097 20G<832 832>
VStem: 331 613<115 644 115 644>
LayerCount: 2
Fore
SplineSet
832 0 m 1
 331 484 l 1
 331 644 l 1
 832 1117 l 1
 944 999 l 1
 515 561 l 1
 944 115 l 1
 832 0 l 1
EndSplineSet
EndChar

StartChar: guilsinglright
Encoding: 8250 8250 191
Width: 1229
Flags: MW
HStem: 0 21G<397 397> 1097 20G<397 397>
VStem: 285 613<118 633 473 1002>
LayerCount: 2
Fore
SplineSet
397 1117 m 1
 898 633 l 1
 898 473 l 1
 397 0 l 1
 285 118 l 1
 714 556 l 1
 285 1002 l 1
 397 1117 l 1
EndSplineSet
EndChar

StartChar: fi
Encoding: 64257 64257 192
Width: 1229
Flags: MW
HStem: 0 21G<273 459 273 273 925 925 925 1111> 869 155<25 273 25 273 459 925> 1489 156<731.5 797.5 696.5 798.5>
VStem: 273 186<0 869 1024 1076 1076 1096> 925 186<0 869 869 869>
LayerCount: 2
Fore
SplineSet
459 0 m 1
 273 0 l 1
 273 869 l 1
 25 869 l 1
 25 1024 l 1
 273 1024 l 1
 273 1076 l 2
 273 1223 290 1332 323 1403 c 0
 356 1474 408 1532 477 1577 c 0
 547 1622 639 1645 754 1645 c 0
 841 1645 929 1636 1018 1618 c 1
 1018 1441 l 1
 921 1473 836 1489 761 1489 c 0
 702 1489 649 1478 604 1456 c 0
 559 1434 523 1398 497 1348 c 0
 472 1299 459 1215 459 1096 c 2
 459 1024 l 1
 1111 1024 l 1
 1111 0 l 1
 925 0 l 1
 925 869 l 1
 459 869 l 1
 459 0 l 1
EndSplineSet
EndChar

StartChar: fl
Encoding: 64258 64258 193
Width: 1229
Flags: MW
HStem: 0 21G<219 405 219 219 964 964 964 1150> 869 155<2 219 2 219 405 817> 1489 156<677.5 742.5 641.5 744.5>
VStem: 219 186<0 869 1024 1076 1076 1096> 964 186<0 1441 1441 1441 0 1614>
LayerCount: 2
Fore
SplineSet
405 0 m 1
 219 0 l 1
 219 869 l 1
 2 869 l 1
 2 1024 l 1
 219 1024 l 1
 219 1076 l 2
 219 1223 236 1332 269 1403 c 0
 302 1474 354 1532 423 1577 c 0
 493 1622 585 1645 698 1645 c 0
 787 1645 876 1635 964 1614 c 1
 1150 1614 l 1
 1150 0 l 1
 964 0 l 1
 964 1441 l 1
 868 1473 782 1489 707 1489 c 0
 648 1489 595 1478 550 1456 c 0
 505 1434 469 1398 443 1348 c 0
 418 1299 405 1215 405 1096 c 2
 405 1024 l 1
 817 1024 l 1
 817 869 l 1
 405 869 l 1
 405 0 l 1
EndSplineSet
EndChar

StartChar: daggerdbl
Encoding: 8225 8225 194
Width: 1229
Flags: MW
HStem: 0 21G<180 180 1049 1049> 1124 20G<537 537 692 692> 1532 20G<504 728 728 728>
VStem: 537 155<37 37 195 989>
LayerCount: 2
Fore
SplineSet
692 37 m 1
 728 -372 l 1
 504 -372 l 1
 537 37 l 1
 180 0 l 1
 180 224 l 1
 537 195 l 1
 537 989 l 1
 180 962 l 1
 180 1176 l 1
 537 1144 l 1
 504 1552 l 1
 728 1552 l 1
 692 1144 l 1
 1049 1176 l 1
 1049 962 l 1
 692 989 l 1
 692 195 l 1
 1049 224 l 1
 1049 0 l 1
 692 37 l 1
EndSplineSet
EndChar

StartChar: middot
Encoding: 183 183 195
Width: 1229
Flags: MW
HStem: 380 326<590.5 637.5>
VStem: 451 326<522.5 563.5>
LayerCount: 2
Fore
SplineSet
614 706 m 0
 661 706 699 689 730 655 c 0
 761 622 777 584 777 543 c 0
 777 502 761 464 730 430 c 0
 699 397 661 380 614 380 c 0
 567 380 528 397 497 430 c 0
 466 464 451 502 451 543 c 0
 451 584 466 622 497 655 c 0
 528 689 567 706 614 706 c 0
EndSplineSet
EndChar

StartChar: quotesinglbase
Encoding: 8218 8218 196
Width: 1229
Flags: MW
HStem: -434 21G<424 424> -34 21G<585 616>
VStem: 616 188
LayerCount: 2
Fore
SplineSet
424 -434 m 1
 424 -310 l 1
 472 -297 508 -279 533 -255 c 0
 558 -232 577 -204 590 -173 c 0
 603 -142 612 -95 616 -34 c 1
 554 -34 508 -17 479 18 c 0
 450 53 435 91 435 131 c 0
 435 177 451 216 484 247 c 0
 517 279 555 295 598 295 c 0
 654 295 702 271 743 222 c 0
 784 174 804 108 804 24 c 0
 801 -190 657 -405 424 -434 c 1
EndSplineSet
EndChar

StartChar: quotedblbase
Encoding: 8222 8222 197
Width: 1229
Flags: MW
HStem: -434 21G<180 180 669 669> -34 21G<341 372 830 861>
VStem: 372 188 861 188
LayerCount: 2
Fore
SplineSet
180 -434 m 1
 180 -310 l 1
 228 -297 264 -279 289 -255 c 0
 314 -232 333 -204 346 -173 c 0
 359 -142 368 -95 372 -34 c 1
 310 -34 264 -17 235 18 c 0
 206 53 191 91 191 131 c 0
 191 177 207 216 240 247 c 0
 273 279 311 295 354 295 c 0
 410 295 458 271 499 222 c 0
 540 174 560 108 560 24 c 0
 557 -190 413 -405 180 -434 c 1
669 -434 m 1
 669 -310 l 1
 716 -297 753 -279 778 -255 c 0
 803 -232 822 -204 835 -173 c 0
 848 -142 857 -95 861 -34 c 1
 799 -34 753 -17 724 18 c 0
 695 53 680 91 680 131 c 0
 680 177 696 216 728 247 c 0
 761 279 799 295 842 295 c 0
 899 295 947 271 988 222 c 0
 1029 174 1049 108 1049 24 c 0
 1046 -190 902 -405 669 -434 c 1
EndSplineSet
EndChar

StartChar: perthousand
Encoding: 8240 8240 198
Width: 1229
Flags: MW
HStem: 0 109<490.5 547.5 490.5 564.5 934.5 974.5> 605 109<490.5 547.5 917.5 974.5> 838 108<252.5 309.5 252.5 321.5> 1443 109<252.5 309.5>
VStem: 2 124<1164.5 1225.5 1164.5 1252.5> 240 124<326.5 387.5 326.5 413.5> 436 125<1163.5 1226> 674 117<326.5 387.5 326.5 388.5> 1101 127<325.5 388.5>
LayerCount: 2
Fore
SplineSet
281 1552 m 0
 362 1552 428 1521 481 1460 c 0
 534 1399 561 1311 561 1195 c 0
 561 1079 534 990 481 929 c 0
 428 868 362 838 281 838 c 0
 200 838 134 869 81 930 c 0
 28 991 2 1080 2 1195 c 0
 2 1310 28 1399 81 1460 c 0
 134 1521 200 1552 281 1552 c 0
281 1443 m 0
 224 1443 184 1417 161 1364 c 0
 138 1312 126 1256 126 1195 c 0
 126 1134 138 1077 161 1024 c 0
 184 972 224 946 281 946 c 0
 338 946 378 972 401 1023 c 0
 424 1075 436 1132 436 1195 c 0
 436 1257 424 1314 401 1365 c 0
 378 1417 338 1443 281 1443 c 0
1228 1259 m 1
 2 457 l 1
 2 584 l 1
 1228 1390 l 1
 1228 1259 l 1
734 601 m 1
 801 692 871 714 947 714 c 0
 1029 714 1096 683 1149 622 c 0
 1202 561 1228 472 1228 357 c 0
 1228 238 1201 149 1147 89 c 0
 1093 30 1028 0 951 0 c 0
 918 0 883 6 844 19 c 0
 806 32 769 64 734 114 c 1
 683 38 611 0 518 0 c 0
 439 0 372 30 319 91 c 0
 266 152 240 240 240 357 c 0
 240 470 266 557 317 620 c 0
 368 683 437 714 524 714 c 0
 612 714 682 677 734 601 c 1
519 605 m 0
 462 605 421 579 398 527 c 0
 375 475 364 418 364 357 c 0
 364 296 375 239 398 187 c 0
 421 135 462 109 519 109 c 0
 576 109 616 135 639 186 c 0
 662 237 674 294 674 357 c 0
 674 420 662 477 639 528 c 0
 616 579 576 605 519 605 c 0
946 605 m 0
 889 605 848 579 825 527 c 0
 802 475 791 418 791 357 c 0
 791 296 802 239 825 187 c 0
 848 135 889 109 946 109 c 0
 1003 109 1043 135 1066 186 c 0
 1089 237 1101 294 1101 357 c 0
 1101 420 1089 477 1066 528 c 0
 1043 579 1003 605 946 605 c 0
EndSplineSet
EndChar

StartChar: Acircumflex
Encoding: 194 194 199
Width: 1229
Flags: MW
HStem: 0 21G<33 227 33 33 984 984 984 1197> 341 155<332 833 380 833 380 878> 1532 20G<511 716 716 716>
VStem: 33 1164<0 0>
LayerCount: 2
Fore
SplineSet
332 341 m 1
 227 0 l 1
 33 0 l 1
 511 1552 l 1
 716 1552 l 1
 1197 0 l 1
 984 0 l 1
 878 341 l 1
 332 341 l 1
563 1085 m 1
 380 496 l 1
 833 496 l 1
 646 1085 l 1
 602 1241 l 1
 563 1085 l 1
754 1722 m 1
 615 1890 l 1
 475 1722 l 1
 320 1722 l 1
 553 2048 l 1
 677 2048 l 1
 910 1722 l 1
 754 1722 l 1
EndSplineSet
EndChar

StartChar: Ecircumflex
Encoding: 202 202 200
Width: 1229
Flags: MW
HStem: 0 171<405 1041 405 1041> 714 155<405 963 405 963> 1396 156<405 1025 405 405>
VStem: 203 202<171 171 171 714 869 1396>
LayerCount: 2
Fore
SplineSet
405 171 m 1
 1041 171 l 1
 1041 0 l 1
 203 0 l 1
 203 1552 l 1
 1025 1552 l 1
 1025 1396 l 1
 405 1396 l 1
 405 869 l 1
 963 869 l 1
 963 714 l 1
 405 714 l 1
 405 171 l 1
754 1722 m 1
 615 1890 l 1
 475 1722 l 1
 320 1722 l 1
 553 2048 l 1
 677 2048 l 1
 910 1722 l 1
 754 1722 l 1
EndSplineSet
EndChar

StartChar: Aacute
Encoding: 193 193 201
Width: 1229
Flags: MW
HStem: 0 21G<33 227 33 33 984 984 984 1197> 341 155<332 833 380 833 380 878> 1532 20G<511 716 716 716>
VStem: 33 1164<0 0>
LayerCount: 2
Fore
SplineSet
332 341 m 1
 227 0 l 1
 33 0 l 1
 511 1552 l 1
 716 1552 l 1
 1197 0 l 1
 984 0 l 1
 878 341 l 1
 332 341 l 1
563 1085 m 1
 380 496 l 1
 833 496 l 1
 646 1085 l 1
 602 1241 l 1
 563 1085 l 1
526 1722 m 1
 356 1722 l 1
 652 2048 l 1
 868 2048 l 1
 526 1722 l 1
EndSplineSet
EndChar

StartChar: Edieresis
Encoding: 203 203 202
Width: 1229
Flags: MW
HStem: 0 171<405 1041 405 1041> 714 155<405 963 405 963> 1396 156<405 1025 405 405> 1722 248<388.5 421.5 388.5 422 823.5 856.5>
VStem: 203 202<171 171 171 714 869 1396> 715 326
LayerCount: 2
Fore
SplineSet
405 171 m 1
 1041 171 l 1
 1041 0 l 1
 203 0 l 1
 203 1552 l 1
 1025 1552 l 1
 1025 1396 l 1
 405 1396 l 1
 405 869 l 1
 963 869 l 1
 963 714 l 1
 405 714 l 1
 405 171 l 1
405 1722 m 0
 371 1722 342 1734 317 1758 c 0
 293 1782 281 1811 281 1846 c 0
 281 1881 293 1910 318 1934 c 0
 343 1958 372 1970 405 1970 c 0
 438 1970 467 1958 492 1934 c 0
 517 1910 529 1881 529 1846 c 0
 529 1811 517 1782 492 1758 c 0
 468 1734 439 1722 405 1722 c 0
840 1722 m 0
 806 1722 777 1734 752 1758 c 0
 727 1782 715 1811 715 1846 c 0
 715 1881 727 1910 752 1934 c 0
 777 1958 807 1970 840 1970 c 0
 873 1970 902 1958 927 1934 c 0
 952 1910 964 1881 964 1846 c 0
 964 1811 952 1782 927 1758 c 0
 902 1734 873 1722 840 1722 c 0
EndSplineSet
EndChar

StartChar: Egrave
Encoding: 200 200 203
Width: 1229
Flags: MW
HStem: 0 171<405 1041 405 1041> 714 155<405 963 405 963> 1396 156<405 1025 405 405>
VStem: 203 202<171 171 171 714 869 1396>
LayerCount: 2
Fore
SplineSet
405 171 m 1
 1041 171 l 1
 1041 0 l 1
 203 0 l 1
 203 1552 l 1
 1025 1552 l 1
 1025 1396 l 1
 405 1396 l 1
 405 869 l 1
 963 869 l 1
 963 714 l 1
 405 714 l 1
 405 171 l 1
583 2048 m 1
 879 1722 l 1
 709 1722 l 1
 367 2048 l 1
 583 2048 l 1
EndSplineSet
EndChar

StartChar: Iacute
Encoding: 205 205 204
Width: 1229
Flags: MW
HStem: 0 155<172 513 715 1056 172 513> 1396 156<172 513 172 1056 715 715 715 1056>
VStem: 513 202<155 1396 155 1396>
LayerCount: 2
Fore
SplineSet
1056 0 m 1
 172 0 l 1
 172 155 l 1
 513 155 l 1
 513 1396 l 1
 172 1396 l 1
 172 1552 l 1
 1056 1552 l 1
 1056 1396 l 1
 715 1396 l 1
 715 155 l 1
 1056 155 l 1
 1056 0 l 1
529 1722 m 1
 359 1722 l 1
 655 2048 l 1
 871 2048 l 1
 529 1722 l 1
EndSplineSet
EndChar

StartChar: Icircumflex
Encoding: 206 206 205
Width: 1229
Flags: MW
HStem: 0 155<172 513 715 1056 172 513> 1396 156<172 513 172 1056 715 715 715 1056>
VStem: 513 202<155 1396 155 1396>
LayerCount: 2
Fore
SplineSet
1056 0 m 1
 172 0 l 1
 172 155 l 1
 513 155 l 1
 513 1396 l 1
 172 1396 l 1
 172 1552 l 1
 1056 1552 l 1
 1056 1396 l 1
 715 1396 l 1
 715 155 l 1
 1056 155 l 1
 1056 0 l 1
754 1722 m 1
 615 1890 l 1
 475 1722 l 1
 320 1722 l 1
 553 2048 l 1
 677 2048 l 1
 910 1722 l 1
 754 1722 l 1
EndSplineSet
EndChar

StartChar: Idieresis
Encoding: 207 207 206
Width: 1229
Flags: MW
HStem: 0 155<172 513 715 1056 172 513> 1396 156<172 513 172 1056 715 715 715 1056> 1722 248<380.5 413.5 380.5 414 815.5 848.5>
VStem: 513 202<155 1396 155 1396>
LayerCount: 2
Fore
SplineSet
1056 0 m 1
 172 0 l 1
 172 155 l 1
 513 155 l 1
 513 1396 l 1
 172 1396 l 1
 172 1552 l 1
 1056 1552 l 1
 1056 1396 l 1
 715 1396 l 1
 715 155 l 1
 1056 155 l 1
 1056 0 l 1
397 1722 m 0
 363 1722 334 1734 309 1758 c 0
 285 1782 273 1811 273 1846 c 0
 273 1881 285 1910 310 1934 c 0
 335 1958 364 1970 397 1970 c 0
 430 1970 459 1958 484 1934 c 0
 509 1910 521 1881 521 1846 c 0
 521 1811 509 1782 484 1758 c 0
 460 1734 431 1722 397 1722 c 0
832 1722 m 0
 798 1722 769 1734 744 1758 c 0
 719 1782 707 1811 707 1846 c 0
 707 1881 719 1910 744 1934 c 0
 769 1958 799 1970 832 1970 c 0
 865 1970 894 1958 919 1934 c 0
 944 1910 956 1881 956 1846 c 0
 956 1811 944 1782 919 1758 c 0
 894 1734 865 1722 832 1722 c 0
EndSplineSet
EndChar

StartChar: Igrave
Encoding: 204 204 207
Width: 1229
Flags: MW
HStem: 0 155<172 513 715 1056 172 513> 1396 156<172 513 172 1056 715 715 715 1056>
VStem: 513 202<155 1396 155 1396>
LayerCount: 2
Fore
SplineSet
1056 0 m 1
 172 0 l 1
 172 155 l 1
 513 155 l 1
 513 1396 l 1
 172 1396 l 1
 172 1552 l 1
 1056 1552 l 1
 1056 1396 l 1
 715 1396 l 1
 715 155 l 1
 1056 155 l 1
 1056 0 l 1
575 2048 m 1
 871 1722 l 1
 701 1722 l 1
 359 2048 l 1
 575 2048 l 1
EndSplineSet
EndChar

StartChar: Oacute
Encoding: 211 211 208
Width: 1229
Flags: MW
HStem: -47 156<565.5 662.5 565.5 702.5> 1443 155<565.5 662.5>
VStem: 71 202<664 888 664 901.5> 955 202<664 888>
LayerCount: 2
Fore
SplineSet
614 -47 m 0
 438 -47 303 27 210 175 c 0
 117 324 71 524 71 776 c 0
 71 1027 117 1227 210 1375 c 0
 303 1524 438 1598 614 1598 c 0
 791 1598 925 1524 1018 1375 c 0
 1111 1227 1157 1027 1157 776 c 0
 1157 524 1111 324 1018 175 c 0
 925 27 791 -47 614 -47 c 0
614 109 m 0
 711 109 792 164 857 274 c 0
 922 385 955 552 955 776 c 0
 955 1000 922 1167 857 1277 c 0
 792 1388 711 1443 614 1443 c 0
 517 1443 435 1388 370 1277 c 0
 305 1167 273 1000 273 776 c 0
 273 552 305 385 370 274 c 0
 435 164 517 109 614 109 c 0
529 1722 m 1
 359 1722 l 1
 655 2048 l 1
 871 2048 l 1
 529 1722 l 1
EndSplineSet
EndChar

StartChar: Ocircumflex
Encoding: 212 212 209
Width: 1229
Flags: MW
HStem: -47 156<565.5 662.5 565.5 702.5> 1443 155<565.5 662.5>
VStem: 71 202<664 888 664 901.5> 955 202<664 888>
LayerCount: 2
Fore
SplineSet
614 -47 m 0
 438 -47 303 27 210 175 c 0
 117 324 71 524 71 776 c 0
 71 1027 117 1227 210 1375 c 0
 303 1524 438 1598 614 1598 c 0
 791 1598 925 1524 1018 1375 c 0
 1111 1227 1157 1027 1157 776 c 0
 1157 524 1111 324 1018 175 c 0
 925 27 791 -47 614 -47 c 0
614 109 m 0
 711 109 792 164 857 274 c 0
 922 385 955 552 955 776 c 0
 955 1000 922 1167 857 1277 c 0
 792 1388 711 1443 614 1443 c 0
 517 1443 435 1388 370 1277 c 0
 305 1167 273 1000 273 776 c 0
 273 552 305 385 370 274 c 0
 435 164 517 109 614 109 c 0
754 1722 m 1
 615 1890 l 1
 475 1722 l 1
 320 1722 l 1
 553 2048 l 1
 677 2048 l 1
 910 1722 l 1
 754 1722 l 1
EndSplineSet
EndChar

StartChar: apple
Encoding: 63743 63743 210
Width: 1229
Flags: MW
HStem: 0 21G<398.5 436 850 892>
VStem: 85 1072
LayerCount: 2
Fore
SplineSet
1124 834 m 1
 1015 758 983 684 983 595 c 0
 983 560 989 527 1000 498 c 0
 1012 469 1029 441 1050 414 c 0
 1071 388 1107 362 1157 336 c 1
 1138 279 1108 221 1067 162 c 0
 986 45 922 0 862 0 c 0
 838 0 806 8 765 23 c 2
 746 30 l 1
 715 43 l 2
 693 50 669 53 642 53 c 0
 615 53 584 47 550 35 c 2
 526 26 l 1
 496 14 l 2
 472 5 448 0 424 0 c 0
 373 0 319 35 261 106 c 0
 145 249 85 416 85 583 c 0
 85 690 115 780 176 851 c 0
 237 922 320 958 425 958 c 0
 463 958 499 951 532 937 c 2
 555 928 l 1
 579 918 l 2
 600 909 617 905 630 905 c 0
 649 905 667 909 686 916 c 2
 718 928 l 1
 741 937 l 2
 778 951 820 958 865 958 c 0
 972 958 1059 917 1124 834 c 1
850 1240 m 1
 870 1243 l 1
 871 1228 872 1217 872 1209 c 0
 872 1168 860 1125 836 1081 c 0
 788 993 707 942 614 942 c 1
 612 958 611 970 611 977 c 0
 610 1083 716 1224 850 1240 c 1
EndSplineSet
EndChar

StartChar: Ograve
Encoding: 210 210 211
Width: 1229
Flags: MW
HStem: -47 156<565.5 662.5 565.5 702.5> 1443 155<565.5 662.5>
VStem: 71 202<664 888 664 901.5> 955 202<664 888>
LayerCount: 2
Fore
SplineSet
614 -47 m 0
 438 -47 303 27 210 175 c 0
 117 324 71 524 71 776 c 0
 71 1027 117 1227 210 1375 c 0
 303 1524 438 1598 614 1598 c 0
 791 1598 925 1524 1018 1375 c 0
 1111 1227 1157 1027 1157 776 c 0
 1157 524 1111 324 1018 175 c 0
 925 27 791 -47 614 -47 c 0
614 109 m 0
 711 109 792 164 857 274 c 0
 922 385 955 552 955 776 c 0
 955 1000 922 1167 857 1277 c 0
 792 1388 711 1443 614 1443 c 0
 517 1443 435 1388 370 1277 c 0
 305 1167 273 1000 273 776 c 0
 273 552 305 385 370 274 c 0
 435 164 517 109 614 109 c 0
575 2048 m 1
 871 1722 l 1
 701 1722 l 1
 359 2048 l 1
 575 2048 l 1
EndSplineSet
EndChar

StartChar: Uacute
Encoding: 218 218 212
Width: 1229
Flags: MW
HStem: -47 155<562.5 649 562.5 713.5> 1532 20G<126 328 328 328 917 1103 1103 1103>
VStem: 126 202<559 1552> 917 186<612 1552>
LayerCount: 2
Fore
SplineSet
126 559 m 2
 126 1552 l 1
 328 1552 l 1
 328 533 l 2
 328 399 339 307 361 258 c 0
 406 161 506 108 619 108 c 0
 679 108 732 122 779 149 c 0
 826 177 861 220 883 279 c 0
 906 338 917 449 917 612 c 2
 917 1552 l 1
 1103 1552 l 1
 1103 539 l 2
 1103 394 1081 281 1038 199 c 0
 953 36 819 -47 608 -47 c 0
 511 -47 425 -29 351 7 c 0
 277 43 221 97 183 169 c 0
 145 241 126 371 126 559 c 2
529 1722 m 1
 359 1722 l 1
 655 2048 l 1
 871 2048 l 1
 529 1722 l 1
EndSplineSet
EndChar

StartChar: Ucircumflex
Encoding: 219 219 213
Width: 1229
Flags: MW
HStem: -47 155<562.5 649 562.5 713.5> 1532 20G<126 328 328 328 917 1103 1103 1103>
VStem: 126 202<559 1552> 917 186<612 1552>
LayerCount: 2
Fore
SplineSet
126 559 m 2
 126 1552 l 1
 328 1552 l 1
 328 533 l 2
 328 399 339 307 361 258 c 0
 406 161 506 108 619 108 c 0
 679 108 732 122 779 149 c 0
 826 177 861 220 883 279 c 0
 906 338 917 449 917 612 c 2
 917 1552 l 1
 1103 1552 l 1
 1103 539 l 2
 1103 394 1081 281 1038 199 c 0
 953 36 819 -47 608 -47 c 0
 511 -47 425 -29 351 7 c 0
 277 43 221 97 183 169 c 0
 145 241 126 371 126 559 c 2
754 1722 m 1
 615 1890 l 1
 475 1722 l 1
 320 1722 l 1
 553 2048 l 1
 677 2048 l 1
 910 1722 l 1
 754 1722 l 1
EndSplineSet
EndChar

StartChar: Ugrave
Encoding: 217 217 214
Width: 1229
Flags: MW
HStem: -47 155<562.5 649 562.5 713.5> 1532 20G<126 328 328 328 917 1103 1103 1103>
VStem: 126 202<559 1552> 917 186<612 1552>
LayerCount: 2
Fore
SplineSet
126 559 m 2
 126 1552 l 1
 328 1552 l 1
 328 533 l 2
 328 399 339 307 361 258 c 0
 406 161 506 108 619 108 c 0
 679 108 732 122 779 149 c 0
 826 177 861 220 883 279 c 0
 906 338 917 449 917 612 c 2
 917 1552 l 1
 1103 1552 l 1
 1103 539 l 2
 1103 394 1081 281 1038 199 c 0
 953 36 819 -47 608 -47 c 0
 511 -47 425 -29 351 7 c 0
 277 43 221 97 183 169 c 0
 145 241 126 371 126 559 c 2
575 2048 m 1
 871 1722 l 1
 701 1722 l 1
 359 2048 l 1
 575 2048 l 1
EndSplineSet
EndChar

StartChar: dotlessi
Encoding: 305 305 215
Width: 1229
Flags: MW
HStem: 0 155<653 964 653 964> 962 155<157 467 157 653>
VStem: 467 186<155 962 962 962>
LayerCount: 2
Fore
SplineSet
964 0 m 1
 467 0 l 1
 467 962 l 1
 157 962 l 1
 157 1117 l 1
 653 1117 l 1
 653 155 l 1
 964 155 l 1
 964 0 l 1
EndSplineSet
EndChar

StartChar: circumflex
Encoding: 710 710 216
Width: 1229
Flags: MW
HStem: 1288 326<320 677 320 677 553 910 553 754>
VStem: 320 590<1288 1288>
LayerCount: 2
Fore
SplineSet
754 1288 m 1
 615 1456 l 1
 475 1288 l 1
 320 1288 l 1
 553 1614 l 1
 677 1614 l 1
 910 1288 l 1
 754 1288 l 1
EndSplineSet
EndChar

StartChar: tilde
Encoding: 732 732 217
Width: 1229
Flags: MW
HStem: 1287 140<743 774 743 788.5> 1404 140<472.5 490.5>
VStem: 289 125<1288 1311.5 1288 1376> 814 127<1505 1544>
LayerCount: 2
Fore
SplineSet
414 1288 m 1xb0
 289 1288 l 1
 289 1464 366 1544 470 1544 c 0
 511 1544 553 1531 596 1504 c 2x70
 638 1479 l 2
 693 1444 732 1427 754 1427 c 0
 794 1427 814 1466 814 1544 c 1
 941 1544 l 1
 937 1476 928 1426 914 1395 c 0
 886 1332 823 1287 754 1287 c 0
 711 1287 664 1303 613 1336 c 2
 569 1364 l 1xb0
 545 1381 l 2
 522 1396 501 1404 480 1404 c 0
 465 1404 451 1396 436 1381 c 0x70
 421 1366 414 1335 414 1288 c 1xb0
EndSplineSet
EndChar

StartChar: overscore
Encoding: 175 175 218
Width: 1229
Flags: MW
HStem: 1288 124<335 894 335 894>
VStem: 335 559<1288 1412 1288 1412>
LayerCount: 2
Fore
SplineSet
894 1288 m 1
 335 1288 l 1
 335 1412 l 1
 894 1412 l 1
 894 1288 l 1
EndSplineSet
EndChar

StartChar: breve
Encoding: 728 728 219
Width: 1229
Flags: MW
HStem: 1288 132<616 616>
VStem: 320 590<1614 1614>
LayerCount: 2
Fore
SplineSet
320 1614 m 1
 448 1614 l 1
 454 1563 473 1517 506 1478 c 0
 539 1439 575 1420 616 1420 c 0
 657 1420 693 1440 725 1479 c 0
 757 1519 776 1564 782 1614 c 1
 910 1614 l 1
 888 1397 748 1294 616 1288 c 1
 484 1294 343 1397 320 1614 c 1
EndSplineSet
EndChar

StartChar: dotaccent
Encoding: 729 729 220
Width: 1229
Flags: MW
HStem: 1366 245<598.5 631.5 598.5 631.5>
VStem: 492 245<1471 1505>
LayerCount: 2
Fore
SplineSet
615 1366 m 0
 581 1366 552 1378 528 1401 c 0
 504 1425 492 1454 492 1488 c 0
 492 1522 504 1551 528 1575 c 0
 553 1599 582 1611 615 1611 c 0
 648 1611 676 1599 700 1575 c 0
 725 1551 737 1522 737 1488 c 0
 737 1454 725 1425 701 1401 c 0
 677 1378 648 1366 615 1366 c 0
EndSplineSet
EndChar

StartChar: ring
Encoding: 730 730 221
Width: 1229
Flags: MW
HStem: 1288 93<588.5 640 588.5 640> 1567 93<588.5 640>
VStem: 428 93<1449.5 1499> 707 93<1449.5 1499 1449.5 1499.5>
LayerCount: 2
Fore
SplineSet
614 1381 m 0
 666 1381 707 1423 707 1474 c 0
 707 1525 666 1567 614 1567 c 0
 563 1567 521 1525 521 1474 c 0
 521 1423 563 1381 614 1381 c 0
614 1288 m 0
 562 1288 518 1307 482 1344 c 0
 446 1381 428 1425 428 1474 c 0
 428 1524 446 1567 482 1604 c 0
 519 1641 563 1660 614 1660 c 0
 666 1660 710 1641 746 1604 c 0
 782 1567 800 1524 800 1474 c 0
 800 1425 782 1381 746 1344 c 0
 710 1307 666 1288 614 1288 c 0
EndSplineSet
EndChar

StartChar: cedilla
Encoding: 184 184 222
Width: 1229
Flags: MW
HStem: -435 86<542.5 634.5>
VStem: 444 341<-407 -273 -318 -273> 654 131<-291.5 -273 -307.5 -261.5>
LayerCount: 2
Fore
SplineSet
577 0 m 1xc0
 685 0 l 1
 612 -131 l 1
 683 -145 730 -167 752 -196 c 0
 774 -226 785 -257 785 -289 c 0
 785 -326 770 -359 741 -389 c 0
 712 -420 666 -435 603 -435 c 0
 548 -435 495 -426 444 -407 c 1
 444 -318 l 1
 483 -339 522 -349 563 -349 c 0
 586 -349 607 -342 626 -328 c 0
 645 -314 654 -299 654 -284 c 0xa0
 654 -239 592 -210 468 -197 c 1
 577 0 l 1xc0
EndSplineSet
EndChar

StartChar: hungarumlaut
Encoding: 733 733 223
Width: 1229
Flags: MW
HStem: 1288 326<413 678 413 678 555 685 555 803>
VStem: 413 543<1288 1614>
LayerCount: 2
Fore
SplineSet
678 1614 m 1
 529 1288 l 1
 413 1288 l 1
 555 1614 l 1
 678 1614 l 1
956 1614 m 1
 803 1288 l 1
 685 1288 l 1
 830 1614 l 1
 956 1614 l 1
EndSplineSet
EndChar

StartChar: ogonek
Encoding: 731 731 224
Width: 1229
Flags: MW
HStem: -434 107<661.5 678.5>
VStem: 444 140<-260.5 -224 -260.5 -216.5>
LayerCount: 2
Fore
SplineSet
592 0 m 1
 785 0 l 1
 725 -28 676 -67 639 -117 c 0
 602 -167 584 -208 584 -240 c 0
 584 -281 618 -327 705 -327 c 0
 728 -327 755 -321 785 -308 c 1
 785 -405 l 1
 741 -424 699 -434 658 -434 c 0
 596 -434 545 -417 504 -384 c 0
 464 -351 444 -308 444 -257 c 0
 444 -176 493 -91 592 0 c 1
EndSplineSet
EndChar

StartChar: caron
Encoding: 711 711 225
Width: 1229
Flags: MW
HStem: 1288 326<320 677 320 553>
VStem: 320 590<1614 1614>
LayerCount: 2
Fore
SplineSet
475 1614 m 1
 615 1446 l 1
 754 1614 l 1
 910 1614 l 1
 677 1288 l 1
 553 1288 l 1
 320 1614 l 1
 475 1614 l 1
EndSplineSet
EndChar

StartChar: Lslash
Encoding: 321 321 226
Width: 1229
Flags: MW
HStem: 0 171<421 1057 421 1057> 1532 20G<219 421 421 421>
VStem: 219 202<171 171 171 697 697 697 935 1552>
LayerCount: 2
Fore
SplineSet
421 171 m 1
 1057 171 l 1
 1057 0 l 1
 219 0 l 1
 219 697 l 1
 2 619 l 1
 2 779 l 1
 219 860 l 1
 219 1552 l 1
 421 1552 l 1
 421 935 l 1
 646 1014 l 1
 646 850 l 1
 421 771 l 1
 421 171 l 1
EndSplineSet
EndChar

StartChar: lslash
Encoding: 322 322 227
Width: 1229
Flags: MW
HStem: 0 155<638 987 638 987> 1458 156<118 452 118 638>
VStem: 452 186<155 695 695 695 935 1458 1458 1458>
LayerCount: 2
Fore
SplineSet
987 0 m 1
 452 0 l 1
 452 695 l 1
 118 566 l 1
 118 734 l 1
 452 863 l 1
 452 1458 l 1
 118 1458 l 1
 118 1614 l 1
 638 1614 l 1
 638 935 l 1
 987 1068 l 1
 987 900 l 1
 638 766 l 1
 638 155 l 1
 987 155 l 1
 987 0 l 1
EndSplineSet
EndChar

StartChar: Scaron
Encoding: 352 352 228
Width: 1229
Flags: MW
HStem: -47 156<527.5 620.5 527.5 648.5> 1443 155<619 716>
VStem: 157 318 173 201<1179.5 1242.5> 902 8
LayerCount: 2
Fore
SplineSet
157 33 m 1xe8
 157 223 l 1xe8
 317 147 462 109 593 109 c 0
 648 109 700 119 750 140 c 0
 850 183 902 267 902 359 c 0
 902 413 884 463 849 510 c 0
 814 557 747 609 650 666 c 2
 548 725 l 1
 445 784 l 2
 264 891 173 1025 173 1184 c 0
 173 1301 213 1399 294 1478 c 0
 375 1558 502 1598 674 1598 c 0
 785 1598 892 1582 995 1550 c 1
 995 1377 l 1
 881 1421 770 1443 662 1443 c 0
 576 1443 506 1420 453 1375 c 0
 400 1330 374 1275 374 1211 c 0
 374 1148 394 1095 435 1053 c 0xd8
 476 1011 528 972 591 937 c 2
 669 890 l 1
 766 831 l 1
 848 783 l 2
 1018 679 1103 548 1103 391 c 0
 1103 271 1059 168 972 82 c 0
 885 -4 745 -47 552 -47 c 0
 491 -47 432 -42 376 -31 c 0
 321 -21 248 0 157 33 c 1xe8
475 2048 m 1
 615 1880 l 1
 754 2048 l 1
 910 2048 l 1
 677 1722 l 1
 553 1722 l 1
 320 2048 l 1
 475 2048 l 1
EndSplineSet
EndChar

StartChar: scaron
Encoding: 353 353 229
Width: 1229
Flags: MW
HStem: -31 155<588 664 588 689.5> 993 155<604.5 698>
VStem: 199 194<828 868.5 828 878> 882 194<260.5 298>
LayerCount: 2
Fore
SplineSet
168 59 m 1
 168 256 l 1
 243 207 322 173 405 153 c 0
 488 134 559 124 617 124 c 0
 711 124 779 139 820 169 c 0
 861 200 882 238 882 283 c 0
 882 313 872 339 853 360 c 0
 834 381 786 408 709 439 c 2
 645 465 l 1
 516 516 l 2
 377 570 290 620 254 666 c 0
 217 711 199 767 199 832 c 0
 199 924 234 1000 305 1059 c 0
 376 1118 492 1148 651 1148 c 0
 770 1148 883 1131 990 1096 c 1
 990 927 l 1
 867 971 752 993 644 993 c 0
 565 993 504 979 459 951 c 0
 415 924 393 889 393 848 c 0
 393 808 412 776 451 752 c 0
 489 728 551 700 637 669 c 2
 763 623 l 2
 878 581 959 535 1006 486 c 0
 1053 437 1076 375 1076 301 c 0
 1076 204 1039 125 964 62 c 0
 890 0 771 -31 608 -31 c 0
 465 -31 319 -1 168 59 c 1
482 1614 m 1
 622 1446 l 1
 761 1614 l 1
 917 1614 l 1
 684 1288 l 1
 560 1288 l 1
 327 1614 l 1
 482 1614 l 1
EndSplineSet
EndChar

StartChar: Zcaron
Encoding: 381 381 230
Width: 1229
Flags: MW
HStem: 0 171<356 1107 122 122> 1396 156<145 859 145 1092 145 1092>
VStem: 122 985<0 171 0 171>
LayerCount: 2
Fore
SplineSet
1107 0 m 1
 122 0 l 1
 122 171 l 1
 859 1396 l 1
 145 1396 l 1
 145 1552 l 1
 1092 1552 l 1
 1092 1396 l 1
 356 171 l 1
 1107 171 l 1
 1107 0 l 1
475 2048 m 1
 615 1880 l 1
 754 2048 l 1
 910 2048 l 1
 677 1722 l 1
 553 1722 l 1
 320 2048 l 1
 475 2048 l 1
EndSplineSet
EndChar

StartChar: zcaron
Encoding: 382 382 231
Width: 1229
Flags: MW
HStem: 0 171<374 1087 133 133> 962 155<149 818 149 1064 149 1064>
VStem: 133 954<0 171 0 171>
LayerCount: 2
Fore
SplineSet
1087 0 m 1
 133 0 l 1
 133 171 l 1
 818 962 l 1
 149 962 l 1
 149 1117 l 1
 1064 1117 l 1
 1064 962 l 1
 374 171 l 1
 1087 171 l 1
 1087 0 l 1
475 1614 m 1
 615 1446 l 1
 754 1614 l 1
 910 1614 l 1
 677 1288 l 1
 553 1288 l 1
 320 1614 l 1
 475 1614 l 1
EndSplineSet
EndChar

StartChar: brokenbar
Encoding: 166 166 232
Width: 1229
Flags: MW
HStem: -47 21G<533 696 533 533> 1578 20G<533 696 696 696>
VStem: 533 163<-47 683 869 1598>
LayerCount: 2
Fore
SplineSet
696 -47 m 1
 533 -47 l 1
 533 683 l 1
 696 683 l 1
 696 -47 l 1
696 869 m 1
 533 869 l 1
 533 1598 l 1
 696 1598 l 1
 696 869 l 1
EndSplineSet
EndChar

StartChar: Eth
Encoding: 208 208 233
Width: 1229
Flags: MW
HStem: 0 171<359 494 494 567> 714 155<2 157 2 157 359 607> 1396 156<359 510 359 359>
VStem: 157 202<171 714 171 714 171 714 869 1396> 949 201<694.5 853.5 694.5 878.5>
LayerCount: 2
Fore
SplineSet
567 0 m 2
 157 0 l 1
 157 714 l 1
 2 714 l 1
 2 869 l 1
 157 869 l 1
 157 1552 l 1
 525 1552 l 2
 707 1552 834 1526 907 1475 c 0
 980 1424 1038 1334 1083 1207 c 0
 1128 1080 1150 935 1150 772 c 0
 1150 617 1128 479 1083 358 c 0
 1038 237 980 147 907 88 c 0
 834 29 721 0 567 0 c 2
359 714 m 1
 359 171 l 1
 494 171 l 2
 640 171 738 192 789 234 c 0
 892 319 949 500 949 804 c 0
 949 953 935 1069 907 1153 c 0
 880 1238 842 1299 793 1338 c 0
 745 1377 651 1396 510 1396 c 2
 359 1396 l 1
 359 869 l 1
 607 869 l 1
 607 714 l 1
 359 714 l 1
EndSplineSet
EndChar

StartChar: eth
Encoding: 240 240 234
Width: 1229
Flags: MW
HStem: -31 155<565.5 664 565.5 696.5> 931 155<565.5 615.5 552.5 664> 1458 156<172 197 172 206>
VStem: 87 194<469 586.5 469 591.5> 948 194<515 586.5>
LayerCount: 2
Fore
SplineSet
886 991 m 1
 861 1056 828 1116 789 1171 c 0
 750 1226 691 1284 610 1344 c 1
 385 1140 l 1
 282 1257 l 1
 463 1418 l 1
 378 1445 289 1458 197 1458 c 2
 172 1458 l 1
 172 1614 l 1
 206 1614 l 2
 285 1614 356 1610 417 1603 c 0
 478 1596 543 1578 610 1549 c 1
 825 1744 l 1
 928 1628 l 1
 750 1468 l 1
 850 1387 926 1305 979 1220 c 0
 1032 1136 1073 1040 1100 932 c 0
 1128 825 1142 718 1142 613 c 0
 1142 417 1096 261 1004 144 c 0
 912 27 781 -31 612 -31 c 0
 454 -31 327 22 231 127 c 0
 135 233 87 369 87 536 c 0
 87 647 109 744 153 826 c 0
 197 908 260 972 341 1017 c 0
 422 1063 508 1086 597 1086 c 0
 634 1086 674 1081 716 1072 c 0
 758 1063 815 1036 886 991 c 1
615 124 m 0
 713 124 793 162 855 237 c 0
 917 313 948 410 948 528 c 0
 948 645 917 742 855 817 c 0
 793 893 713 931 615 931 c 0
 516 931 436 893 374 817 c 0
 312 742 281 645 281 528 c 0
 281 410 312 313 374 237 c 0
 436 162 516 124 615 124 c 0
EndSplineSet
EndChar

StartChar: Yacute
Encoding: 221 221 235
Width: 1229
Flags: MW
HStem: 0 21G<514 716 514 514> 1532 20G<52 281 281 281 970 1177 1177 1177>
VStem: 514 202<0 718>
LayerCount: 2
Fore
SplineSet
716 0 m 1
 514 0 l 1
 514 718 l 1
 52 1552 l 1
 281 1552 l 1
 626 936 l 1
 970 1552 l 1
 1177 1552 l 1
 716 718 l 1
 716 0 l 1
529 1722 m 1
 359 1722 l 1
 655 2048 l 1
 871 2048 l 1
 529 1722 l 1
EndSplineSet
EndChar

StartChar: yacute
Encoding: 253 253 236
Width: 1229
Flags: MW
HStem: -466 155<172.5 226 172.5 266.5> -451 21G<49 49> 1097 20G<67 272 272 272 1027 1214 1214 1214>
VStem: 49 1165
LayerCount: 2
Fore
SplineSet
566 2 m 2xb0
 583 45 l 1
 67 1117 l 1
 272 1117 l 1
 683 279 l 1
 1027 1117 l 1
 1214 1117 l 1
 781 79 l 2
 690 -140 603 -286 520 -358 c 0
 438 -430 332 -466 201 -466 c 0xb0
 144 -466 94 -461 49 -451 c 1x70
 49 -287 l 1
 100 -303 149 -311 196 -311 c 0
 256 -311 309 -299 356 -276 c 0
 403 -253 445 -211 484 -152 c 0
 523 -93 550 -41 566 2 c 2xb0
623 1288 m 1
 453 1288 l 1
 749 1614 l 1
 965 1614 l 1
 623 1288 l 1
EndSplineSet
EndChar

StartChar: Thorn
Encoding: 222 222 237
Width: 1229
Flags: MW
HStem: 0 21G<176 378 176 176> 303 155<378 460 378 465> 1133 155<378 562 378 499> 1532 20G<176 378 378 378>
VStem: 176 202<0 303 0 458 458 1133 1288 1552> 932 202<807 886.5>
LayerCount: 2
Fore
SplineSet
460 303 m 2
 378 303 l 1
 378 0 l 1
 176 0 l 1
 176 1552 l 1
 378 1552 l 1
 378 1288 l 1
 562 1288 l 2
 721 1288 836 1270 909 1234 c 0
 982 1199 1037 1147 1076 1078 c 0
 1115 1009 1134 933 1134 849 c 0
 1134 749 1108 656 1056 570 c 0
 1004 484 931 418 838 372 c 0
 745 326 619 303 460 303 c 2
378 1133 m 1
 378 458 l 1
 465 458 l 2
 590 458 682 474 743 506 c 0
 804 538 850 584 883 645 c 0
 916 706 932 772 932 842 c 0
 932 931 903 1002 844 1054 c 0
 786 1107 671 1133 499 1133 c 2
 378 1133 l 1
EndSplineSet
EndChar

StartChar: thorn
Encoding: 254 254 238
Width: 1229
Flags: MW
HStem: -434 21G<137 323 137 137> -16 156<513.5 565.5 480.5 578.5> -5 21G<371 371> 0 21G<323 323> 970 178<713.5 729.5> 1532 20G<137 323 323 323>
VStem: 137 186<-434 0 -434 166 166 645 866 1552> 909 202<563.5 690.5>
LayerCount: 2
Fore
SplineSet
323 1552 m 1x9e
 323 866 l 1
 380 959 449 1030 528 1077 c 0
 607 1124 680 1148 747 1148 c 0
 840 1148 924 1108 999 1027 c 0
 1074 946 1111 824 1111 660 c 0
 1111 467 1056 304 945 172 c 0
 893 111 835 64 770 32 c 0
 705 0 626 -16 531 -16 c 0xcf
 496 -16 443 -12 371 -5 c 2xae
 323 0 l 1
 323 -434 l 1
 137 -434 l 1
 137 1552 l 1
 323 1552 l 1x9e
323 645 m 1
 323 166 l 1
 390 149 452 140 509 140 c 0
 622 140 716 184 793 272 c 0
 870 361 909 482 909 635 c 0
 909 746 888 830 846 886 c 0
 804 942 756 970 703 970 c 0
 645 970 581 941 511 882 c 0
 442 823 379 744 323 645 c 1
EndSplineSet
EndChar

StartChar: minus
Encoding: 8722 8722 239
Width: 1229
Flags: MW
HStem: 465 156<71 1157 71 1157>
VStem: 71 1086<465 621 465 621>
LayerCount: 2
Fore
SplineSet
71 621 m 1
 1157 621 l 1
 1157 465 l 1
 71 465 l 1
 71 621 l 1
EndSplineSet
EndChar

StartChar: multiply
Encoding: 215 215 240
Width: 1229
Flags: MW
HStem: 0 21G<184 184 1044 1044>
VStem: 71 1086<112 112 112 979>
LayerCount: 2
Fore
SplineSet
1157 112 m 1
 1044 0 l 1
 615 436 l 1
 184 0 l 1
 71 112 l 1
 506 541 l 1
 71 979 l 1
 184 1086 l 1
 615 656 l 1
 1044 1086 l 1
 1157 979 l 1
 725 541 l 1
 1157 112 l 1
EndSplineSet
EndChar

StartChar: onesuperior
Encoding: 185 185 241
Width: 1229
Flags: MW
HStem: 644 124<269 579 719 1021 269 579> 1555 20G<583 719 719 719>
VStem: 579 140<768 1431 1431 1431>
LayerCount: 2
Fore
SplineSet
269 768 m 1
 579 768 l 1
 579 1431 l 1
 482 1377 379 1336 269 1309 c 1
 269 1435 l 1
 390 1471 495 1518 583 1575 c 1
 719 1575 l 1
 719 768 l 1
 1021 768 l 1
 1021 644 l 1
 269 644 l 1
 269 768 l 1
EndSplineSet
EndChar

StartChar: twosuperior
Encoding: 178 178 242
Width: 1229
Flags: MW
HStem: 644 132<399 990 399 990> 1474 124<593.5 634.5>
VStem: 238 161<644 776 776 776 776 779.5> 820 155<1370 1391.5>
LayerCount: 2
Fore
SplineSet
990 776 m 1
 990 644 l 1
 238 644 l 1
 238 760 l 2
 238 799 254 841 287 886 c 0
 320 931 381 987 470 1054 c 2
 554 1116 l 2
 651 1189 719 1243 760 1279 c 0
 800 1314 820 1346 820 1375 c 0
 820 1408 797 1433 750 1449 c 0
 704 1466 658 1474 611 1474 c 0
 576 1474 535 1472 489 1467 c 0
 444 1462 370 1446 269 1417 c 1
 269 1542 l 1
 387 1579 509 1598 635 1598 c 0
 754 1598 840 1578 894 1539 c 0
 948 1500 975 1451 975 1392 c 0
 975 1348 959 1304 926 1261 c 0
 893 1217 830 1161 737 1094 c 2
 646 1029 l 1
 570 975 l 2
 474 904 408 847 399 776 c 1
 990 776 l 1
EndSplineSet
EndChar

StartChar: threesuperior
Encoding: 179 179 243
Width: 1229
Flags: MW
HStem: 621 124<673 763.5 673 770.5> 1086 124<532 615 532 646> 1474 124<668 778.5 665.5 789.5>
VStem: 951 155<1359.5 1396> 1013 155<893.5 973.5>
LayerCount: 2
Fore
SplineSet
400 661 m 1xe8
 400 804 l 1
 519 765 626 745 720 745 c 0
 807 745 877 762 931 795 c 0
 986 829 1013 870 1013 917 c 0xe8
 1013 1030 880 1086 615 1086 c 2
 532 1086 l 1
 532 1210 l 1
 646 1210 l 2
 749 1210 825 1226 875 1258 c 0
 926 1290 951 1325 951 1364 c 0
 951 1428 867 1474 712 1474 c 0
 624 1474 528 1460 423 1431 c 1
 423 1563 l 1
 528 1586 623 1598 708 1598 c 0
 849 1598 952 1576 1017 1531 c 0
 1070 1495 1106 1433 1106 1377 c 0
 1106 1342 1093 1305 1068 1266 c 0xf0
 1043 1227 999 1195 937 1168 c 1
 1085 1129 1168 1043 1168 926 c 0
 1168 835 1125 761 1039 705 c 0
 954 649 841 621 700 621 c 0
 593 621 493 634 400 661 c 1xe8
EndSplineSet
EndChar

StartChar: onehalf
Encoding: 189 189 244
Width: 1229
Flags: MW
HStem: -47 21G<2 162 2 2> 0 124<793 1181 630 630> 644 124<897.5 910.5> 776 124<2 235 398 514 2 235> 1532 20G<235 398 398 398> 1578 20G<1060 1228 1228 1228>
VStem: 235 163<900 1398 1398 1398 900 1552> 1026 155<542 570>
LayerCount: 2
Fore
SplineSet
514 776 m 1
 2 776 l 1
 2 900 l 1
 235 900 l 1
 235 1398 l 1
 2 1243 l 1
 2 1398 l 1
 235 1552 l 1
 398 1552 l 1
 398 900 l 1
 514 900 l 1
 514 776 l 1
1228 1598 m 1
 162 -47 l 1
 2 -47 l 1
 1060 1598 l 1
 1228 1598 l 1
1181 124 m 1
 1181 0 l 1
 630 0 l 1
 630 124 l 2
 630 164 688 253 848 366 c 2
 908 408 l 2
 965 449 999 478 1010 495 c 0
 1021 512 1026 531 1026 553 c 0
 1026 587 1012 611 985 624 c 0
 958 637 927 644 894 644 c 0
 839 644 775 624 700 584 c 1
 700 714 l 1
 789 750 866 768 929 768 c 0
 1008 768 1070 748 1114 709 c 0xff
 1159 670 1181 621 1181 561 c 0
 1181 512 1163 469 1128 430 c 0
 1093 391 1045 351 984 312 c 2
 939 282 l 2
 902 258 872 235 848 212 c 0
 824 189 809 175 793 124 c 1
 1181 124 l 1
EndSplineSet
EndChar

StartChar: onequarter
Encoding: 188 188 245
Width: 1229
Flags: MW
HStem: -47 21G<2 166 2 2> 0 21G<925 1080 925 925> 155 124<680 925 514 514 1080 1228> 776 124<2 235 398 514 2 235> 1532 20G<235 398 398 398> 1578 20G<1059 1228 1228 1228>
VStem: 235 163<900 1398 1398 1398 900 1552> 925 155<0 155 0 155 279 572 572 572>
LayerCount: 2
Fore
SplineSet
514 776 m 1
 2 776 l 1
 2 900 l 1
 235 900 l 1
 235 1398 l 1
 2 1243 l 1
 2 1398 l 1
 235 1552 l 1
 398 1552 l 1
 398 900 l 1
 514 900 l 1
 514 776 l 1
1228 1598 m 1
 166 -47 l 1
 2 -47 l 1
 1059 1598 l 1
 1228 1598 l 1
1080 155 m 1
 1080 0 l 1
 925 0 l 1
 925 155 l 1
 514 155 l 1
 514 279 l 1
 925 768 l 1
 1080 768 l 1
 1080 279 l 1
 1228 279 l 1
 1228 155 l 1
 1080 155 l 1
680 279 m 1
 925 279 l 1
 925 572 l 1
 680 279 l 1
EndSplineSet
EndChar

StartChar: threequarters
Encoding: 190 190 246
Width: 1229
Flags: MW
HStem: -47 21G<2 166 2 2> 0 21G<925 1080 925 925> 155 124<680 925 514 514 1080 1228> 776 124<271.5 332 271.5 335.5> 1102 124<126 199 126 207> 1427 125<284.5 301.5> 1578 20G<1059 1228 1228 1228>
VStem: 406 155<1321 1343> 429 155<976 1010.5> 925 155<0 155 0 155 279 572 572 572>
LayerCount: 2
Fore
SplineSet
199 1102 m 2xfec0
 126 1102 l 1
 126 1226 l 1
 207 1226 l 2
 299 1226 355 1238 375 1262 c 0
 396 1287 406 1310 406 1332 c 0
 406 1354 396 1375 376 1396 c 0
 357 1417 324 1427 279 1427 c 0
 233 1427 167 1414 80 1387 c 1
 80 1509 l 1
 168 1538 248 1552 321 1552 c 0
 408 1552 469 1531 506 1489 c 0
 543 1447 561 1403 561 1357 c 0
 561 1284 523 1223 444 1175 c 1
 537 1138 584 1081 584 1004 c 0
 584 948 559 896 509 848 c 0
 459 800 385 776 286 776 c 0
 217 776 149 787 80 809 c 1
 80 947 l 1
 175 916 247 900 296 900 c 0
 368 900 429 939 429 995 c 0
 429 1026 414 1051 384 1071 c 0
 355 1092 293 1102 199 1102 c 2xfec0
1228 1598 m 1
 166 -47 l 1
 2 -47 l 1xff40
 1059 1598 l 1
 1228 1598 l 1
1080 155 m 1
 1080 0 l 1
 925 0 l 1
 925 155 l 1
 514 155 l 1
 514 279 l 1
 925 768 l 1
 1080 768 l 1
 1080 279 l 1
 1228 279 l 1
 1228 155 l 1
 1080 155 l 1
680 279 m 1
 925 279 l 1
 925 572 l 1
 680 279 l 1
EndSplineSet
EndChar

StartChar: franc
Encoding: 8355 8355 247
Width: 1229
Flags: MW
HStem: 0 21G<226 412 226 226> 217 155<9 226 9 226 412 707> 714 155<412 1017 412 1017> 1396 156<412 1080 412 412>
VStem: 226 186<0 217 372 714 869 1396>
LayerCount: 2
Fore
SplineSet
412 0 m 1
 226 0 l 1
 226 217 l 1
 9 217 l 1
 9 372 l 1
 226 372 l 1
 226 1552 l 1
 1080 1552 l 1
 1080 1396 l 1
 412 1396 l 1
 412 869 l 1
 1017 869 l 1
 1017 714 l 1
 412 714 l 1
 412 372 l 1
 707 372 l 1
 707 217 l 1
 412 217 l 1
 412 0 l 1
EndSplineSet
EndChar

StartChar: Gbreve
Encoding: 286 286 248
Width: 1229
Flags: MW
HStem: -47 155<722.5 815.5 722.5 832.5> 613 155<731 886 731 1088> 1443 156<727 820> 1722 132<759 759>
VStem: 118 209<694.5 836.5 690 856.5> 886 202<113 613 613 613>
LayerCount: 2
Fore
SplineSet
1088 768 m 1
 1088 1 l 1
 979 -31 878 -47 787 -47 c 0
 658 -47 542 -15 441 49 c 0
 340 113 261 209 204 338 c 0
 147 467 118 613 118 776 c 0
 118 937 146 1081 202 1209 c 0
 258 1337 337 1434 439 1500 c 0
 541 1566 653 1599 775 1599 c 0
 867 1599 971 1577 1087 1534 c 1
 1087 1350 l 1
 980 1412 873 1443 767 1443 c 0
 687 1443 614 1416 547 1361 c 0
 481 1306 428 1226 387 1120 c 0
 347 1015 327 899 327 774 c 0
 327 606 365 453 442 315 c 0
 519 177 640 108 805 108 c 0
 826 108 853 110 886 113 c 1
 886 613 l 1
 731 613 l 1
 731 768 l 1
 1088 768 l 1
463 2048 m 1
 591 2048 l 1
 597 1997 616 1951 649 1912 c 0
 682 1873 718 1854 759 1854 c 0
 800 1854 836 1874 868 1913 c 0
 900 1953 919 1998 925 2048 c 1
 1053 2048 l 1
 1031 1831 891 1728 759 1722 c 1
 627 1728 486 1831 463 2048 c 1
EndSplineSet
EndChar

StartChar: gbreve
Encoding: 287 287 249
Width: 1229
Flags: MW
HStem: -465 155<504 596.5 504 600.5> -31 178<498.5 514.5> 977 156<663.5 714.5 575 749.5> 1097 20G<905 1092 1092 1092> 1288 132<683 683>
VStem: 118 202<426.5 521.5> 905 187<233 251 251 251 472 951 951 951>
LayerCount: 2
Fore
SplineSet
905 93 m 2xea
 905 251 l 1
 848 158 780 87 700 40 c 0
 621 -7 548 -31 481 -31 c 0
 388 -31 304 9 229 90 c 0
 155 171 118 293 118 457 c 0
 118 586 143 702 192 803 c 0
 291 1007 453 1133 697 1133 c 0xee
 732 1133 786 1129 857 1122 c 2
 905 1117 l 1
 1092 1117 l 1xda
 1092 327 l 2
 1092 139 1089 24 1084 -17 c 0
 1079 -59 1071 -101 1060 -144 c 0
 1033 -243 972 -322 877 -379 c 0
 782 -436 668 -465 533 -465 c 0
 398 -465 261 -430 122 -361 c 1
 122 -173 l 1
 175 -209 239 -241 316 -268 c 0
 393 -296 468 -310 540 -310 c 0
 653 -310 761 -273 824 -205 c 0
 855 -171 877 -131 888 -86 c 0
 899 -41 905 18 905 93 c 2xea
905 472 m 1
 905 951 l 1
 839 968 778 977 721 977 c 0
 606 977 511 933 434 844 c 0
 358 755 320 635 320 482 c 0
 320 371 341 288 382 231 c 0
 424 175 472 147 525 147 c 0
 583 147 647 176 717 235 c 0
 787 294 850 373 905 472 c 1
387 1614 m 1
 515 1614 l 1
 521 1563 540 1517 573 1478 c 0
 606 1439 642 1420 683 1420 c 0
 724 1420 760 1440 792 1479 c 0
 824 1519 843 1564 849 1614 c 1
 977 1614 l 1
 955 1397 815 1294 683 1288 c 1
 551 1294 410 1397 387 1614 c 1
EndSplineSet
EndChar

StartChar: Idot
Encoding: 304 304 250
Width: 1229
Flags: MW
HStem: 0 155<172 513 715 1056 172 513> 1396 156<172 513 172 1056 715 715 715 1056>
VStem: 513 202<155 1396 155 1396>
LayerCount: 2
Fore
SplineSet
1056 0 m 1
 172 0 l 1
 172 155 l 1
 513 155 l 1
 513 1396 l 1
 172 1396 l 1
 172 1552 l 1
 1056 1552 l 1
 1056 1396 l 1
 715 1396 l 1
 715 155 l 1
 1056 155 l 1
 1056 0 l 1
608 1700 m 0
 574 1700 545 1712 521 1735 c 0
 497 1759 485 1788 485 1822 c 0
 485 1856 497 1885 521 1909 c 0
 546 1933 575 1945 608 1945 c 0
 641 1945 669 1933 693 1909 c 0
 718 1885 730 1856 730 1822 c 0
 730 1788 718 1759 694 1735 c 0
 670 1712 641 1700 608 1700 c 0
EndSplineSet
EndChar

StartChar: Scedilla
Encoding: 350 350 251
Width: 1229
Flags: MW
HStem: -435 86<528.5 620.5> -47 156<527.5 536> 1443 155<619 716>
VStem: 173 209<1180.5 1242.5> 640 131<-291.5 -273 -307.5 -261.5> 902 201<332.5 386>
LayerCount: 2
Fore
SplineSet
454 -197 m 1
 536 -47 l 1
 498 -47 451 -44 395 -38 c 0
 339 -32 260 -8 157 33 c 1
 157 223 l 1
 317 147 462 109 593 109 c 0
 648 109 700 119 750 140 c 0
 850 183 902 267 902 359 c 0
 902 413 884 463 849 510 c 0
 814 557 747 609 650 666 c 2
 548 725 l 1
 445 782 l 1
 264 887 173 1021 173 1184 c 0
 173 1301 213 1399 294 1478 c 0
 375 1558 502 1598 674 1598 c 0
 785 1598 892 1582 995 1550 c 1
 995 1377 l 1
 881 1421 770 1443 662 1443 c 0
 576 1443 508 1420 457 1375 c 0
 407 1330 382 1275 382 1211 c 0
 382 1150 403 1097 446 1052 c 0
 489 1007 537 969 591 937 c 2
 669 890 l 1
 766 831 l 1
 848 783 l 2
 1018 679 1103 547 1103 388 c 0
 1103 277 1067 182 994 101 c 0
 922 21 806 -27 646 -44 c 1
 598 -131 l 1
 669 -145 716 -167 738 -196 c 0
 760 -226 771 -257 771 -289 c 0
 771 -326 756 -359 727 -389 c 0
 698 -420 652 -435 589 -435 c 0
 534 -435 481 -426 430 -407 c 1
 430 -318 l 1
 469 -339 508 -349 549 -349 c 0
 572 -349 593 -342 612 -328 c 0
 631 -314 640 -299 640 -284 c 0
 640 -239 578 -210 454 -197 c 1
EndSplineSet
EndChar

StartChar: scedilla
Encoding: 351 351 252
Width: 1229
Flags: MW
HStem: -435 86<549 641> -30 154<538.5 664> -29 21G<676 676> 993 155<603 698>
VStem: 199 194<823 868 823 878> 660 132<-291.5 -273 -307.5 -261.5> 882 194<260.5 298>
LayerCount: 2
Fore
SplineSet
475 -197 m 1xbe
 566 -30 l 1
 511 -30 446 -22 371 -5 c 0
 296 12 228 33 168 59 c 1
 168 256 l 1
 243 207 322 173 405 153 c 0
 488 134 559 124 617 124 c 0
 711 124 779 139 820 169 c 0xde
 861 200 882 238 882 283 c 0
 882 313 872 339 853 360 c 0
 834 381 786 408 709 439 c 2
 517 517 l 1
 440 546 l 2
 273 613 199 699 199 832 c 0
 199 924 234 1000 305 1059 c 0
 376 1118 492 1148 651 1148 c 0
 770 1148 883 1131 990 1096 c 1
 990 927 l 1
 867 971 752 993 644 993 c 0
 562 993 500 978 457 949 c 0
 414 920 393 887 393 849 c 0
 393 797 424 758 487 732 c 2
 575 695 l 1
 637 669 l 1
 763 623 l 2
 881 579 963 533 1008 484 c 0
 1053 435 1076 374 1076 301 c 0
 1076 197 1027 106 954 54 c 0
 923 32 889 14 852 1 c 0
 815 -12 757 -22 676 -29 c 1
 618 -131 l 1
 690 -145 737 -167 759 -196 c 0
 781 -226 792 -257 792 -289 c 0
 792 -326 777 -359 747 -389 c 0
 718 -420 672 -435 610 -435 c 0
 555 -435 502 -426 451 -407 c 1
 451 -318 l 1
 490 -339 529 -349 569 -349 c 0
 593 -349 614 -342 632 -328 c 0
 651 -314 660 -299 660 -284 c 0
 660 -239 598 -210 475 -197 c 1xbe
EndSplineSet
EndChar

StartChar: Cacute
Encoding: 262 262 253
Width: 1229
Flags: MW
HStem: -47 155<715.5 820.5 688.5 822> 1443 156<728 821>
VStem: 118 209<713 838 713 856.5> 837 251
LayerCount: 2
Fore
SplineSet
1088 201 m 1
 1088 18 l 1
 972 -25 868 -47 776 -47 c 0
 655 -47 543 -15 441 50 c 0
 339 115 260 212 203 340 c 0
 146 469 118 614 118 776 c 0
 118 937 146 1081 202 1209 c 0
 258 1337 337 1434 439 1500 c 0
 541 1566 653 1599 776 1599 c 0
 868 1599 972 1577 1088 1534 c 1
 1088 1350 l 1
 981 1412 874 1443 768 1443 c 0
 688 1443 615 1416 548 1361 c 0
 482 1306 429 1226 388 1120 c 0
 347 1015 327 900 327 776 c 0
 327 650 348 534 390 427 c 0
 474 214 609 108 768 108 c 0
 873 108 980 139 1088 201 c 1
711 1722 m 1
 541 1722 l 1
 837 2048 l 1
 1053 2048 l 1
 711 1722 l 1
EndSplineSet
EndChar

StartChar: cacute
Encoding: 263 263 254
Width: 1229
Flags: MW
HStem: -31 171<739 777.5 689.5 795.5> 993 155<712 786.5 651 797.5>
VStem: 164 202<558 602.5 514.5 642.5>
LayerCount: 2
Fore
SplineSet
1095 211 m 1
 1095 32 l 1
 970 -10 852 -31 739 -31 c 0
 405 -33 160 224 164 558 c 0
 164 727 219 868 329 980 c 0
 440 1092 573 1148 729 1148 c 0
 844 1148 966 1126 1095 1083 c 1
 1095 904 l 1
 965 963 849 993 746 993 c 0
 678 993 614 976 554 942 c 0
 494 909 448 856 415 785 c 0
 382 714 366 640 366 565 c 0
 366 464 397 368 460 277 c 0
 523 186 622 140 757 140 c 0
 798 140 838 143 877 148 c 0
 916 154 989 175 1095 211 c 1
664 1288 m 1
 494 1288 l 1
 790 1614 l 1
 1006 1614 l 1
 664 1288 l 1
EndSplineSet
EndChar

StartChar: Ccaron
Encoding: 268 268 255
Width: 1229
Flags: MW
HStem: -47 155<715.5 820.5 688.5 822> 1443 156<728 821>
VStem: 118 209<713 838 713 856.5> 889 199
LayerCount: 2
Fore
SplineSet
1088 201 m 1
 1088 18 l 1
 972 -25 868 -47 776 -47 c 0
 655 -47 543 -15 441 50 c 0
 339 115 260 212 203 340 c 0
 146 469 118 614 118 776 c 0
 118 937 146 1081 202 1209 c 0
 258 1337 337 1434 439 1500 c 0
 541 1566 653 1599 776 1599 c 0
 868 1599 972 1577 1088 1534 c 1
 1088 1350 l 1
 981 1412 874 1443 768 1443 c 0
 688 1443 615 1416 548 1361 c 0
 482 1306 429 1226 388 1120 c 0
 347 1015 327 900 327 776 c 0
 327 650 348 534 390 427 c 0
 474 214 609 108 768 108 c 0
 873 108 980 139 1088 201 c 1
610 2048 m 1
 750 1880 l 1
 889 2048 l 1
 1045 2048 l 1
 812 1722 l 1
 688 1722 l 1
 455 2048 l 1
 610 2048 l 1
EndSplineSet
EndChar

StartChar: ccaron
Encoding: 269 269 256
Width: 1229
Flags: MW
HStem: -31 171<739 777.5 689.5 795.5> 993 155<712 786.5 651 797.5>
VStem: 164 202<558 602.5 514.5 642.5>
LayerCount: 2
Fore
SplineSet
1095 211 m 1
 1095 32 l 1
 970 -10 852 -31 739 -31 c 0
 405 -33 160 224 164 558 c 0
 164 727 219 868 329 980 c 0
 440 1092 573 1148 729 1148 c 0
 844 1148 966 1126 1095 1083 c 1
 1095 904 l 1
 965 963 849 993 746 993 c 0
 678 993 614 976 554 942 c 0
 494 909 448 856 415 785 c 0
 382 714 366 640 366 565 c 0
 366 464 397 368 460 277 c 0
 523 186 622 140 757 140 c 0
 798 140 838 143 877 148 c 0
 916 154 989 175 1095 211 c 1
610 1614 m 1
 750 1446 l 1
 889 1614 l 1
 1045 1614 l 1
 812 1288 l 1
 688 1288 l 1
 455 1614 l 1
 610 1614 l 1
EndSplineSet
EndChar

StartChar: dslash
Encoding: 273 273 257
Width: 1229
Flags: MW
HStem: -31 178<498.5 514.5> 0 21G<905 905 905 1092> 977 156<663.5 714.5 575 749.5> 1097 20G<905 905> 1102 20G<857 857> 1257 139<719 905 719 905 1092 1278>
VStem: 118 202<426.5 521.5> 905 187<0 251 251 251 472 951 951 951 1117 1257 0 1257 1396 1614>
LayerCount: 2
Fore
SplineSet
905 0 m 1x65
 905 251 l 1
 848 158 780 87 700 40 c 0
 621 -7 548 -31 481 -31 c 0
 388 -31 304 9 229 90 c 0
 155 171 118 293 118 457 c 0
 118 586 143 702 192 803 c 0
 291 1007 453 1133 697 1133 c 0xa7
 732 1133 786 1129 857 1122 c 2x4d
 905 1117 l 1x55
 905 1257 l 1
 719 1257 l 1
 719 1396 l 1
 905 1396 l 1
 905 1614 l 1
 1092 1614 l 1
 1092 1396 l 1
 1278 1396 l 1
 1278 1257 l 1
 1092 1257 l 1
 1092 0 l 1
 905 0 l 1x65
905 472 m 1
 905 951 l 1
 839 968 778 977 721 977 c 0
 606 977 511 933 434 844 c 0
 358 755 320 635 320 482 c 0
 320 371 341 288 382 231 c 0
 424 175 472 147 525 147 c 0
 583 147 647 176 717 235 c 0
 787 294 850 373 905 472 c 1
EndSplineSet
EndChar

StartChar: Amacron
Encoding: 256 256 258
Width: 1229
Flags: MW
HStem: 0 21G<33 227 33 33 984 984 984 1197> 341 155<332 833 380 833 380 878> 1532 20G<511 716 716 716> 1654 124<336 895 336 895>
VStem: 33 1164<0 0>
LayerCount: 2
Fore
SplineSet
332 341 m 1
 227 0 l 1
 33 0 l 1
 511 1552 l 1
 716 1552 l 1
 1197 0 l 1
 984 0 l 1
 878 341 l 1
 332 341 l 1
563 1085 m 1
 380 496 l 1
 833 496 l 1
 646 1085 l 1
 602 1241 l 1
 563 1085 l 1
895 1654 m 1
 336 1654 l 1
 336 1778 l 1
 895 1778 l 1
 895 1654 l 1
EndSplineSet
EndChar

StartChar: amacron
Encoding: 257 257 259
Width: 1229
Flags: MW
HStem: -31 178<482.5 498.5> 0 21G<924 1118 924 924> 977 156<647.5 698.5 559 733.5> 1097 20G<889 1076 1076 1076> 1243 124<335 894 335 894>
VStem: 102 202<426.5 521.5> 889 187<472 951 951 951>
LayerCount: 2
Fore
SplineSet
889 251 m 1x6a
 832 158 764 87 684 40 c 0
 605 -7 532 -31 465 -31 c 0
 372 -31 288 9 213 90 c 0
 139 171 102 293 102 457 c 0
 102 586 127 702 176 803 c 0
 275 1007 437 1133 681 1133 c 0xae
 716 1133 770 1129 841 1122 c 2
 889 1117 l 1
 1076 1117 l 1x5a
 1076 328 l 2
 1076 193 1090 84 1118 0 c 1
 924 0 l 1
 909 61 898 145 889 251 c 1x6a
889 472 m 1
 889 951 l 1
 823 968 762 977 705 977 c 0
 590 977 495 933 418 844 c 0
 342 755 304 635 304 482 c 0
 304 371 325 288 366 231 c 0
 408 175 456 147 509 147 c 0
 567 147 631 176 701 235 c 0xae
 771 294 834 373 889 472 c 1
894 1243 m 1
 335 1243 l 1
 335 1367 l 1
 894 1367 l 1
 894 1243 l 1
EndSplineSet
EndChar

StartChar: Abreve
Encoding: 258 258 260
Width: 1229
Flags: MW
HStem: 0 21G<33 227 33 33 984 984 984 1197> 341 155<332 833 380 833 380 878> 1532 20G<511 716 716 716> 1654 132<616 616>
VStem: 33 1164<0 0>
LayerCount: 2
Fore
SplineSet
332 341 m 1
 227 0 l 1
 33 0 l 1
 511 1552 l 1
 716 1552 l 1
 1197 0 l 1
 984 0 l 1
 878 341 l 1
 332 341 l 1
563 1085 m 1
 380 496 l 1
 833 496 l 1
 646 1085 l 1
 602 1241 l 1
 563 1085 l 1
320 1980 m 1
 448 1980 l 1
 454 1929 473 1883 506 1844 c 0
 539 1805 575 1786 616 1786 c 0
 657 1786 693 1806 725 1845 c 0
 757 1885 776 1930 782 1980 c 1
 910 1980 l 1
 888 1763 748 1660 616 1654 c 1
 484 1660 343 1763 320 1980 c 1
EndSplineSet
EndChar

StartChar: abreve
Encoding: 259 259 261
Width: 1229
Flags: MW
HStem: -31 178<482.5 498.5> 0 21G<924 1118 924 924> 977 156<647.5 698.5 559 733.5> 1097 20G<889 1076 1076 1076> 1243 132<616 616> 1549 20G<320 448 448 448 782 910 910 910>
VStem: 102 202<426.5 521.5> 889 187<472 951 951 951>
LayerCount: 2
Fore
SplineSet
889 251 m 1x6d
 832 158 764 87 684 40 c 0
 605 -7 532 -31 465 -31 c 0
 372 -31 288 9 213 90 c 0
 139 171 102 293 102 457 c 0
 102 586 127 702 176 803 c 0
 275 1007 437 1133 681 1133 c 0xaf
 716 1133 770 1129 841 1122 c 2
 889 1117 l 1
 1076 1117 l 1x5d
 1076 328 l 2
 1076 193 1090 84 1118 0 c 1
 924 0 l 1
 909 61 898 145 889 251 c 1x6d
889 472 m 1
 889 951 l 1
 823 968 762 977 705 977 c 0
 590 977 495 933 418 844 c 0
 342 755 304 635 304 482 c 0
 304 371 325 288 366 231 c 0
 408 175 456 147 509 147 c 0
 567 147 631 176 701 235 c 0xaf
 771 294 834 373 889 472 c 1
320 1569 m 1
 448 1569 l 1
 454 1518 473 1472 506 1433 c 0
 539 1394 575 1375 616 1375 c 0
 657 1375 693 1395 725 1434 c 0
 757 1474 776 1519 782 1569 c 1
 910 1569 l 1
 888 1352 748 1249 616 1243 c 1
 484 1249 343 1352 320 1569 c 1
EndSplineSet
EndChar

StartChar: Aogonek
Encoding: 260 260 262
Width: 1229
Flags: MW
HStem: -424 107<1073.5 1090.5> 0 10<1004 1197 1004 1197> 341 155<332 833 380 833 380 878> 1532 20G<511 716 716 716>
VStem: 856 140<-250.5 -214 -250.5 -206.5>
LayerCount: 2
Fore
SplineSet
332 341 m 1
 227 0 l 1
 33 0 l 1
 511 1552 l 1
 716 1552 l 1
 1197 0 l 1
 984 0 l 1
 878 341 l 1
 332 341 l 1
563 1085 m 1
 380 496 l 1
 833 496 l 1
 646 1085 l 1
 602 1241 l 1
 563 1085 l 1
1004 10 m 1
 1197 10 l 1
 1137 -18 1088 -57 1051 -107 c 0
 1014 -157 996 -198 996 -230 c 0
 996 -271 1030 -317 1117 -317 c 0
 1140 -317 1167 -311 1197 -298 c 1
 1197 -395 l 1
 1153 -414 1111 -424 1070 -424 c 0
 1008 -424 957 -407 916 -374 c 0
 876 -341 856 -298 856 -247 c 0
 856 -166 905 -81 1004 10 c 1
EndSplineSet
EndChar

StartChar: aogonek
Encoding: 261 261 263
Width: 1229
Flags: MW
HStem: -425 107<994.5 1011.5> -31 178<482.5 498.5> 0 9<925 1118 925 1118 924 1118> 977 156<647.5 698.5 559 733.5> 1097 20G<889 1076 1076 1076>
VStem: 102 202<426.5 521.5> 777 140<-251.5 -215 -251.5 -207.5> 889 187<472 951 951 951>
LayerCount: 2
Fore
SplineSet
889 251 m 1xb1
 832 158 764 87 684 40 c 0
 605 -7 532 -31 465 -31 c 0
 372 -31 288 9 213 90 c 0
 139 171 102 293 102 457 c 0
 102 586 127 702 176 803 c 0
 275 1007 437 1133 681 1133 c 0xd5
 716 1133 770 1129 841 1122 c 2
 889 1117 l 1
 1076 1117 l 1xa9
 1076 328 l 2
 1076 193 1090 84 1118 0 c 1
 924 0 l 1
 909 61 898 145 889 251 c 1xb1
889 472 m 1
 889 951 l 1
 823 968 762 977 705 977 c 0
 590 977 495 933 418 844 c 0
 342 755 304 635 304 482 c 0
 304 371 325 288 366 231 c 0
 408 175 456 147 509 147 c 0
 567 147 631 176 701 235 c 0xd5
 771 294 834 373 889 472 c 1
925 9 m 1xb1
 1118 9 l 1
 1058 -19 1009 -58 972 -108 c 0
 935 -158 917 -199 917 -231 c 0
 917 -272 951 -318 1038 -318 c 0
 1061 -318 1088 -312 1118 -299 c 1
 1118 -396 l 1
 1074 -415 1032 -425 991 -425 c 0
 929 -425 878 -408 837 -375 c 0
 797 -342 777 -299 777 -248 c 0xb2
 777 -167 826 -82 925 9 c 1xb1
EndSplineSet
EndChar

StartChar: Ccircumflex
Encoding: 264 264 264
Width: 1229
Flags: MW
HStem: -47 155<715.5 820.5 688.5 822> 1443 156<728 821>
VStem: 118 209<713 838 713 856.5>
LayerCount: 2
Fore
SplineSet
1088 201 m 1
 1088 18 l 1
 972 -25 868 -47 776 -47 c 0
 655 -47 543 -15 441 50 c 0
 339 115 260 212 203 340 c 0
 146 469 118 614 118 776 c 0
 118 937 146 1081 202 1209 c 0
 258 1337 337 1434 439 1500 c 0
 541 1566 653 1599 776 1599 c 0
 868 1599 972 1577 1088 1534 c 1
 1088 1350 l 1
 981 1412 874 1443 768 1443 c 0
 688 1443 615 1416 548 1361 c 0
 482 1306 429 1226 388 1120 c 0
 347 1015 327 900 327 776 c 0
 327 650 348 534 390 427 c 0
 474 214 609 108 768 108 c 0
 873 108 980 139 1088 201 c 1
852 1701 m 1
 713 1869 l 1
 573 1701 l 1
 418 1701 l 1
 651 2027 l 1
 775 2027 l 1
 1008 1701 l 1
 852 1701 l 1
EndSplineSet
EndChar

StartChar: ccircumflex
Encoding: 265 265 265
Width: 1229
Flags: MW
HStem: -31 171<739 777.5 689.5 795.5> 993 155<712 786.5 651 797.5> 1564 20G<617 741 741 741>
VStem: 164 202<558 602.5 514.5 642.5>
LayerCount: 2
Fore
SplineSet
1095 211 m 1
 1095 32 l 1
 970 -10 852 -31 739 -31 c 0
 405 -33 160 224 164 558 c 0
 164 727 219 868 329 980 c 0
 440 1092 573 1148 729 1148 c 0
 844 1148 966 1126 1095 1083 c 1
 1095 904 l 1
 965 963 849 993 746 993 c 0
 678 993 614 976 554 942 c 0
 494 909 448 856 415 785 c 0
 382 714 366 640 366 565 c 0
 366 464 397 368 460 277 c 0
 523 186 622 140 757 140 c 0
 798 140 838 143 877 148 c 0
 916 154 989 175 1095 211 c 1
818 1258 m 1
 679 1426 l 1
 539 1258 l 1
 384 1258 l 1
 617 1584 l 1
 741 1584 l 1
 974 1258 l 1
 818 1258 l 1
EndSplineSet
EndChar

StartChar: Cdotaccent
Encoding: 266 266 266
Width: 1229
Flags: MW
HStem: -47 155<715.5 820.5 688.5 822> 1443 156<728 821>
VStem: 118 209<713 838 713 856.5>
LayerCount: 2
Fore
SplineSet
1088 201 m 1
 1088 18 l 1
 972 -25 868 -47 776 -47 c 0
 655 -47 543 -15 441 50 c 0
 339 115 260 212 203 340 c 0
 146 469 118 614 118 776 c 0
 118 937 146 1081 202 1209 c 0
 258 1337 337 1434 439 1500 c 0
 541 1566 653 1599 776 1599 c 0
 868 1599 972 1577 1088 1534 c 1
 1088 1350 l 1
 981 1412 874 1443 768 1443 c 0
 688 1443 615 1416 548 1361 c 0
 482 1306 429 1226 388 1120 c 0
 347 1015 327 900 327 776 c 0
 327 650 348 534 390 427 c 0
 474 214 609 108 768 108 c 0
 873 108 980 139 1088 201 c 1
704 1779 m 0
 670 1779 641 1791 617 1814 c 0
 593 1838 581 1867 581 1901 c 0
 581 1935 593 1964 617 1988 c 0
 642 2012 671 2024 704 2024 c 0
 737 2024 765 2012 789 1988 c 0
 814 1964 826 1935 826 1901 c 0
 826 1867 814 1838 790 1814 c 0
 766 1791 737 1779 704 1779 c 0
EndSplineSet
EndChar

StartChar: cdotaccent
Encoding: 267 267 267
Width: 1229
Flags: MW
HStem: -31 171<739 777.5 689.5 795.5> 993 155<712 786.5 651 797.5> 1561 20G<663.5 696.5>
VStem: 164 202<558 602.5 514.5 642.5>
LayerCount: 2
Fore
SplineSet
1095 211 m 1
 1095 32 l 1
 970 -10 852 -31 739 -31 c 0
 405 -33 160 224 164 558 c 0
 164 727 219 868 329 980 c 0
 440 1092 573 1148 729 1148 c 0
 844 1148 966 1126 1095 1083 c 1
 1095 904 l 1
 965 963 849 993 746 993 c 0
 678 993 614 976 554 942 c 0
 494 909 448 856 415 785 c 0
 382 714 366 640 366 565 c 0
 366 464 397 368 460 277 c 0
 523 186 622 140 757 140 c 0
 798 140 838 143 877 148 c 0
 916 154 989 175 1095 211 c 1
680 1336 m 0
 646 1336 617 1348 593 1371 c 0
 569 1395 557 1424 557 1458 c 0
 557 1492 569 1521 593 1545 c 0
 618 1569 647 1581 680 1581 c 0
 713 1581 741 1569 765 1545 c 0
 790 1521 802 1492 802 1458 c 0
 802 1424 790 1395 766 1371 c 0
 742 1348 713 1336 680 1336 c 0
EndSplineSet
EndChar

StartChar: Dcaron
Encoding: 270 270 268
Width: 1229
Flags: MW
HStem: 0 171<357 492 492 523> 1396 156<357 357 357 508>
VStem: 155 202<171 1396 171 1552 171 1552> 947 201<728 853.5 694.5 878.5>
LayerCount: 2
Fore
SplineSet
523 0 m 2
 155 0 l 1
 155 1552 l 1
 523 1552 l 2
 692 1552 818 1522 900 1463 c 0
 983 1404 1045 1315 1086 1196 c 0
 1127 1077 1148 935 1148 772 c 0
 1148 617 1126 481 1082 364 c 0
 1039 247 977 157 897 94 c 0
 817 31 692 0 523 0 c 2
357 1396 m 1
 357 171 l 1
 492 171 l 2
 629 171 726 195 784 244 c 0
 843 293 884 360 909 446 c 0
 934 533 947 652 947 804 c 0
 947 953 932 1067 903 1147 c 0
 874 1227 832 1288 777 1331 c 0
 722 1374 633 1396 508 1396 c 2
 357 1396 l 1
469 1980 m 1
 609 1812 l 1
 748 1980 l 1
 904 1980 l 1
 671 1654 l 1
 547 1654 l 1
 314 1980 l 1
 469 1980 l 1
EndSplineSet
EndChar

StartChar: dcaron
Encoding: 271 271 269
Width: 1229
Flags: MW
HStem: -31 178<494.5 510.5> 0 21G<901 901 901 1088> 977 156<659.5 710.5 571 745.5> 1097 20G<901 901> 1102 20G<853 853>
VStem: 114 202<426.5 521.5> 901 187<0 251 251 251 472 951 951 951 1117 1614 0 1614>
LayerCount: 2
Fore
SplineSet
901 0 m 1x62
 901 251 l 1
 844 158 776 87 696 40 c 0
 617 -7 544 -31 477 -31 c 0
 384 -31 300 9 225 90 c 0
 151 171 114 293 114 457 c 0
 114 586 139 702 188 803 c 0
 287 1007 449 1133 693 1133 c 0xa6
 728 1133 782 1129 853 1122 c 2x4a
 901 1117 l 1x52
 901 1614 l 1
 1088 1614 l 1
 1088 0 l 1
 901 0 l 1x62
901 472 m 1
 901 951 l 1
 835 968 774 977 717 977 c 0
 602 977 507 933 430 844 c 0
 354 755 316 635 316 482 c 0
 316 371 337 288 378 231 c 0
 420 175 468 147 521 147 c 0
 579 147 643 176 713 235 c 0
 783 294 846 373 901 472 c 1
378 1814 m 1
 518 1646 l 1
 657 1814 l 1
 813 1814 l 1
 580 1488 l 1
 456 1488 l 1
 223 1814 l 1
 378 1814 l 1
EndSplineSet
EndChar

StartChar: Emacron
Encoding: 274 274 270
Width: 1229
Flags: MW
HStem: 0 171<405 1041 405 1041> 714 155<405 963 405 963> 1396 156<405 1025 405 405> 1754 124<343 902 343 902>
VStem: 203 202<171 171 171 714 869 1396>
LayerCount: 2
Fore
SplineSet
405 171 m 1
 1041 171 l 1
 1041 0 l 1
 203 0 l 1
 203 1552 l 1
 1025 1552 l 1
 1025 1396 l 1
 405 1396 l 1
 405 869 l 1
 963 869 l 1
 963 714 l 1
 405 714 l 1
 405 171 l 1
902 1754 m 1
 343 1754 l 1
 343 1878 l 1
 902 1878 l 1
 902 1754 l 1
EndSplineSet
EndChar

StartChar: emacron
Encoding: 275 275 271
Width: 1229
Flags: MW
HStem: -32 156<618.5 728.5> 528 139<341 898 341 1100 330 898> 993 155<610 689.5> 1258 124<376 935 376 935>
VStem: 130 200<503 528 489.5 607> 898 202<528 694 528 739.5>
LayerCount: 2
Fore
SplineSet
1084 244 m 1
 1084 74 l 1
 935 3 795 -32 662 -32 c 0
 561 -32 471 -7 392 43 c 0
 313 93 249 164 201 257 c 0
 154 350 130 450 130 556 c 0
 130 658 153 756 198 850 c 0
 243 944 307 1017 388 1069 c 0
 469 1122 560 1148 660 1148 c 0
 793 1148 899 1101 979 1006 c 0
 1060 911 1100 765 1100 568 c 2
 1100 528 l 1
 330 528 l 1
 330 451 346 380 378 316 c 0
 443 188 551 124 686 124 c 0
 806 124 939 164 1084 244 c 1
341 667 m 1
 898 667 l 1
 898 694 l 2
 898 785 876 858 831 912 c 0
 786 966 727 993 652 993 c 0
 501 993 385 882 341 667 c 1
935 1258 m 1
 376 1258 l 1
 376 1382 l 1
 935 1382 l 1
 935 1258 l 1
EndSplineSet
EndChar

StartChar: Ebreve
Encoding: 276 276 272
Width: 1229
Flags: MW
HStem: 0 171<405 1041 405 1041> 714 155<405 963 405 963> 1396 156<405 1025 405 405> 1654 132<623 623>
VStem: 203 202<171 171 171 714 869 1396> 789 252
LayerCount: 2
Fore
SplineSet
405 171 m 1
 1041 171 l 1
 1041 0 l 1
 203 0 l 1
 203 1552 l 1
 1025 1552 l 1
 1025 1396 l 1
 405 1396 l 1
 405 869 l 1
 963 869 l 1
 963 714 l 1
 405 714 l 1
 405 171 l 1
327 1980 m 1
 455 1980 l 1
 461 1929 480 1883 513 1844 c 0
 546 1805 582 1786 623 1786 c 0
 664 1786 700 1806 732 1845 c 0
 764 1885 783 1930 789 1980 c 1
 917 1980 l 1
 895 1763 755 1660 623 1654 c 1
 491 1660 350 1763 327 1980 c 1
EndSplineSet
EndChar

StartChar: ebreve
Encoding: 277 277 273
Width: 1229
Flags: MW
HStem: -32 156<618.5 728.5> 528 139<341 898 341 1100 330 898> 993 155<610 689.5> 1258 132<666 666> 1564 20G<370 498 498 498 832 960 960 960>
VStem: 130 200<503 528 489.5 607> 898 202<528 694 528 739.5>
LayerCount: 2
Fore
SplineSet
1084 244 m 1
 1084 74 l 1
 935 3 795 -32 662 -32 c 0
 561 -32 471 -7 392 43 c 0
 313 93 249 164 201 257 c 0
 154 350 130 450 130 556 c 0
 130 658 153 756 198 850 c 0
 243 944 307 1017 388 1069 c 0
 469 1122 560 1148 660 1148 c 0
 793 1148 899 1101 979 1006 c 0
 1060 911 1100 765 1100 568 c 2
 1100 528 l 1
 330 528 l 1
 330 451 346 380 378 316 c 0
 443 188 551 124 686 124 c 0
 806 124 939 164 1084 244 c 1
341 667 m 1
 898 667 l 1
 898 694 l 2
 898 785 876 858 831 912 c 0
 786 966 727 993 652 993 c 0
 501 993 385 882 341 667 c 1
370 1584 m 1
 498 1584 l 1
 504 1533 523 1487 556 1448 c 0
 589 1409 625 1390 666 1390 c 0
 707 1390 743 1410 775 1449 c 0
 807 1489 826 1534 832 1584 c 1
 960 1584 l 1
 938 1367 798 1264 666 1258 c 1
 534 1264 393 1367 370 1584 c 1
EndSplineSet
EndChar

StartChar: Edotaccent
Encoding: 278 278 274
Width: 1229
Flags: MW
HStem: 0 171<405 1041 405 1041> 714 155<405 963 405 963> 1396 156<405 1025 405 405>
VStem: 203 202<171 171 171 714 869 1396>
LayerCount: 2
Fore
SplineSet
405 171 m 1
 1041 171 l 1
 1041 0 l 1
 203 0 l 1
 203 1552 l 1
 1025 1552 l 1
 1025 1396 l 1
 405 1396 l 1
 405 869 l 1
 963 869 l 1
 963 714 l 1
 405 714 l 1
 405 171 l 1
623 1732 m 0
 589 1732 560 1744 536 1767 c 0
 512 1791 500 1820 500 1854 c 0
 500 1888 512 1917 536 1941 c 0
 561 1965 590 1977 623 1977 c 0
 656 1977 684 1965 708 1941 c 0
 733 1917 745 1888 745 1854 c 0
 745 1820 733 1791 709 1767 c 0
 685 1744 656 1732 623 1732 c 0
EndSplineSet
EndChar

StartChar: edotaccent
Encoding: 279 279 275
Width: 1229
Flags: MW
HStem: -32 156<618.5 728.5> 528 139<341 898 341 1100 330 898> 993 155<610 689.5> 1561 20G<649.5 682.5>
VStem: 130 200<503 528 489.5 607> 898 202<528 694 528 739.5>
LayerCount: 2
Fore
SplineSet
1084 244 m 1
 1084 74 l 1
 935 3 795 -32 662 -32 c 0
 561 -32 471 -7 392 43 c 0
 313 93 249 164 201 257 c 0
 154 350 130 450 130 556 c 0
 130 658 153 756 198 850 c 0
 243 944 307 1017 388 1069 c 0
 469 1122 560 1148 660 1148 c 0
 793 1148 899 1101 979 1006 c 0
 1060 911 1100 765 1100 568 c 2
 1100 528 l 1
 330 528 l 1
 330 451 346 380 378 316 c 0
 443 188 551 124 686 124 c 0
 806 124 939 164 1084 244 c 1
341 667 m 1
 898 667 l 1
 898 694 l 2
 898 785 876 858 831 912 c 0
 786 966 727 993 652 993 c 0
 501 993 385 882 341 667 c 1
666 1336 m 0
 632 1336 603 1348 579 1371 c 0
 555 1395 543 1424 543 1458 c 0
 543 1492 555 1521 579 1545 c 0
 604 1569 633 1581 666 1581 c 0
 699 1581 727 1569 751 1545 c 0
 776 1521 788 1492 788 1458 c 0
 788 1424 776 1395 752 1371 c 0
 728 1348 699 1336 666 1336 c 0
EndSplineSet
EndChar

